JonovaCondensed-BoldItalic.ufo
<glyph name="sign:exclam" format="2">
  <advance width="552"/>
  <unicode hex="0021"/>
  <guideline x="186" y="0" angle="90"/>
  <outline>
    <contour>
      <point x="347" y="375" type="line" name="hr00"/>
      <point x="412" y="1434" type="line"/>
      <point x="439" y="1464" type="line" name="at01"/>
      <point x="658" y="1464" type="line"/>
      <point x="676" y="1434" type="line"/>
      <point x="461" y="375" type="line"/>
    </contour>
    <contour>
      <point x="479" y="116" type="qcurve" name="dh02"/>
      <point x="479" y="86"/>
      <point x="462" y="32"/>
      <point x="433" y="-7"/>
      <point x="392" y="-30"/>
      <point x="370" y="-30" type="qcurve" name="ab01"/>
      <point x="347" y="-30"/>
      <point x="307" y="-7"/>
      <point x="278" y="32"/>
      <point x="260" y="86"/>
      <point x="260" y="116" type="qcurve" name="dh01"/>
      <point x="260" y="146"/>
      <point x="278" y="200"/>
      <point x="307" y="239"/>
      <point x="347" y="262"/>
      <point x="370" y="262" type="qcurve" name="sv01"/>
      <point x="392" y="262"/>
      <point x="433" y="239"/>
      <point x="462" y="200"/>
      <point x="479" y="146"/>
    </contour>
  </outline>
</glyph>
<glyph name="quotedbl" format="2">
  <advance width="552"/>
  <unicode hex="0022"/>
  <guideline x="0" y="854" angle="0"/>
  <guideline x="0" y="953" angle="0"/>
  <guideline x="184" y="0" angle="90"/>
  <guideline x="125" y="0" angle="90"/>
  <outline>
    <contour>
      <point x="197" y="901" type="line" name="av01"/>
      <point x="223" y="1434" type="line"/>
      <point x="250" y="1464" type="line" name="at01"/>
      <point x="401" y="1464" type="line"/>
      <point x="419" y="1434" type="line"/>
      <point x="304" y="901" type="line"/>
    </contour>
    <contour>
      <point x="485" y="901" type="line" name="av02"/>
      <point x="511" y="1434" type="line"/>
      <point x="538" y="1464" type="line" name="at02"/>
      <point x="689" y="1464" type="line"/>
      <point x="707" y="1434" type="line"/>
      <point x="592" y="901" type="line"/>
    </contour>
  </outline>
</glyph>
<glyph name="numbersign" format="2">
  <advance width="840"/>
  <unicode hex="0023"/>
  <guideline x="0" y="431" angle="0"/>
  <guideline x="0" y="1136" angle="0"/>
  <guideline x="228" y="0" angle="70"/>
  <guideline x="791" y="0" angle="70"/>
  <guideline x="418" y="0" angle="70"/>
  <guideline x="533" y="0" angle="70"/>
  <guideline x="-35" y="0" angle="70"/>
  <guideline x="683" y="0" angle="70"/>
  <guideline x="116" y="0" angle="70"/>
  <outline>
    <contour>
      <point x="239" y="1004" type="line" name="at03"/>
      <point x="389" y="1004" type="line"/>
      <point x="515" y="1464" type="line" name="at01"/>
      <point x="620" y="1434" type="line"/>
      <point x="502" y="1004" type="line" name="at04"/>
      <point x="692" y="1004" type="line"/>
      <point x="818" y="1464" type="line" name="at02"/>
      <point x="925" y="1434" type="line"/>
      <point x="808" y="1004" type="line" name="at05"/>
      <point x="958" y="1004" type="line"/>
      <point x="916" y="852" type="line" name="sv01"/>
      <point x="766" y="852" type="line"/>
      <point x="692" y="583" type="line"/>
      <point x="842" y="583" type="line" name="dv02"/>
      <point x="801" y="431" type="line" name="dv01"/>
      <point x="651" y="431" type="line"/>
      <point x="525" y="-30" type="line" name="ab01"/>
      <point x="418" y="0" type="line"/>
      <point x="536" y="431" type="line" name="sv02"/>
      <point x="346" y="431" type="line"/>
      <point x="220" y="-30" type="line" name="ab02"/>
      <point x="116" y="0" type="line"/>
      <point x="233" y="431" type="line" name="sv03"/>
      <point x="83" y="431" type="line" name="iv01"/>
      <point x="125" y="583" type="line" name="sv04"/>
      <point x="275" y="583" type="line"/>
      <point x="348" y="852" type="line" name="sv05"/>
      <point x="198" y="852" type="line" name="sv06"/>
    </contour>
    <contour>
      <point x="387" y="583" type="line" name="sv07"/>
      <point x="577" y="583" type="line"/>
      <point x="650" y="852" type="line" name="sv08"/>
      <point x="461" y="852" type="line" name="sv09"/>
    </contour>
  </outline>
</glyph>
<glyph name="curr:dollar" format="2">
  <advance width="840"/>
  <unicode hex="0024"/>
  <guideline x="0" y="1336" angle="0"/>
  <guideline x="0" y="1176" angle="333"/>
  <guideline x="0" y="98" angle="0"/>
  <guideline x="0" y="127" angle="45"/>
  <guideline x="719" y="0" angle="90"/>
  <guideline x="16" y="0" angle="90"/>
  <outline>
    <contour>
      <point x="548" y="1464" type="qcurve" name="hr00"/>
      <point x="563" y="1576" type="line"/>
      <point x="673" y="1600" type="line" name="ih01"/>
      <point x="655" y="1464" type="line"/>
      <point x="701" y="1459"/>
      <point x="769" y="1432"/>
      <point x="822" y="1392"/>
      <point x="866" y="1341"/>
      <point x="889" y="1312" type="qcurve"/>
      <point x="805" y="1200" type="line" name="ih02"/>
      <point x="782" y="1247"/>
      <point x="703" y="1329"/>
      <point x="639" y="1346" type="qcurve" name="sh02"/>
      <point x="575" y="861" type="line"/>
      <point x="625" y="822"/>
      <point x="715" y="738"/>
      <point x="783" y="639"/>
      <point x="823" y="521"/>
      <point x="823" y="449" type="qcurve" name="sh01"/>
      <point x="823" y="382"/>
      <point x="794" y="264"/>
      <point x="742" y="163"/>
      <point x="671" y="81"/>
      <point x="590" y="19"/>
      <point x="501" y="-22"/>
      <point x="457" y="-30" type="qcurve"/>
      <point x="442" y="-142" type="line"/>
      <point x="332" y="-165" type="line" name="ih03"/>
      <point x="350" y="-30" type="line"/>
      <point x="280" y="-24"/>
      <point x="152" y="43"/>
      <point x="87" y="121" type="qcurve"/>
      <point x="172" y="233" type="line" name="iv01"/>
      <point x="211" y="161"/>
      <point x="311" y="91"/>
      <point x="365" y="83" type="qcurve"/>
      <point x="442" y="662" type="line"/>
      <point x="391" y="698"/>
      <point x="306" y="775"/>
      <point x="245" y="864"/>
      <point x="212" y="969"/>
      <point x="212" y="1033" type="qcurve" name="sh03"/>
      <point x="212" y="1125"/>
      <point x="272" y="1275"/>
      <point x="367" y="1386"/>
      <point x="487" y="1454"/>
    </contour>
    <contour>
      <point x="634" y="371" type="qcurve" name="ah01"/>
      <point x="634" y="436"/>
      <point x="588" y="543"/>
      <point x="539" y="588" type="qcurve" name="ih04"/>
      <point x="472" y="82" type="line" name="ih05"/>
      <point x="510" y="98"/>
      <point x="570" y="155"/>
      <point x="611" y="231"/>
      <point x="634" y="321"/>
    </contour>
    <contour>
      <point x="401" y="1104" type="qcurve" name="sh04"/>
      <point x="401" y="1055"/>
      <point x="435" y="968"/>
      <point x="479" y="937" type="qcurve" name="ih06"/>
      <point x="533" y="1346" type="line" name="ih07"/>
      <point x="502" y="1332"/>
      <point x="453" y="1283"/>
      <point x="419" y="1220"/>
      <point x="401" y="1144"/>
    </contour>
  </outline>
</glyph>
<glyph name="sign:ampersand" format="2">
  <advance width="936"/>
  <unicode hex="0026"/>
  <guideline x="672" y="0" angle="120"/>
  <guideline x="899" y="0" angle="90"/>
  <outline>
    <contour>
      <point x="561" y="1191" type="qcurve" name="dh04"/>
      <point x="561" y="1159"/>
      <point x="570" y="1093"/>
      <point x="585" y="1034"/>
      <point x="602" y="987"/>
      <point x="611" y="974" type="qcurve"/>
      <point x="638" y="993"/>
      <point x="686" y="1039"/>
      <point x="722" y="1095"/>
      <point x="744" y="1162"/>
      <point x="744" y="1203" type="qcurve" name="dh05"/>
      <point x="744" y="1228"/>
      <point x="731" y="1272"/>
      <point x="709" y="1304"/>
      <point x="676" y="1322"/>
      <point x="656" y="1322" type="qcurve" name="sv01"/>
      <point x="635" y="1322"/>
      <point x="600" y="1301"/>
      <point x="575" y="1265"/>
      <point x="561" y="1217"/>
    </contour>
    <contour>
      <point x="461" y="709" type="line" name="ih01"/>
      <point x="421" y="676"/>
      <point x="357" y="583"/>
      <point x="313" y="475"/>
      <point x="290" y="356"/>
      <point x="290" y="298" type="qcurve" name="dh02"/>
      <point x="290" y="238"/>
      <point x="317" y="156"/>
      <point x="357" y="105"/>
      <point x="405" y="82"/>
      <point x="427" y="82" type="qcurve" name="sv02"/>
      <point x="454" y="82"/>
      <point x="508" y="97"/>
      <point x="558" y="123"/>
      <point x="602" y="156"/>
      <point x="620" y="174" type="qcurve"/>
    </contour>
    <contour>
      <point x="682" y="-30" type="line" name="ab01"/>
      <point x="648" y="82" type="line" name="ih02"/>
      <point x="621" y="60"/>
      <point x="563" y="19"/>
      <point x="502" y="-12"/>
      <point x="433" y="-30"/>
      <point x="395" y="-30" type="qcurve" name="ab02"/>
      <point x="324" y="-30"/>
      <point x="215" y="17"/>
      <point x="140" y="103"/>
      <point x="101" y="225"/>
      <point x="101" y="301" type="qcurve" name="dh01"/>
      <point x="101" y="398"/>
      <point x="158" y="563"/>
      <point x="249" y="701"/>
      <point x="362" y="812"/>
      <point x="419" y="855" type="qcurve"/>
      <point x="401" y="906"/>
      <point x="372" y="1025"/>
      <point x="372" y="1091" type="qcurve" name="dh03"/>
      <point x="372" y="1170"/>
      <point x="426" y="1297"/>
      <point x="512" y="1386"/>
      <point x="619" y="1434"/>
      <point x="671" y="1434" type="qcurve" name="at01"/>
      <point x="725" y="1434"/>
      <point x="805" y="1396"/>
      <point x="856" y="1333"/>
      <point x="881" y="1253"/>
      <point x="881" y="1210" type="qcurve" name="dh06"/>
      <point x="881" y="1146"/>
      <point x="836" y="1034"/>
      <point x="768" y="939"/>
      <point x="687" y="863"/>
      <point x="651" y="835" type="qcurve"/>
      <point x="776" y="396" type="line" name="ih03"/>
      <point x="788" y="413"/>
      <point x="812" y="464"/>
      <point x="835" y="520"/>
      <point x="854" y="576"/>
      <point x="859" y="599" type="qcurve"/>
      <point x="974" y="569" type="line"/>
      <point x="962" y="537"/>
      <point x="925" y="456"/>
      <point x="883" y="374"/>
      <point x="837" y="297"/>
      <point x="816" y="269" type="qcurve"/>
      <point x="899" y="0" type="line"/>
    </contour>
  </outline>
</glyph>
<glyph name="quotesingle" format="2">
  <advance width="432"/>
  <unicode hex="0027"/>
  <guideline x="1343" y="0" angle="135"/>
  <outline>
    <contour>
      <point x="281" y="901" type="line" name="av01"/>
      <point x="307" y="1434" type="line"/>
      <point x="334" y="1464" type="line" name="at01"/>
      <point x="485" y="1464" type="line"/>
      <point x="503" y="1434" type="line"/>
      <point x="388" y="901" type="line"/>
    </contour>
  </outline>
</glyph>
<glyph name="sign:parenright" format="2">
  <advance width="552"/>
  <unicode hex="0029"/>
  <guideline x="74" y="0" angle="80"/>
  <outline>
    <contour>
      <point x="282" y="1570" type="line" name="av01"/>
      <point x="348" y="1505"/>
      <point x="452" y="1349"/>
      <point x="523" y="1164"/>
      <point x="560" y="950"/>
      <point x="560" y="828" type="qcurve" name="dh02"/>
      <point x="560" y="633"/>
      <point x="482" y="271"/>
      <point x="341" y="-42"/>
      <point x="143" y="-297"/>
      <point x="23" y="-384" type="qcurve" name="av02"/>
      <point x="37" y="-278" type="line"/>
      <point x="102" y="-209"/>
      <point x="207" y="-40"/>
      <point x="288" y="151"/>
      <point x="347" y="358"/>
      <point x="383" y="571"/>
      <point x="401" y="785"/>
      <point x="401" y="887" type="qcurve" name="dh01"/>
      <point x="401" y="970"/>
      <point x="388" y="1133"/>
      <point x="356" y="1282"/>
      <point x="305" y="1413"/>
      <point x="268" y="1464" type="qcurve"/>
    </contour>
  </outline>
</glyph>
<glyph name="math:plus" format="2">
  <advance width="864"/>
  <unicode hex="002B"/>
  <outline>
    <contour>
      <point x="118" y="381" type="line" name="dv01"/>
      <point x="146" y="593" type="line" name="dv02"/>
      <point x="431" y="593" type="line"/>
      <point x="481" y="974" type="line" name="at01"/>
      <point x="640" y="974" type="line"/>
      <point x="590" y="593" type="line" name="sv01"/>
      <point x="875" y="593" type="line"/>
      <point x="847" y="381" type="line" name="sv02"/>
      <point x="562" y="381" type="line"/>
      <point x="512" y="0" type="line" name="ab01"/>
      <point x="353" y="0" type="line"/>
      <point x="403" y="381" type="line"/>
    </contour>
  </outline>
</glyph>
<glyph name="sign:period" format="2">
  <advance width="432"/>
  <unicode hex="002E"/>
  <outline>
    <contour>
      <point x="355" y="131" type="qcurve" name="dh02"/>
      <point x="355" y="98"/>
      <point x="336" y="39"/>
      <point x="303" y="-5"/>
      <point x="259" y="-30"/>
      <point x="234" y="-30" type="qcurve" name="ab01"/>
      <point x="209" y="-30"/>
      <point x="165" y="-5"/>
      <point x="132" y="39"/>
      <point x="113" y="98"/>
      <point x="113" y="131" type="qcurve" name="dh01"/>
      <point x="113" y="164"/>
      <point x="132" y="223"/>
      <point x="165" y="267"/>
      <point x="209" y="292"/>
      <point x="234" y="292" type="qcurve" name="sv01"/>
      <point x="259" y="292"/>
      <point x="303" y="267"/>
      <point x="336" y="223"/>
      <point x="355" y="164"/>
    </contour>
  </outline>
</glyph>
<glyph name="digit:zero" format="2">
  <advance width="840"/>
  <unicode hex="0030"/>
  <guideline x="0" y="874" angle="0"/>
  <guideline x="0" y="579" angle="0"/>
  <guideline x="386" y="0" angle="90"/>
  <outline>
    <contour>
      <point x="590" y="1342" type="qcurve" name="sv01"/>
      <point x="560" y="1342"/>
      <point x="507" y="1279"/>
      <point x="460" y="1171"/>
      <point x="420" y="1027"/>
      <point x="387" y="863"/>
      <point x="361" y="688"/>
      <point x="344" y="520"/>
      <point x="335" y="366"/>
      <point x="335" y="306" type="qcurve" name="sh02"/>
      <point x="335" y="195"/>
      <point x="374" y="92"/>
      <point x="425" y="92" type="qcurve" name="sv02"/>
      <point x="454" y="92"/>
      <point x="507" y="154"/>
      <point x="554" y="262"/>
      <point x="595" y="407"/>
      <point x="628" y="570"/>
      <point x="653" y="745"/>
      <point x="671" y="914"/>
      <point x="680" y="1067"/>
      <point x="680" y="1128" type="qcurve" name="ah01"/>
      <point x="680" y="1240"/>
      <point x="641" y="1342"/>
    </contour>
    <contour>
      <point x="606" y="1464" type="qcurve" name="at01"/>
      <point x="747" y="1464"/>
      <point x="891" y="1232"/>
      <point x="891" y="997" type="qcurve" name="sh03"/>
      <point x="891" y="865"/>
      <point x="861" y="611"/>
      <point x="803" y="382"/>
      <point x="719" y="189"/>
      <point x="611" y="49"/>
      <point x="482" y="-30"/>
      <point x="408" y="-30" type="qcurve" name="ab01"/>
      <point x="267" y="-30"/>
      <point x="123" y="203"/>
      <point x="123" y="439" type="qcurve" name="sh01"/>
      <point x="123" y="571"/>
      <point x="153" y="825"/>
      <point x="212" y="1053"/>
      <point x="295" y="1245"/>
      <point x="403" y="1385"/>
      <point x="532" y="1464"/>
    </contour>
  </outline>
</glyph>
<glyph name="three" format="2">
  <advance width="840"/>
  <unicode hex="0033"/>
  <guideline x="0" y="343" angle="0"/>
  <guideline x="0" y="1653" angle="315"/>
  <guideline x="0" y="55" angle="45"/>
  <guideline x="125" y="0" angle="90"/>
  <guideline x="287" y="0" angle="80"/>
  <outline>
    <contour>
      <point x="172" y="282" type="line" name="iv01"/>
      <point x="186" y="253"/>
      <point x="226" y="187"/>
      <point x="278" y="130"/>
      <point x="343" y="92" name="hr00"/>
      <point x="383" y="92" type="qcurve" name="sv01"/>
      <point x="427" y="92"/>
      <point x="497" y="129"/>
      <point x="553" y="191"/>
      <point x="594" y="275"/>
      <point x="620" y="368"/>
      <point x="633" y="467"/>
      <point x="633" y="514" type="qcurve" name="dh01"/>
      <point x="633" y="632"/>
      <point x="544" y="760" name="hr01"/>
      <point x="467" y="760" type="qcurve" name="dv01"/>
      <point x="389" y="760" type="line"/>
      <point x="405" y="882" type="line"/>
      <point x="476" y="882" type="line" name="dv02"/>
      <point x="504" y="882"/>
      <point x="575" y="926"/>
      <point x="638" y="1006"/>
      <point x="680" y="1114"/>
      <point x="680" y="1179" type="qcurve" name="sh01"/>
      <point x="680" y="1224"/>
      <point x="658" y="1286"/>
      <point x="625" y="1325"/>
      <point x="585" y="1342"/>
      <point x="567" y="1342" type="qcurve" name="sv02"/>
      <point x="532" y="1342"/>
      <point x="475" y="1307"/>
      <point x="428" y="1252"/>
      <point x="390" y="1185"/>
      <point x="374" y="1153" type="qcurve" name="iv02"/>
      <point x="291" y="1265" type="line"/>
      <point x="311" y="1298"/>
      <point x="372" y="1368"/>
      <point x="451" y="1427"/>
      <point x="545" y="1464"/>
      <point x="599" y="1464" type="qcurve" name="at01"/>
      <point x="660" y="1464"/>
      <point x="759" y="1421"/>
      <point x="830" y="1344"/>
      <point x="869" y="1240"/>
      <point x="869" y="1180" type="qcurve" name="sh02"/>
      <point x="869" y="1117"/>
      <point x="834" y="1010"/>
      <point x="776" y="925"/>
      <point x="703" y="860"/>
      <point x="664" y="838" type="qcurve" name="ih01"/>
      <point x="692" y="822"/>
      <point x="756" y="768"/>
      <point x="809" y="686"/>
      <point x="845" y="573"/>
      <point x="845" y="499" type="qcurve" name="dh02"/>
      <point x="845" y="416"/>
      <point x="809" y="274"/>
      <point x="748" y="156"/>
      <point x="662" y="65"/>
      <point x="563" y="2"/>
      <point x="453" y="-30"/>
      <point x="397" y="-30" type="qcurve" name="ab01"/>
      <point x="339" y="-30"/>
      <point x="244" y="6"/>
      <point x="167" y="63"/>
      <point x="109" y="135"/>
      <point x="88" y="170" type="qcurve"/>
    </contour>
  </outline>
</glyph>
<glyph name="digit:four" format="2">
  <advance width="840"/>
  <unicode hex="0034"/>
  <guideline x="0" y="1542" angle="350"/>
  <guideline x="0" y="451" angle="3"/>
  <guideline x="704" y="0" angle="90"/>
  <guideline x="825" y="0" angle="100"/>
  <guideline x="667" y="0" angle="80"/>
  <outline>
    <contour>
      <point x="644" y="1434" type="line" name="at01"/>
      <point x="851" y="1391" type="line"/>
      <point x="300" y="472" type="line"/>
      <point x="520" y="488" type="line" name="hr00"/>
      <point x="545" y="686" type="line"/>
      <point x="719" y="740" type="line" name="hr01"/>
      <point x="764" y="740" type="line"/>
      <point x="732" y="502" type="line"/>
      <point x="845" y="510" type="line"/>
      <point x="824" y="350" type="line"/>
      <point x="713" y="350" type="line"/>
      <point x="667" y="0" type="line"/>
      <point x="455" y="0" type="line"/>
      <point x="501" y="350" type="line"/>
      <point x="100" y="350" type="line"/>
      <point x="108" y="410" type="line"/>
    </contour>
  </outline>
</glyph>
<glyph name="digit:five" format="2">
  <advance width="840"/>
  <unicode hex="0035"/>
  <guideline x="0" y="1141" angle="315"/>
  <guideline x="0" y="52" angle="45"/>
  <guideline x="-218" y="0" angle="90"/>
  <guideline x="666" y="0" angle="80"/>
  <outline>
    <contour>
      <point x="232" y="760" type="line" name="hr00"/>
      <point x="320" y="1434" type="line" name="at01"/>
      <point x="851" y="1434" type="line" name="sh01"/>
      <point x="824" y="1232" type="line"/>
      <point x="436" y="1272" type="line"/>
      <point x="386" y="893" type="line" name="iv01"/>
      <point x="395" y="899"/>
      <point x="426" y="910"/>
      <point x="461" y="919"/>
      <point x="496" y="925"/>
      <point x="509" y="925" type="qcurve" name="dv02"/>
      <point x="581" y="925"/>
      <point x="703" y="867"/>
      <point x="793" y="762"/>
      <point x="844" y="615"/>
      <point x="844" y="527" type="qcurve" name="dh02"/>
      <point x="844" y="400"/>
      <point x="773" y="194"/>
      <point x="651" y="49"/>
      <point x="486" y="-30"/>
      <point x="392" y="-30" type="qcurve" name="ab01"/>
      <point x="334" y="-30"/>
      <point x="238" y="9"/>
      <point x="161" y="69"/>
      <point x="105" y="139"/>
      <point x="88" y="170" type="qcurve"/>
      <point x="173" y="282" type="line" name="iv02"/>
      <point x="188" y="251"/>
      <point x="229" y="184"/>
      <point x="281" y="128"/>
      <point x="345" y="92"/>
      <point x="385" y="92" type="qcurve" name="sv01"/>
      <point x="448" y="92"/>
      <point x="541" y="168"/>
      <point x="602" y="294"/>
      <point x="632" y="456"/>
      <point x="632" y="542" type="qcurve" name="dh01"/>
      <point x="632" y="608"/>
      <point x="606" y="706"/>
      <point x="565" y="771"/>
      <point x="512" y="803"/>
      <point x="485" y="803" type="qcurve" name="dv01"/>
      <point x="437" y="803"/>
      <point x="370" y="776"/>
      <point x="352" y="760" type="qcurve"/>
    </contour>
  </outline>
</glyph>
<glyph name="six" format="2">
  <advance width="840"/>
  <unicode hex="0036"/>
  <guideline x="0" y="2040" angle="0"/>
  <guideline x="1766" y="0" angle="90"/>
  <guideline x="430" y="0" angle="90"/>
  <guideline x="865" y="0" angle="100"/>
  <guideline x="691" y="0" angle="80"/>
  <outline>
    <contour>
      <point x="521" y="780" type="qcurve" name="dv01"/>
      <point x="491" y="780"/>
      <point x="437" y="739"/>
      <point x="391" y="669"/>
      <point x="354" y="577"/>
      <point x="328" y="476"/>
      <point x="314" y="371"/>
      <point x="314" y="324" type="qcurve" name="sh02"/>
      <point x="314" y="268"/>
      <point x="332" y="182"/>
      <point x="363" y="123"/>
      <point x="406" y="92"/>
      <point x="431" y="92" type="qcurve" name="sv01"/>
      <point x="470" y="92"/>
      <point x="543" y="175"/>
      <point x="599" y="309"/>
      <point x="632" y="476"/>
      <point x="632" y="560" type="qcurve" name="ah01"/>
      <point x="632" y="666"/>
      <point x="569" y="780"/>
    </contour>
    <contour>
      <point x="863" y="1342" type="line" name="sv02"/>
      <point x="776" y="1342"/>
      <point x="618" y="1263"/>
      <point x="488" y="1123"/>
      <point x="393" y="929"/>
      <point x="370" y="814" type="qcurve" name="ih01"/>
      <point x="413" y="856"/>
      <point x="508" y="902"/>
      <point x="553" y="902" type="qcurve" name="dv02"/>
      <point x="621" y="902"/>
      <point x="728" y="844"/>
      <point x="803" y="742"/>
      <point x="843" y="602"/>
      <point x="843" y="521" type="qcurve" name="sh03"/>
      <point x="843" y="408"/>
      <point x="776" y="208"/>
      <point x="662" y="58"/>
      <point x="512" y="-30"/>
      <point x="429" y="-30" type="qcurve" name="ab01"/>
      <point x="367" y="-30"/>
      <point x="256" y="33"/>
      <point x="173" y="157"/>
      <point x="125" y="343"/>
      <point x="125" y="465" type="qcurve" name="sh01"/>
      <point x="125" y="584"/>
      <point x="167" y="825"/>
      <point x="253" y="1047"/>
      <point x="380" y="1240"/>
      <point x="548" y="1382"/>
      <point x="756" y="1464"/>
      <point x="880" y="1464" type="qcurve" name="at01"/>
    </contour>
  </outline>
</glyph>
<glyph name="seven" format="2">
  <advance width="840"/>
  <unicode hex="0037"/>
  <guideline x="0" y="1225" angle="3"/>
  <guideline x="341" y="0" angle="60"/>
  <guideline x="92" y="0" angle="90"/>
  <guideline x="71" y="0" angle="80"/>
  <outline>
    <contour>
      <point x="945" y="1434" type="line" name="at01"/>
      <point x="938" y="1375" type="line"/>
      <point x="329" y="-30" type="line" name="ab01"/>
      <point x="125" y="0" type="line" name="iv01"/>
      <point x="727" y="1272" type="line" name="iv02"/>
      <point x="236" y="1232" type="line"/>
      <point x="264" y="1434" type="line"/>
    </contour>
  </outline>
</glyph>
<glyph name="nine" format="2">
  <advance width="840"/>
  <unicode hex="0039"/>
  <guideline x="0" y="208" angle="25"/>
  <guideline x="149" y="0" angle="80"/>
  <outline>
    <contour>
      <point x="492" y="684" type="qcurve" name="dv02"/>
      <point x="529" y="684"/>
      <point x="587" y="728"/>
      <point x="633" y="800"/>
      <point x="665" y="892"/>
      <point x="687" y="988"/>
      <point x="697" y="1080"/>
      <point x="697" y="1116" type="qcurve" name="ah01"/>
      <point x="697" y="1222"/>
      <point x="633" y="1342"/>
      <point x="579" y="1342" type="qcurve" name="sv01"/>
      <point x="538" y="1342"/>
      <point x="465" y="1262"/>
      <point x="411" y="1134"/>
      <point x="380" y="975"/>
      <point x="380" y="897" type="qcurve" name="sh02"/>
      <point x="380" y="797"/>
      <point x="440" y="684"/>
    </contour>
    <contour>
      <point x="146" y="92" type="line" name="sv02"/>
      <point x="232" y="92"/>
      <point x="392" y="177"/>
      <point x="524" y="322"/>
      <point x="620" y="514"/>
      <point x="642" y="621" type="qcurve" name="ih01"/>
      <point x="602" y="591"/>
      <point x="506" y="562"/>
      <point x="461" y="562" type="qcurve" name="dv01"/>
      <point x="392" y="562"/>
      <point x="282" y="613"/>
      <point x="207" y="705"/>
      <point x="168" y="835"/>
      <point x="168" y="914" type="qcurve" name="sh01"/>
      <point x="168" y="1027"/>
      <point x="235" y="1227"/>
      <point x="348" y="1377"/>
      <point x="497" y="1464"/>
      <point x="581" y="1464" type="qcurve" name="at01"/>
      <point x="643" y="1464"/>
      <point x="754" y="1400"/>
      <point x="837" y="1276"/>
      <point x="886" y="1092"/>
      <point x="886" y="971" type="qcurve" name="sh03"/>
      <point x="886" y="852"/>
      <point x="846" y="612"/>
      <point x="766" y="389"/>
      <point x="642" y="196"/>
      <point x="475" y="52"/>
      <point x="261" y="-30"/>
      <point x="131" y="-30" type="qcurve" name="ab01"/>
    </contour>
  </outline>
</glyph>
<glyph name="sign:colon" format="2">
  <advance width="432"/>
  <unicode hex="003A"/>
  <outline>
    <contour>
      <point x="388" y="116" type="qcurve" name="dh02"/>
      <point x="388" y="86"/>
      <point x="371" y="32"/>
      <point x="341" y="-7"/>
      <point x="301" y="-30"/>
      <point x="278" y="-30" type="qcurve" name="ab01"/>
      <point x="256" y="-30"/>
      <point x="215" y="-7"/>
      <point x="186" y="32"/>
      <point x="169" y="86"/>
      <point x="169" y="116" type="qcurve" name="dh01"/>
      <point x="169" y="146"/>
      <point x="186" y="200"/>
      <point x="215" y="239"/>
      <point x="256" y="262"/>
      <point x="278" y="262" type="qcurve" name="sv01"/>
      <point x="301" y="262"/>
      <point x="341" y="239"/>
      <point x="371" y="200"/>
      <point x="388" y="146"/>
    </contour>
    <contour>
      <point x="486" y="858" type="qcurve" name="sh01"/>
      <point x="486" y="828"/>
      <point x="469" y="774"/>
      <point x="440" y="735"/>
      <point x="399" y="712"/>
      <point x="377" y="712" type="qcurve" name="sv02"/>
      <point x="354" y="712"/>
      <point x="314" y="735"/>
      <point x="284" y="774"/>
      <point x="267" y="828"/>
      <point x="267" y="858" type="qcurve" name="ih01"/>
      <point x="267" y="888"/>
      <point x="284" y="942"/>
      <point x="314" y="981"/>
      <point x="354" y="1004"/>
      <point x="377" y="1004" type="qcurve" name="at01"/>
      <point x="399" y="1004"/>
      <point x="440" y="981"/>
      <point x="469" y="942"/>
      <point x="486" y="888"/>
    </contour>
  </outline>
</glyph>
<glyph name="math:less" format="2">
  <advance width="864"/>
  <unicode hex="003C"/>
  <guideline x="0" y="720" angle="330"/>
  <guideline x="0" y="254" angle="30"/>
  <guideline x="0" y="1350" angle="0"/>
  <guideline x="0" y="714" angle="0"/>
  <guideline x="692" y="0" angle="80"/>
  <guideline x="714" y="0" angle="90"/>
  <guideline x="820" y="0" angle="100"/>
  <outline>
    <contour>
      <point x="820" y="1004" type="line" name="at01"/>
      <point x="820" y="804" type="line"/>
      <point x="367" y="487" type="line"/>
      <point x="736" y="170" type="line"/>
      <point x="683" y="-30" type="line" name="ab01"/>
      <point x="141" y="436" type="line"/>
      <point x="155" y="538" type="line"/>
    </contour>
  </outline>
</glyph>
<glyph name="greater" format="2">
  <advance width="864"/>
  <unicode hex="003E"/>
  <guideline x="0" y="1098" angle="330"/>
  <guideline x="0" y="-103" angle="30"/>
  <guideline x="0" y="1350" angle="0"/>
  <guideline x="0" y="714" angle="0"/>
  <outline>
    <contour>
      <point x="311" y="1004" type="line" name="at01"/>
      <point x="852" y="538" type="line"/>
      <point x="839" y="436" type="line"/>
      <point x="173" y="-30" type="line" name="ab01"/>
      <point x="173" y="170" type="line"/>
      <point x="626" y="487" type="line"/>
      <point x="257" y="804" type="line"/>
    </contour>
  </outline>
</glyph>
<glyph name="latn:A" format="2">
  <advance width="1008"/>
  <unicode hex="0041"/>
  <guideline x="11" y="0" angle="68"/>
  <guideline x="142" y="0" angle="68"/>
  <guideline x="998" y="0" angle="112"/>
  <guideline x="743" y="0" angle="112"/>
  <anchor x="680" y="1600" name="AccentAbove"/>
  <anchor x="900" y="1600" name="AccentAboveRight"/>
  <anchor x="868" y="0" name="AccentAttachedBelow"/>
  <anchor x="528" y="0" name="AccentBelow"/>
  <anchor x="600" y="712" name="AccentOverlay"/>
  <outline>
    <contour>
      <point x="635" y="1434" type="line" name="hr00"/>
      <point x="747" y="1464" type="line" name="at01"/>
      <point x="996" y="0" type="line"/>
      <point x="748" y="-30" type="line" name="ab01"/>
      <point x="684" y="345" type="line" name="dv01"/>
      <point x="292" y="345" type="line"/>
      <point x="128" y="-30" type="line" name="ab02"/>
      <point x="11" y="0" type="line"/>
    </contour>
    <contour>
      <point x="659" y="487" type="line" name="dv02"/>
      <point x="573" y="992" type="line"/>
      <point x="353" y="487" type="line"/>
    </contour>
  </outline>
</glyph>
<glyph name="latn:B" format="2">
  <advance width="936"/>
  <unicode hex="0042"/>
  <guideline x="333" y="0" angle="80"/>
  <guideline x="497" y="0" angle="90"/>
  <anchor x="630" y="1600" name="AccentAbove"/>
  <anchor x="850" y="1600" name="AccentAboveRight"/>
  <anchor x="300" y="0" name="AccentBelow"/>
  <anchor x="600" y="712" name="AccentOverlay"/>
  <outline>
    <contour>
      <point x="447" y="859" type="line" name="dv02"/>
      <point x="514" y="859" type="line"/>
      <point x="561" y="859"/>
      <point x="642" y="897"/>
      <point x="701" y="966"/>
      <point x="736" y="1063"/>
      <point x="736" y="1122" type="qcurve" name="sh01"/>
      <point x="736" y="1160"/>
      <point x="714" y="1226"/>
      <point x="672" y="1274"/>
      <point x="611" y="1302"/>
      <point x="572" y="1302" type="qcurve" name="sv01"/>
      <point x="505" y="1302" type="line"/>
    </contour>
    <contour>
      <point x="428" y="717" type="line" name="dv01"/>
      <point x="350" y="132" type="line" name="sv02"/>
      <point x="423" y="132" type="line"/>
      <point x="487" y="132"/>
      <point x="592" y="189"/>
      <point x="668" y="288"/>
      <point x="709" y="423"/>
      <point x="709" y="501" type="qcurve" name="dh01"/>
      <point x="709" y="556"/>
      <point x="683" y="638"/>
      <point x="636" y="691"/>
      <point x="574" y="717"/>
      <point x="537" y="717" type="qcurve"/>
    </contour>
    <contour>
      <point x="288" y="1434" type="line" name="at01"/>
      <point x="587" y="1434" type="line"/>
      <point x="674" y="1434"/>
      <point x="815" y="1400"/>
      <point x="916" y="1329"/>
      <point x="970" y="1222"/>
      <point x="970" y="1149" type="qcurve"/>
      <point x="970" y="1086"/>
      <point x="941" y="986"/>
      <point x="889" y="907"/>
      <point x="818" y="843"/>
      <point x="775" y="816" type="qcurve" name="ih01"/>
      <point x="805" y="800"/>
      <point x="867" y="742"/>
      <point x="918" y="660"/>
      <point x="950" y="555"/>
      <point x="950" y="491" type="qcurve" name="dh02"/>
      <point x="950" y="376"/>
      <point x="871" y="194"/>
      <point x="727" y="67"/>
      <point x="527" y="0"/>
      <point x="408" y="0" type="qcurve" name="ab01"/>
      <point x="99" y="0" type="line"/>
    </contour>
  </outline>
</glyph>
<glyph name="latn:C" format="2">
  <advance width="1008"/>
  <unicode hex="0043"/>
  <guideline x="0" y="717" angle="0"/>
  <guideline x="598" y="0" angle="90"/>
  <guideline x="230" y="0" angle="45"/>
  <guideline x="1168" y="0" angle="135"/>
  <guideline x="986" y="0" angle="90"/>
  <guideline x="896" y="0" angle="90"/>
  <guideline x="992" y="0" angle="80"/>
  <anchor x="780" y="1600" name="AccentAbove"/>
  <anchor x="1000" y="1600" name="AccentAboveRight"/>
  <anchor x="450" y="0" name="AccentBelow"/>
  <anchor x="500" y="0" name="AccentCedilla"/>
  <anchor x="650" y="712" name="AccentOverlay"/>
  <outline>
    <contour>
      <point x="1156" y="1235" type="qcurve" name="hr00"/>
      <point x="1065" y="1113" type="line" name="iv01"/>
      <point x="1022" y="1213"/>
      <point x="876" y="1322"/>
      <point x="772" y="1322" type="qcurve" name="sv01"/>
      <point x="718" y="1322"/>
      <point x="615" y="1263"/>
      <point x="524" y="1158"/>
      <point x="448" y="1012"/>
      <point x="393" y="838"/>
      <point x="362" y="641"/>
      <point x="362" y="537" type="qcurve" name="dh02"/>
      <point x="362" y="434"/>
      <point x="399" y="276"/>
      <point x="466" y="168"/>
      <point x="557" y="112"/>
      <point x="611" y="112" type="qcurve" name="sv02"/>
      <point x="657" y="112"/>
      <point x="740" y="133"/>
      <point x="818" y="183"/>
      <point x="891" y="262"/>
      <point x="927" y="321" type="qcurve" name="iv02"/>
      <point x="1019" y="199" type="line"/>
      <point x="976" y="147"/>
      <point x="885" y="62"/>
      <point x="782" y="2"/>
      <point x="664" y="-30"/>
      <point x="593" y="-30" type="qcurve" name="ab01"/>
      <point x="499" y="-30"/>
      <point x="331" y="54"/>
      <point x="203" y="211"/>
      <point x="128" y="436"/>
      <point x="128" y="577" type="qcurve" name="dh01"/>
      <point x="128" y="695"/>
      <point x="179" y="918"/>
      <point x="268" y="1115"/>
      <point x="391" y="1279"/>
      <point x="538" y="1398"/>
      <point x="704" y="1464"/>
      <point x="791" y="1464" type="qcurve" name="at01"/>
      <point x="856" y="1464"/>
      <point x="965" y="1430"/>
      <point x="1055" y="1369"/>
      <point x="1127" y="1285"/>
    </contour>
  </outline>
</glyph>
<glyph name="D" format="2">
  <advance width="1128"/>
  <unicode hex="0044"/>
  <anchor x="630" y="1600" name="AccentAbove"/>
  <anchor x="850" y="1600" name="AccentAboveRight"/>
  <anchor x="350" y="0" name="AccentBelow"/>
  <anchor x="300" y="0" name="AccentCedilla"/>
  <anchor x="650" y="712" name="AccentOverlay"/>
  <outline>
    <contour>
      <point x="288" y="1434" type="line" name="at01"/>
      <point x="644" y="1434" type="line"/>
      <point x="770" y="1434"/>
      <point x="967" y="1358"/>
      <point x="1102" y="1213"/>
      <point x="1172" y="1003"/>
      <point x="1172" y="870" type="qcurve" name="dh02"/>
      <point x="1172" y="742"/>
      <point x="1117" y="513"/>
      <point x="1020" y="320"/>
      <point x="887" y="165"/>
      <point x="729" y="58"/>
      <point x="554" y="0"/>
      <point x="463" y="0" type="qcurve" name="ab01"/>
      <point x="99" y="0" type="line"/>
    </contour>
    <contour>
      <point x="505" y="1302" type="line" name="sv01"/>
      <point x="350" y="132" type="line" name="sv02"/>
      <point x="459" y="132" type="line"/>
      <point x="531" y="132"/>
      <point x="659" y="191"/>
      <point x="765" y="295"/>
      <point x="849" y="437"/>
      <point x="907" y="602"/>
      <point x="938" y="784"/>
      <point x="938" y="876" type="qcurve" name="dh01"/>
      <point x="938" y="980"/>
      <point x="892" y="1139"/>
      <point x="807" y="1247"/>
      <point x="685" y="1302"/>
      <point x="608" y="1302" type="qcurve"/>
    </contour>
  </outline>
</glyph>
<glyph name="latn:E" format="2">
  <advance width="816"/>
  <unicode hex="0045"/>
  <guideline x="0" y="792" angle="3"/>
  <guideline x="0" y="738" angle="357"/>
  <guideline x="782" y="0" angle="90"/>
  <guideline x="761" y="0" angle="80"/>
  <anchor x="580" y="1600" name="AccentAbove"/>
  <anchor x="800" y="1600" name="AccentAboveRight"/>
  <anchor x="568" y="0" name="AccentAttachedBelow"/>
  <anchor x="428" y="0" name="AccentBelow"/>
  <anchor x="650" y="712" name="AccentOverlay"/>
  <outline>
    <contour>
      <point x="287" y="1434" type="line" name="at01"/>
      <point x="927" y="1434" type="line"/>
      <point x="906" y="1272" type="line"/>
      <point x="505" y="1312" type="line"/>
      <point x="445" y="859" type="line"/>
      <point x="775" y="859" type="line" name="dv02"/>
      <point x="755" y="717" type="line" name="dv01"/>
      <point x="426" y="717" type="line"/>
      <point x="347" y="122" type="line"/>
      <point x="782" y="162" type="line"/>
      <point x="761" y="0" type="line" name="ab01"/>
      <point x="98" y="0" type="line"/>
    </contour>
  </outline>
</glyph>
<glyph name="F" format="2">
  <advance width="816"/>
  <unicode hex="0046"/>
  <guideline x="700" y="0" angle="90"/>
  <guideline x="686" y="0" angle="80"/>
  <anchor x="580" y="1600" name="AccentAbove"/>
  <anchor x="800" y="1600" name="AccentAboveRight"/>
  <anchor x="300" y="0" name="AccentBelow"/>
  <anchor x="650" y="712" name="AccentOverlay"/>
  <outline>
    <contour>
      <point x="287" y="1434" type="line" name="at01"/>
      <point x="947" y="1434" type="line"/>
      <point x="926" y="1273" type="line"/>
      <point x="505" y="1312" type="line"/>
      <point x="445" y="859" type="line"/>
      <point x="800" y="859" type="line" name="dv02"/>
      <point x="781" y="717" type="line" name="dv01"/>
      <point x="426" y="717" type="line"/>
      <point x="332" y="0" type="line" name="ab01"/>
      <point x="98" y="0" type="line"/>
    </contour>
  </outline>
</glyph>
<glyph name="latn:G" format="2">
  <advance width="1200"/>
  <unicode hex="0047"/>
  <guideline x="0" y="-167" angle="45"/>
  <guideline x="646" y="0" angle="90"/>
  <guideline x="644" y="0" angle="80"/>
  <guideline x="1005" y="0" angle="90"/>
  <anchor x="830" y="1600" name="AccentAbove"/>
  <anchor x="1050" y="1600" name="AccentAboveRight"/>
  <anchor x="500" y="0" name="AccentBelow"/>
  <anchor x="750" y="712" name="AccentOverlay"/>
  <outline>
    <contour>
      <point x="740" y="717" type="line" name="dv02"/>
      <point x="1146" y="717" type="line"/>
      <point x="1078" y="200" type="line"/>
      <point x="1026" y="139"/>
      <point x="923" y="52"/>
      <point x="816" y="-4"/>
      <point x="702" y="-30"/>
      <point x="640" y="-30" type="qcurve" name="ab01"/>
      <point x="522" y="-30"/>
      <point x="333" y="55"/>
      <point x="200" y="212"/>
      <point x="128" y="433"/>
      <point x="128" y="569" type="qcurve" name="dh01"/>
      <point x="128" y="695"/>
      <point x="178" y="926"/>
      <point x="269" y="1125"/>
      <point x="397" y="1287"/>
      <point x="555" y="1402"/>
      <point x="738" y="1464"/>
      <point x="839" y="1464" type="qcurve" name="at01"/>
      <point x="910" y="1464"/>
      <point x="1023" y="1430"/>
      <point x="1114" y="1368"/>
      <point x="1185" y="1284"/>
      <point x="1214" y="1235" type="qcurve"/>
      <point x="1124" y="1113" type="line" name="iv01"/>
      <point x="1101" y="1161"/>
      <point x="1045" y="1238"/>
      <point x="971" y="1293"/>
      <point x="879" y="1322"/>
      <point x="821" y="1322" type="qcurve" name="sv01"/>
      <point x="749" y="1322"/>
      <point x="625" y="1260"/>
      <point x="523" y="1151"/>
      <point x="444" y="1003"/>
      <point x="390" y="830"/>
      <point x="362" y="639"/>
      <point x="362" y="543" type="qcurve" name="dh02"/>
      <point x="362" y="452"/>
      <point x="395" y="295"/>
      <point x="467" y="179"/>
      <point x="580" y="112"/>
      <point x="659" y="112" type="qcurve" name="sv02"/>
      <point x="686" y="112"/>
      <point x="729" y="115"/>
      <point x="770" y="125"/>
      <point x="812" y="144"/>
      <point x="839" y="160" type="qcurve"/>
      <point x="893" y="575" type="line"/>
      <point x="721" y="575" type="line" name="dv01"/>
    </contour>
  </outline>
</glyph>
<glyph name="latn:I" format="2">
  <advance width="432"/>
  <unicode hex="0049"/>
  <guideline x="-50" y="0" angle="83"/>
  <anchor x="430" y="1600" name="AccentAbove"/>
  <anchor x="450" y="1600" name="AccentAboveRight"/>
  <anchor x="218" y="0" name="AccentAttachedBelow"/>
  <anchor x="100" y="0" name="AccentBelow"/>
  <anchor x="320" y="712" name="AccentOverlay"/>
  <outline>
    <contour>
      <point x="288" y="1434" type="line" name="hr00"/>
      <point x="527" y="1464" type="line" name="at01"/>
      <point x="333" y="0" type="line" name="ab01"/>
      <point x="99" y="0" type="line"/>
    </contour>
  </outline>
</glyph>
<glyph name="latn:J" format="2">
  <advance width="552"/>
  <unicode hex="004A"/>
  <guideline x="22" y="0" angle="90"/>
  <guideline x="0" y="0" angle="80"/>
  <anchor x="530" y="1600" name="AccentAbove"/>
  <anchor x="550" y="1600" name="AccentAboveRight"/>
  <anchor x="150" y="0" name="AccentBelow"/>
  <anchor x="450" y="712" name="AccentOverlay"/>
  <outline>
    <contour>
      <point x="405" y="1434" type="line" name="hr00"/>
      <point x="644" y="1464" type="line" name="at01"/>
      <point x="521" y="539" type="line"/>
      <point x="498" y="362"/>
      <point x="402" y="139"/>
      <point x="266" y="15"/>
      <point x="95" y="-30"/>
      <point x="-4" y="-30" type="qcurve" name="ab01"/>
      <point x="17" y="132" type="line" name="sv01"/>
      <point x="61" y="132"/>
      <point x="142" y="150"/>
      <point x="209" y="213"/>
      <point x="260" y="332"/>
      <point x="273" y="433" type="qcurve"/>
    </contour>
  </outline>
</glyph>
<glyph name="latn:L" format="2">
  <advance width="816"/>
  <unicode hex="004C"/>
  <guideline x="760" y="0" angle="80"/>
  <anchor x="380" y="1600" name="AccentAbove"/>
  <anchor x="600" y="1600" name="AccentAboveRight"/>
  <anchor x="428" y="0" name="AccentBelow"/>
  <anchor x="320" y="712" name="AccentOverlay"/>
  <outline>
    <contour>
      <point x="287" y="1434" type="line" name="hr00"/>
      <point x="525" y="1464" type="line" name="at01"/>
      <point x="347" y="122" type="line"/>
      <point x="781" y="162" type="line"/>
      <point x="760" y="0" type="line" name="ab01"/>
      <point x="98" y="0" type="line"/>
    </contour>
  </outline>
</glyph>
<glyph name="latn:P" format="2">
  <advance width="864"/>
  <unicode hex="0050"/>
  <guideline x="333" y="0" angle="80"/>
  <anchor x="630" y="1600" name="AccentAbove"/>
  <anchor x="850" y="1600" name="AccentAboveRight"/>
  <anchor x="350" y="0" name="AccentBelow"/>
  <anchor x="600" y="712" name="AccentOverlay"/>
  <outline>
    <contour>
      <point x="505" y="1302" type="line" name="sv01"/>
      <point x="427" y="717" type="line"/>
      <point x="479" y="717" type="line" name="dv02"/>
      <point x="539" y="717"/>
      <point x="633" y="784"/>
      <point x="698" y="889"/>
      <point x="731" y="1020"/>
      <point x="731" y="1085" type="qcurve" name="dh01"/>
      <point x="731" y="1132"/>
      <point x="707" y="1212"/>
      <point x="661" y="1270"/>
      <point x="596" y="1302"/>
      <point x="557" y="1302" type="qcurve"/>
    </contour>
    <contour>
      <point x="288" y="1434" type="line" name="at01"/>
      <point x="607" y="1434" type="line"/>
      <point x="706" y="1434"/>
      <point x="843" y="1379"/>
      <point x="928" y="1285"/>
      <point x="965" y="1159"/>
      <point x="965" y="1089" type="qcurve" name="dh02"/>
      <point x="965" y="987"/>
      <point x="906" y="804"/>
      <point x="788" y="666"/>
      <point x="611" y="585"/>
      <point x="494" y="585" type="qcurve" name="dv01"/>
      <point x="410" y="585" type="line"/>
      <point x="333" y="0" type="line" name="ab01"/>
      <point x="99" y="0" type="line"/>
    </contour>
  </outline>
</glyph>
<glyph name="Q" format="2">
  <advance width="1200"/>
  <unicode hex="0051"/>
  <guideline x="0" y="-129" angle="0"/>
  <guideline x="1156" y="0" angle="90"/>
  <guideline x="1321" y="0" angle="45"/>
  <anchor x="830" y="1600" name="AccentAbove"/>
  <anchor x="1050" y="1600" name="AccentAboveRight"/>
  <anchor x="450" y="0" name="AccentBelow"/>
  <anchor x="700" y="712" name="AccentOverlay"/>
  <outline>
    <contour>
      <point x="792" y="1464" type="qcurve" name="at01"/>
      <point x="885" y="1464"/>
      <point x="1054" y="1380"/>
      <point x="1182" y="1223"/>
      <point x="1258" y="998"/>
      <point x="1258" y="856" type="qcurve" name="sh01"/>
      <point x="1258" y="712"/>
      <point x="1190" y="457"/>
      <point x="1072" y="245"/>
      <point x="910" y="80"/>
      <point x="815" y="28" type="qcurve" name="ih01"/>
      <point x="884" y="16"/>
      <point x="988" y="-50"/>
      <point x="1061" y="-135"/>
      <point x="1106" y="-230"/>
      <point x="1118" y="-271" type="qcurve"/>
      <point x="977" y="-459" type="line" name="ih02"/>
      <point x="961" y="-392"/>
      <point x="928" y="-276"/>
      <point x="886" y="-181"/>
      <point x="831" y="-107"/>
      <point x="757" y="-56"/>
      <point x="659" y="-30"/>
      <point x="594" y="-30" type="qcurve" name="ab01"/>
      <point x="500" y="-30"/>
      <point x="332" y="53"/>
      <point x="203" y="210"/>
      <point x="128" y="435"/>
      <point x="128" y="577" type="qcurve" name="sh02"/>
      <point x="128" y="695"/>
      <point x="179" y="918"/>
      <point x="268" y="1115"/>
      <point x="392" y="1279"/>
      <point x="539" y="1398"/>
      <point x="705" y="1464"/>
    </contour>
    <contour>
      <point x="362" y="536" type="qcurve" name="sh03"/>
      <point x="362" y="433"/>
      <point x="400" y="275"/>
      <point x="466" y="167"/>
      <point x="558" y="112"/>
      <point x="613" y="112" type="qcurve" name="sv01"/>
      <point x="668" y="112"/>
      <point x="771" y="171"/>
      <point x="863" y="276"/>
      <point x="938" y="422"/>
      <point x="993" y="597"/>
      <point x="1024" y="794"/>
      <point x="1024" y="898" type="qcurve" name="ah01"/>
      <point x="1024" y="1001"/>
      <point x="986" y="1159"/>
      <point x="920" y="1267"/>
      <point x="828" y="1322"/>
      <point x="773" y="1322" type="qcurve" name="sv02"/>
      <point x="719" y="1322"/>
      <point x="615" y="1263"/>
      <point x="524" y="1158"/>
      <point x="447" y="1012"/>
      <point x="392" y="837"/>
      <point x="362" y="640"/>
    </contour>
  </outline>
</glyph>
<glyph name="latn:R" format="2">
  <advance width="936"/>
  <unicode hex="0052"/>
  <guideline x="0" y="619" angle="0"/>
  <guideline x="923" y="0" angle="126"/>
  <guideline x="665" y="0" angle="126"/>
  <guideline x="333" y="0" angle="80"/>
  <anchor x="630" y="1600" name="AccentAbove"/>
  <anchor x="850" y="1600" name="AccentAboveRight"/>
  <anchor x="350" y="0" name="AccentBelow"/>
  <anchor x="600" y="712" name="AccentOverlay"/>
  <outline>
    <contour>
      <point x="505" y="1302" type="line" name="sv01"/>
      <point x="428" y="717" type="line"/>
      <point x="521" y="717" type="line"/>
      <point x="571" y="717"/>
      <point x="661" y="780"/>
      <point x="729" y="880"/>
      <point x="770" y="1007"/>
      <point x="770" y="1072" type="qcurve" name="dh01"/>
      <point x="770" y="1122"/>
      <point x="740" y="1207"/>
      <point x="693" y="1268"/>
      <point x="632" y="1302"/>
      <point x="600" y="1302" type="qcurve"/>
    </contour>
    <contour>
      <point x="288" y="1434" type="line" name="at01"/>
      <point x="633" y="1434" type="line"/>
      <point x="725" y="1434"/>
      <point x="865" y="1389"/>
      <point x="957" y="1303"/>
      <point x="1004" y="1180"/>
      <point x="1004" y="1101" type="qcurve" name="dh02"/>
      <point x="1004" y="1008"/>
      <point x="950" y="848"/>
      <point x="862" y="720"/>
      <point x="746" y="629"/>
      <point x="684" y="606" type="qcurve"/>
      <point x="923" y="0" type="line" name="ih01"/>
      <point x="677" y="-30" type="line" name="ab01"/>
      <point x="455" y="585" type="line"/>
      <point x="410" y="585" type="line"/>
      <point x="333" y="0" type="line" name="ab02"/>
      <point x="99" y="0" type="line"/>
    </contour>
  </outline>
</glyph>
<glyph name="S" format="2">
  <advance width="864"/>
  <unicode hex="0053"/>
  <guideline x="0" y="854" angle="340"/>
  <guideline x="0" y="1158" angle="340"/>
  <guideline x="429" y="0" angle="90"/>
  <guideline x="-19" y="0" angle="45"/>
  <guideline x="132" y="0" angle="80"/>
  <guideline x="776" y="0" angle="80"/>
  <anchor x="680" y="1600" name="AccentAbove"/>
  <anchor x="900" y="1600" name="AccentAboveRight"/>
  <anchor x="300" y="0" name="AccentBelow"/>
  <anchor x="300" y="0" name="AccentCedilla"/>
  <anchor x="550" y="712" name="AccentOverlay"/>
  <outline>
    <contour>
      <point x="938" y="1235" type="qcurve" name="hr00"/>
      <point x="846" y="1113" type="line" name="sh02"/>
      <point x="833" y="1150"/>
      <point x="791" y="1224"/>
      <point x="737" y="1284"/>
      <point x="673" y="1322"/>
      <point x="637" y="1322" type="qcurve" name="sh03"/>
      <point x="599" y="1322"/>
      <point x="539" y="1286"/>
      <point x="497" y="1224"/>
      <point x="476" y="1142"/>
      <point x="476" y="1097" type="qcurve" name="sh05"/>
      <point x="476" y="1060"/>
      <point x="486" y="993"/>
      <point x="518" y="933"/>
      <point x="575" y="880"/>
      <point x="621" y="856" type="qcurve" name="sh06"/>
      <point x="730" y="801"/>
      <point x="843" y="602"/>
      <point x="843" y="474" type="qcurve" name="sh01"/>
      <point x="843" y="395"/>
      <point x="810" y="259"/>
      <point x="751" y="147"/>
      <point x="670" y="60"/>
      <point x="575" y="1"/>
      <point x="468" y="-30"/>
      <point x="413" y="-30" type="qcurve" name="ab01"/>
      <point x="354" y="-30"/>
      <point x="251" y="11"/>
      <point x="167" y="77"/>
      <point x="104" y="159"/>
      <point x="85" y="199" type="qcurve"/>
      <point x="176" y="321" type="line" name="iv01"/>
      <point x="195" y="282"/>
      <point x="247" y="206"/>
      <point x="310" y="148"/>
      <point x="383" y="112"/>
      <point x="425" y="112" type="qcurve" name="sv01"/>
      <point x="468" y="112"/>
      <point x="542" y="152"/>
      <point x="595" y="222"/>
      <point x="624" y="316"/>
      <point x="624" y="370" type="qcurve" name="ah01"/>
      <point x="624" y="410"/>
      <point x="611" y="483"/>
      <point x="574" y="549"/>
      <point x="509" y="607"/>
      <point x="459" y="631" type="qcurve"/>
      <point x="418" y="651"/>
      <point x="347" y="721"/>
      <point x="294" y="814"/>
      <point x="264" y="927"/>
      <point x="264" y="990" type="qcurve" name="sh04"/>
      <point x="264" y="1097"/>
      <point x="326" y="1272"/>
      <point x="430" y="1396"/>
      <point x="566" y="1464"/>
      <point x="641" y="1464" type="qcurve" name="at01"/>
      <point x="698" y="1464"/>
      <point x="790" y="1425"/>
      <point x="864" y="1361"/>
      <point x="920" y="1278"/>
    </contour>
  </outline>
</glyph>
<glyph name="latn:U" format="2">
  <advance width="1128"/>
  <unicode hex="0055"/>
  <guideline x="0" y="568" angle="0"/>
  <guideline x="584" y="0" angle="90"/>
  <anchor x="780" y="1600" name="AccentAbove"/>
  <anchor x="1000" y="1600" name="AccentAboveRight"/>
  <anchor x="618" y="0" name="AccentAttachedBelow"/>
  <anchor x="450" y="0" name="AccentBelow"/>
  <anchor x="700" y="712" name="AccentOverlay"/>
  <outline>
    <contour>
      <point x="530" y="1464" type="line" name="at01"/>
      <point x="402" y="500" type="line" name="sh01"/>
      <point x="397" y="462"/>
      <point x="397" y="422" type="qcurve" name="dh02"/>
      <point x="397" y="345"/>
      <point x="437" y="229"/>
      <point x="506" y="151"/>
      <point x="593" y="112"/>
      <point x="641" y="112" type="qcurve" name="sv01"/>
      <point x="707" y="112"/>
      <point x="818" y="171"/>
      <point x="904" y="280"/>
      <point x="962" y="435"/>
      <point x="974" y="530" type="qcurve"/>
      <point x="1098" y="1464" type="line" name="at02"/>
      <point x="1215" y="1434" type="line"/>
      <point x="1101" y="568" type="line"/>
      <point x="1084" y="437"/>
      <point x="998" y="218"/>
      <point x="869" y="59"/>
      <point x="699" y="-30"/>
      <point x="597" y="-30" type="qcurve" name="ab01"/>
      <point x="500" y="-30"/>
      <point x="341" y="30"/>
      <point x="230" y="150"/>
      <point x="169" y="328"/>
      <point x="169" y="446" type="qcurve" name="dh01"/>
      <point x="169" y="507"/>
      <point x="178" y="578" type="qcurve" name="sh02"/>
      <point x="291" y="1434" type="line"/>
    </contour>
  </outline>
</glyph>
<glyph name="latn:W" format="2">
  <advance width="1416"/>
  <unicode hex="0057"/>
  <guideline x="0" y="528" angle="0"/>
  <guideline x="347" y="0" angle="106"/>
  <guideline x="1187" y="0" angle="108"/>
  <guideline x="1069" y="0" angle="74"/>
  <guideline x="944" y="0" angle="74"/>
  <guideline x="599" y="0" angle="106"/>
  <guideline x="478" y="0" angle="72"/>
  <guideline x="356" y="0" angle="72"/>
  <guideline x="938" y="0" angle="108"/>
  <guideline x="760" y="0" angle="90"/>
  <anchor x="980" y="1600" name="AccentAbove"/>
  <anchor x="1600" y="1600" name="AccentAboveRight"/>
  <anchor x="600" y="0" name="AccentBelow"/>
  <anchor x="850" y="712" name="AccentOverlay"/>
  <outline>
    <contour>
      <point x="1127" y="528" type="line" name="iv01"/>
      <point x="1452" y="1464" type="line" name="at01"/>
      <point x="1566" y="1434" type="line" name="at03"/>
      <point x="1067" y="0" type="line" name="ab01"/>
      <point x="939" y="0" type="line"/>
      <point x="833" y="943" type="line" name="iv02"/>
      <point x="478" y="0" type="line" name="ab02"/>
      <point x="349" y="0" type="line"/>
      <point x="228" y="1434" type="line" name="at04"/>
      <point x="476" y="1464" type="line" name="at02"/>
      <point x="555" y="528" type="line" name="iv03"/>
      <point x="895" y="1434" type="line" name="at05"/>
      <point x="1026" y="1434" type="line"/>
    </contour>
  </outline>
</glyph>
<glyph name="X" format="2">
  <advance width="936"/>
  <unicode hex="0058"/>
  <guideline x="0" y="725" angle="0"/>
  <guideline x="199" y="0" angle="60"/>
  <guideline x="58" y="0" angle="60"/>
  <guideline x="907" y="0" angle="120"/>
  <guideline x="651" y="0" angle="120"/>
  <guideline x="63" y="0" angle="90"/>
  <guideline x="722" y="0" angle="90"/>
  <anchor x="680" y="1600" name="AccentAbove"/>
  <anchor x="900" y="1600" name="AccentAboveRight"/>
  <anchor x="350" y="0" name="AccentBelow"/>
  <anchor x="550" y="712" name="AccentOverlay"/>
  <outline>
    <contour>
      <point x="467" y="1464" type="line" name="at01"/>
      <point x="611" y="980" type="line" name="iv01"/>
      <point x="887" y="1464" type="line" name="at02"/>
      <point x="1009" y="1434" type="line" name="iv02"/>
      <point x="661" y="818" type="line"/>
      <point x="906" y="0" type="line"/>
      <point x="659" y="-30" type="line" name="ab01"/>
      <point x="493" y="521" type="line" name="iv03"/>
      <point x="181" y="-30" type="line" name="ab02"/>
      <point x="58" y="0" type="line" name="iv04"/>
      <point x="445" y="685" type="line"/>
      <point x="219" y="1434" type="line"/>
    </contour>
  </outline>
</glyph>
<glyph name="latn:Y" format="2">
  <advance width="936"/>
  <unicode hex="0059"/>
  <guideline x="212" y="0" angle="62"/>
  <guideline x="839" y="0" angle="118"/>
  <guideline x="584" y="0" angle="118"/>
  <guideline x="353" y="0" angle="62"/>
  <anchor x="680" y="1600" name="AccentAbove"/>
  <anchor x="900" y="1600" name="AccentAboveRight"/>
  <anchor x="350" y="0" name="AccentBelow"/>
  <anchor x="600" y="712" name="AccentOverlay"/>
  <outline>
    <contour>
      <point x="448" y="1464" type="line" name="at01"/>
      <point x="629" y="785" type="line" name="iv01"/>
      <point x="989" y="1464" type="line" name="at02"/>
      <point x="1113" y="1434" type="line"/>
      <point x="662" y="582" type="line"/>
      <point x="585" y="0" type="line" name="ab01"/>
      <point x="351" y="0" type="line"/>
      <point x="428" y="584" type="line"/>
      <point x="201" y="1434" type="line"/>
    </contour>
  </outline>
</glyph>
<glyph name="Z" format="2">
  <advance width="936"/>
  <unicode hex="005A"/>
  <guideline x="0" y="1259" angle="3"/>
  <guideline x="284" y="0" angle="60"/>
  <guideline x="110" y="0" angle="80"/>
  <guideline x="878" y="0" angle="80"/>
  <guideline x="45" y="0" angle="90"/>
  <guideline x="879" y="0" angle="90"/>
  <guideline x="20" y="0" angle="60"/>
  <anchor x="680" y="1600" name="AccentAbove"/>
  <anchor x="900" y="1600" name="AccentAboveRight"/>
  <anchor x="350" y="0" name="AccentBelow"/>
  <anchor x="600" y="712" name="AccentOverlay"/>
  <outline>
    <contour>
      <point x="299" y="1434" type="line" name="at01"/>
      <point x="1068" y="1434" type="line"/>
      <point x="1060" y="1374" type="line"/>
      <point x="348" y="122" type="line"/>
      <point x="900" y="162" type="line"/>
      <point x="878" y="0" type="line"/>
      <point x="47" y="0" type="line"/>
      <point x="54" y="60" type="line"/>
      <point x="764" y="1312" type="line"/>
      <point x="278" y="1272" type="line"/>
    </contour>
  </outline>
</glyph>
<glyph name="sign:bracketleft" format="2">
  <advance width="552"/>
  <unicode hex="005B"/>
  <guideline x="505" y="0" angle="80"/>
  <guideline x="500" y="0" angle="100"/>
  <guideline x="485" y="0" angle="90"/>
  <outline>
    <contour>
      <point x="369" y="1464" type="line" name="at01"/>
      <point x="698" y="1464" type="line"/>
      <point x="682" y="1342" type="line" name="sv01"/>
      <point x="542" y="1342" type="line"/>
      <point x="344" y="-156" type="line"/>
      <point x="485" y="-156" type="line" name="dv02"/>
      <point x="468" y="-278" type="line" name="dv01"/>
      <point x="138" y="-278" type="line"/>
    </contour>
  </outline>
</glyph>
<glyph name="sign:backslash" format="2">
  <advance width="432"/>
  <unicode hex="005C"/>
  <guideline x="292" y="0" angle="106"/>
  <outline>
    <contour>
      <point x="290" y="1586" type="line" name="av01"/>
      <point x="482" y="-134" type="line"/>
      <point x="323" y="-152" type="line" name="av02"/>
      <point x="132" y="1569" type="line"/>
    </contour>
  </outline>
</glyph>
<glyph name="sign:asciicircum" format="2">
  <advance width="936"/>
  <unicode hex="005E"/>
  <guideline x="0" y="700" angle="330"/>
  <guideline x="468" y="0" angle="90"/>
  <guideline x="-213" y="0" angle="60"/>
  <guideline x="1150" y="0" angle="120"/>
  <outline>
    <contour>
      <point x="596" y="1434" type="line" name="at01"/>
      <point x="718" y="1434" type="line"/>
      <point x="954" y="648" type="line"/>
      <point x="818" y="553" type="line" name="av01"/>
      <point x="624" y="1181" type="line" name="iv01"/>
      <point x="264" y="553" type="line" name="av02"/>
      <point x="153" y="648" type="line"/>
    </contour>
  </outline>
</glyph>
<glyph name="b" format="2">
  <advance width="840"/>
  <unicode hex="0062"/>
  <guideline x="406" y="0" angle="90"/>
  <anchor x="530" y="1600" name="AccentAbove"/>
  <anchor x="550" y="1400" name="AccentAboveRight"/>
  <anchor x="250" y="0" name="AccentBelow"/>
  <anchor x="700" y="500" name="AccentOverlay"/>
  <outline>
    <contour>
      <point x="269" y="1464" type="line" name="hr00"/>
      <point x="439" y="1494" type="line" name="av01"/>
      <point x="484" y="1494" type="line"/>
      <point x="413" y="962" type="line" name="iv01"/>
      <point x="449" y="982"/>
      <point x="530" y="1004"/>
      <point x="577" y="1004" type="qcurve" name="at01"/>
      <point x="643" y="1004"/>
      <point x="752" y="947"/>
      <point x="828" y="842"/>
      <point x="870" y="694"/>
      <point x="870" y="603" type="qcurve" name="dh02"/>
      <point x="870" y="469"/>
      <point x="803" y="237"/>
      <point x="683" y="67"/>
      <point x="515" y="-30"/>
      <point x="415" y="-30" type="qcurve" name="ab01"/>
      <point x="378" y="-30"/>
      <point x="302" y="-16"/>
      <point x="222" y="18"/>
      <point x="137" y="77"/>
      <point x="91" y="122" type="qcurve"/>
    </contour>
    <contour>
      <point x="399" y="852" type="qcurve"/>
      <point x="302" y="122" type="line"/>
      <point x="319" y="104"/>
      <point x="374" y="82"/>
      <point x="415" y="82" type="qcurve" name="sv02"/>
      <point x="461" y="82"/>
      <point x="546" y="175"/>
      <point x="612" y="328"/>
      <point x="651" y="525"/>
      <point x="651" y="630" type="qcurve" name="dh01"/>
      <point x="651" y="689"/>
      <point x="635" y="785"/>
      <point x="604" y="854"/>
      <point x="557" y="892"/>
      <point x="524" y="892" type="qcurve" name="sv01"/>
      <point x="480" y="892"/>
      <point x="423" y="870"/>
    </contour>
  </outline>
</glyph>
<glyph name="d" format="2">
  <advance width="840"/>
  <unicode hex="0064"/>
  <guideline x="404" y="0" angle="90"/>
  <anchor x="250" y="0" name="AccentBelow"/>
  <anchor x="300" y="0" name="AccentCedilla"/>
  <anchor x="400" y="1600" name="AccentDefault"/>
  <anchor x="660" y="1200" name="AccentMiddle"/>
  <outline>
    <contour>
      <point x="662" y="821" type="line" name="hr00"/>
      <point x="647" y="852"/>
      <point x="592" y="892"/>
      <point x="547" y="892" type="qcurve" name="sv01"/>
      <point x="515" y="892"/>
      <point x="455" y="846"/>
      <point x="404" y="767"/>
      <point x="362" y="661"/>
      <point x="333" y="541"/>
      <point x="317" y="412"/>
      <point x="317" y="350" type="qcurve" name="dh02"/>
      <point x="317" y="283"/>
      <point x="336" y="183"/>
      <point x="369" y="116"/>
      <point x="414" y="82"/>
      <point x="440" y="82" type="qcurve" name="sv02"/>
      <point x="485" y="82"/>
      <point x="550" y="123"/>
      <point x="573" y="152" type="qcurve"/>
    </contour>
    <contour>
      <point x="526" y="1004" type="qcurve" name="at01"/>
      <point x="548" y="1004"/>
      <point x="595" y="988"/>
      <point x="637" y="966"/>
      <point x="668" y="941"/>
      <point x="677" y="931" type="qcurve" name="iv01"/>
      <point x="747" y="1464" type="line"/>
      <point x="917" y="1494" type="line" name="av01"/>
      <point x="962" y="1494" type="line"/>
      <point x="785" y="156" type="line"/>
      <point x="785" y="149"/>
      <point x="784" y="136"/>
      <point x="784" y="131" type="qcurve"/>
      <point x="784" y="107"/>
      <point x="803" y="82"/>
      <point x="830" y="82" type="qcurve" name="sv03"/>
      <point x="815" y="-30" type="line" name="ab01"/>
      <point x="716" y="-30"/>
      <point x="606" y="19"/>
      <point x="587" y="82" type="qcurve" name="iv02"/>
      <point x="569" y="58"/>
      <point x="519" y="17"/>
      <point x="466" y="-13"/>
      <point x="412" y="-30"/>
      <point x="388" y="-30" type="qcurve" name="ab02"/>
      <point x="325" y="-30"/>
      <point x="218" y="24"/>
      <point x="141" y="126"/>
      <point x="98" y="275"/>
      <point x="98" y="370" type="qcurve" name="dh01"/>
      <point x="98" y="450"/>
      <point x="127" y="606"/>
      <point x="181" y="747"/>
      <point x="257" y="867"/>
      <point x="353" y="955"/>
      <point x="464" y="1004"/>
    </contour>
  </outline>
</glyph>
<glyph name="latn:f" format="2">
  <advance width="552"/>
  <unicode hex="0066"/>
  <guideline x="0" y="906" angle="357"/>
  <guideline x="0" y="1382" angle="0"/>
  <guideline x="535" y="0" angle="80"/>
  <guideline x="353" y="0" angle="80"/>
  <anchor x="480" y="1600" name="AccentAbove"/>
  <anchor x="700" y="1600" name="AccentAboveRight"/>
  <anchor x="150" y="0" name="AccentBelow"/>
  <anchor x="400" y="500" name="AccentOverlay"/>
  <outline>
    <contour>
      <point x="172" y="1004" type="line" name="hr00"/>
      <point x="274" y="1004" type="line"/>
      <point x="288" y="1139"/>
      <point x="370" y="1326"/>
      <point x="491" y="1442"/>
      <point x="646" y="1494"/>
      <point x="733" y="1494" type="qcurve" name="dv02"/>
      <point x="718" y="1382" type="line" name="dv01"/>
      <point x="677" y="1382"/>
      <point x="605" y="1356"/>
      <point x="549" y="1293"/>
      <point x="509" y="1189"/>
      <point x="499" y="1111" type="qcurve"/>
      <point x="485" y="1004" type="line"/>
      <point x="617" y="1004" type="line"/>
      <point x="598" y="865" type="line"/>
      <point x="467" y="873" type="line"/>
      <point x="353" y="0" type="line" name="ab01"/>
      <point x="141" y="0" type="line"/>
      <point x="258" y="886" type="line"/>
      <point x="157" y="892" type="line"/>
    </contour>
  </outline>
</glyph>
<glyph name="latn:g" format="2">
  <advance width="840"/>
  <unicode hex="0067"/>
  <guideline x="392" y="0" angle="90"/>
  <guideline x="296" y="0" angle="45"/>
  <anchor x="580" y="1100" name="AccentAbove"/>
  <anchor x="800" y="1100" name="AccentAboveRight"/>
  <anchor x="328" y="-500" name="AccentBelow"/>
  <anchor x="700" y="500" name="AccentOverlay"/>
  <outline>
    <contour>
      <point x="521" y="974" type="qcurve" name="at02"/>
      <point x="544" y="974"/>
      <point x="591" y="958"/>
      <point x="632" y="936"/>
      <point x="665" y="911"/>
      <point x="672" y="901" type="qcurve" name="iv01"/>
      <point x="682" y="974" type="line" name="at03"/>
      <point x="853" y="1004" type="line" name="at01"/>
      <point x="898" y="1004" type="line"/>
      <point x="771" y="49" type="line"/>
      <point x="754" y="-80"/>
      <point x="672" y="-281"/>
      <point x="555" y="-418"/>
      <point x="408" y="-490"/>
      <point x="326" y="-490" type="qcurve" name="ab01"/>
      <point x="285" y="-490"/>
      <point x="205" y="-468"/>
      <point x="131" y="-428"/>
      <point x="66" y="-372"/>
      <point x="42" y="-338" type="qcurve"/>
      <point x="126" y="-226" type="line" name="ih01"/>
      <point x="140" y="-251"/>
      <point x="182" y="-298"/>
      <point x="233" y="-335"/>
      <point x="291" y="-358"/>
      <point x="320" y="-358" type="qcurve" name="sv02"/>
      <point x="355" y="-358"/>
      <point x="425" y="-329"/>
      <point x="487" y="-257"/>
      <point x="535" y="-134"/>
      <point x="548" y="-40" type="qcurve"/>
      <point x="564" y="80" type="line" name="iv02"/>
      <point x="527" y="42"/>
      <point x="437" y="0"/>
      <point x="392" y="0" type="qcurve" name="ab02"/>
      <point x="328" y="0"/>
      <point x="221" y="47"/>
      <point x="142" y="140"/>
      <point x="98" y="280"/>
      <point x="98" y="373" type="qcurve" name="dh01"/>
      <point x="98" y="495"/>
      <point x="161" y="713"/>
      <point x="274" y="878"/>
      <point x="429" y="974"/>
    </contour>
    <contour>
      <point x="578" y="182" type="qcurve"/>
      <point x="658" y="791" type="line"/>
      <point x="642" y="822"/>
      <point x="587" y="862"/>
      <point x="542" y="862" type="qcurve" name="sv01"/>
      <point x="495" y="862"/>
      <point x="413" y="775"/>
      <point x="352" y="633"/>
      <point x="317" y="452"/>
      <point x="317" y="358" type="qcurve" name="dh02"/>
      <point x="317" y="293"/>
      <point x="338" y="200"/>
      <point x="372" y="140"/>
      <point x="418" y="112"/>
      <point x="443" y="112" type="qcurve" name="sv03"/>
      <point x="489" y="112"/>
      <point x="554" y="153"/>
    </contour>
  </outline>
</glyph>
<glyph name="i" format="2">
  <advance width="432"/>
  <unicode hex="0069"/>
  <guideline x="235" y="0" angle="80"/>
  <guideline x="216" y="0" angle="90"/>
  <guideline x="104" y="0" angle="80"/>
  <anchor x="100" y="0" name="AccentBelow"/>
  <anchor x="250" y="1600" name="AccentDefault"/>
  <anchor x="100" y="500" name="AccentMiddle"/>
  <anchor x="-50" y="0" name="AccentOgonek"/>
  <outline>
    <contour>
      <point x="239" y="974" type="line" name="hr00"/>
      <point x="410" y="1004" type="line" name="at01"/>
      <point x="455" y="1004" type="line"/>
      <point x="322" y="0" type="line" name="ab01"/>
      <point x="110" y="0" type="line"/>
    </contour>
    <contour>
      <point x="276" y="1288" type="qcurve" name="dh01"/>
      <point x="276" y="1318"/>
      <point x="293" y="1372"/>
      <point x="323" y="1411"/>
      <point x="363" y="1434"/>
      <point x="386" y="1434" type="qcurve" name="at02"/>
      <point x="408" y="1434"/>
      <point x="449" y="1411"/>
      <point x="478" y="1372"/>
      <point x="495" y="1318"/>
      <point x="495" y="1288" type="qcurve" name="dh02"/>
      <point x="495" y="1258"/>
      <point x="478" y="1204"/>
      <point x="449" y="1165"/>
      <point x="408" y="1142"/>
      <point x="386" y="1142" type="qcurve" name="sv01"/>
      <point x="363" y="1142"/>
      <point x="323" y="1165"/>
      <point x="293" y="1204"/>
      <point x="276" y="1258"/>
    </contour>
  </outline>
</glyph>
<glyph name="latn:j" format="2">
  <advance width="432"/>
  <unicode hex="006A"/>
  <guideline x="239" y="0" angle="80"/>
  <anchor x="380" y="1600" name="AccentAbove"/>
  <anchor x="520" y="1200" name="AccentAboveRight"/>
  <anchor x="128" y="-500" name="AccentBelow"/>
  <anchor x="300" y="500" name="AccentOverlay"/>
  <outline>
    <contour>
      <point x="242" y="974" type="line" name="hr00"/>
      <point x="413" y="1004" type="line" name="at01"/>
      <point x="458" y="1004" type="line"/>
      <point x="315" y="-76" type="line"/>
      <point x="300" y="-191"/>
      <point x="246" y="-349"/>
      <point x="161" y="-447"/>
      <point x="43" y="-490"/>
      <point x="-37" y="-490" type="qcurve" name="ab01"/>
      <point x="-22" y="-378" type="line"/>
      <point x="3" y="-378"/>
      <point x="38" y="-363"/>
      <point x="63" y="-323"/>
      <point x="81" y="-250"/>
      <point x="89" y="-191" type="qcurve"/>
    </contour>
    <contour>
      <point x="280" y="1288" type="qcurve" name="dh01"/>
      <point x="280" y="1318"/>
      <point x="297" y="1372"/>
      <point x="326" y="1411"/>
      <point x="367" y="1434"/>
      <point x="389" y="1434" type="qcurve" name="at02"/>
      <point x="412" y="1434"/>
      <point x="452" y="1411"/>
      <point x="482" y="1372"/>
      <point x="499" y="1318"/>
      <point x="499" y="1288" type="qcurve" name="dh02"/>
      <point x="499" y="1258"/>
      <point x="482" y="1204"/>
      <point x="452" y="1165"/>
      <point x="412" y="1142"/>
      <point x="389" y="1142" type="qcurve" name="sv01"/>
      <point x="367" y="1142"/>
      <point x="326" y="1165"/>
      <point x="297" y="1204"/>
      <point x="280" y="1258"/>
    </contour>
  </outline>
</glyph>
<glyph name="latn:l" format="2">
  <advance width="432"/>
  <unicode hex="006C"/>
  <guideline x="431" y="0" angle="80"/>
  <anchor x="380" y="1600" name="AccentAbove"/>
  <anchor x="400" y="1400" name="AccentAboveRight"/>
  <anchor x="100" y="0" name="AccentBelow"/>
  <anchor x="350" y="486" name="AccentOverlay"/>
  <outline>
    <contour>
      <point x="510" y="1494" type="line" name="av01"/>
      <point x="348" y="269" type="line" name="sh01"/>
      <point x="344" y="233"/>
      <point x="344" y="204" type="qcurve" name="dh02"/>
      <point x="344" y="173"/>
      <point x="359" y="127"/>
      <point x="386" y="97"/>
      <point x="422" y="82"/>
      <point x="443" y="82" type="qcurve"/>
      <point x="428" y="-30" type="line" name="ab01"/>
      <point x="343" y="-30"/>
      <point x="230" y="-3"/>
      <point x="164" y="54"/>
      <point x="136" y="142"/>
      <point x="136" y="203" type="qcurve" name="dh01"/>
      <point x="136" y="233"/>
      <point x="141" y="303"/>
      <point x="146" y="342" type="qcurve" name="sh02"/>
      <point x="295" y="1464" type="line"/>
      <point x="465" y="1494" type="line"/>
    </contour>
  </outline>
</glyph>
<glyph name="m" format="2">
  <advance width="1248"/>
  <unicode hex="006D"/>
  <guideline x="0" y="769" angle="0"/>
  <guideline x="1215" y="0" angle="80"/>
  <anchor x="730" y="1100" name="AccentAbove"/>
  <anchor x="1150" y="1100" name="AccentAboveRight"/>
  <anchor x="500" y="0" name="AccentBelow"/>
  <anchor x="700" y="500" name="AccentOverlay"/>
  <outline>
    <contour>
      <point x="200" y="944" type="line" name="hr00"/>
      <point x="370" y="974" type="line" name="at01"/>
      <point x="415" y="974" type="line"/>
      <point x="404" y="893" type="line" name="iv01"/>
      <point x="425" y="915"/>
      <point x="473" y="956"/>
      <point x="526" y="986"/>
      <point x="581" y="1004"/>
      <point x="610" y="1004" type="qcurve" name="at02"/>
      <point x="685" y="1004"/>
      <point x="783" y="924"/>
      <point x="804" y="852" type="qcurve" name="iv02"/>
      <point x="830" y="882"/>
      <point x="885" y="937"/>
      <point x="945" y="979"/>
      <point x="1011" y="1004"/>
      <point x="1047" y="1004" type="qcurve" name="at03"/>
      <point x="1089" y="1004"/>
      <point x="1166" y="974"/>
      <point x="1223" y="914"/>
      <point x="1258" y="823"/>
      <point x="1258" y="762" type="qcurve" name="dh02"/>
      <point x="1258" y="732"/>
      <point x="1253" y="699" type="qcurve" name="sh01"/>
      <point x="1184" y="173" type="line" name="hr01"/>
      <point x="1182" y="162"/>
      <point x="1179" y="140"/>
      <point x="1179" y="132" type="qcurve"/>
      <point x="1179" y="105"/>
      <point x="1200" y="82"/>
      <point x="1226" y="82" type="qcurve"/>
      <point x="1211" y="-30" type="line" name="ab01"/>
      <point x="1159" y="-30"/>
      <point x="1073" y="-3"/>
      <point x="1011" y="50"/>
      <point x="976" y="128"/>
      <point x="976" y="179" type="qcurve"/>
      <point x="976" y="195"/>
      <point x="980" y="232"/>
      <point x="982" y="247" type="qcurve"/>
      <point x="1047" y="740" type="line" name="sh02"/>
      <point x="1049" y="752"/>
      <point x="1050" y="774"/>
      <point x="1050" y="784" type="qcurve" name="dh01"/>
      <point x="1050" y="814"/>
      <point x="1038" y="855"/>
      <point x="1018" y="880"/>
      <point x="993" y="892"/>
      <point x="980" y="892" type="qcurve" name="sv01"/>
      <point x="960" y="892"/>
      <point x="919" y="871"/>
      <point x="878" y="836"/>
      <point x="841" y="792"/>
      <point x="825" y="769" type="qcurve"/>
      <point x="724" y="0" type="line" name="ab02"/>
      <point x="512" y="0" type="line"/>
      <point x="610" y="741" type="line"/>
      <point x="613" y="761"/>
      <point x="613" y="783" type="qcurve"/>
      <point x="613" y="813"/>
      <point x="600" y="854"/>
      <point x="581" y="880"/>
      <point x="555" y="892"/>
      <point x="543" y="892" type="qcurve" name="sv02"/>
      <point x="524" y="892"/>
      <point x="483" y="872"/>
      <point x="443" y="838"/>
      <point x="404" y="794"/>
      <point x="388" y="770" type="qcurve"/>
      <point x="287" y="0" type="line" name="ab03"/>
      <point x="75" y="0" type="line"/>
    </contour>
  </outline>
</glyph>
<glyph name="latn:q" format="2">
  <advance width="840"/>
  <unicode hex="0071"/>
  <guideline x="422" y="0" angle="90"/>
  <guideline x="764" y="0" angle="80"/>
  <anchor x="530" y="1100" name="AccentAbove"/>
  <anchor x="750" y="1100" name="AccentAboveRight"/>
  <anchor x="328" y="-500" name="AccentBelow"/>
  <anchor x="500" y="500" name="AccentOverlay"/>
  <outline>
    <contour>
      <point x="666" y="852" type="line" name="hr00"/>
      <point x="653" y="865"/>
      <point x="591" y="892"/>
      <point x="547" y="892" type="qcurve" name="sv01"/>
      <point x="515" y="892"/>
      <point x="455" y="846"/>
      <point x="404" y="767"/>
      <point x="362" y="661"/>
      <point x="333" y="541"/>
      <point x="317" y="412"/>
      <point x="317" y="350" type="qcurve" name="dh02"/>
      <point x="317" y="283"/>
      <point x="336" y="183"/>
      <point x="370" y="116"/>
      <point x="414" y="82"/>
      <point x="440" y="82" type="qcurve" name="sv02"/>
      <point x="485" y="82"/>
      <point x="552" y="133"/>
      <point x="575" y="163" type="qcurve"/>
    </contour>
    <contour>
      <point x="526" y="1004" type="qcurve" name="at01"/>
      <point x="582" y="1004"/>
      <point x="675" y="981"/>
      <point x="758" y="940"/>
      <point x="836" y="884"/>
      <point x="878" y="852" type="qcurve"/>
      <point x="704" y="-460" type="line"/>
      <point x="533" y="-490" type="line" name="ab01"/>
      <point x="488" y="-490" type="line"/>
      <point x="560" y="51" type="line" name="iv01"/>
      <point x="524" y="13"/>
      <point x="433" y="-30"/>
      <point x="388" y="-30" type="qcurve" name="ab02"/>
      <point x="325" y="-30"/>
      <point x="218" y="24"/>
      <point x="141" y="126"/>
      <point x="98" y="275"/>
      <point x="98" y="370" type="qcurve" name="dh01"/>
      <point x="98" y="450"/>
      <point x="127" y="606"/>
      <point x="181" y="747"/>
      <point x="257" y="867"/>
      <point x="353" y="954"/>
      <point x="464" y="1004"/>
    </contour>
  </outline>
</glyph>
<glyph name="r" format="2">
  <advance width="552"/>
  <unicode hex="0072"/>
  <guideline x="548" y="0" angle="80"/>
  <anchor x="350" y="1100" name="AccentAbove"/>
  <anchor x="370" y="1100" name="AccentAboveRight"/>
  <anchor x="50" y="0" name="AccentBelow"/>
  <anchor x="300" y="500" name="AccentOverlay"/>
  <outline>
    <contour>
      <point x="415" y="974" type="line" name="at01"/>
      <point x="395" y="826" type="line" name="iv01"/>
      <point x="411" y="859"/>
      <point x="452" y="923"/>
      <point x="497" y="973"/>
      <point x="545" y="1004" name="hr00"/>
      <point x="570" y="1004" type="qcurve" name="at02"/>
      <point x="608" y="1004"/>
      <point x="660" y="964"/>
      <point x="672" y="944" type="qcurve"/>
      <point x="645" y="740" type="line" name="iv02"/>
      <point x="608" y="782"/>
      <point x="533" y="782" type="qcurve" name="sv01"/>
      <point x="495" y="782"/>
      <point x="436" y="745"/>
      <point x="394" y="689"/>
      <point x="368" y="623"/>
      <point x="365" y="595" type="qcurve"/>
      <point x="285" y="0" type="line" name="ab01"/>
      <point x="75" y="0" type="line"/>
      <point x="200" y="944" type="line"/>
      <point x="370" y="974" type="line"/>
    </contour>
  </outline>
</glyph>
<glyph name="latn:u" format="2">
  <advance width="840"/>
  <unicode hex="0075"/>
  <guideline x="761" y="0" angle="82.6"/>
  <anchor x="530" y="1100" name="AccentAbove"/>
  <anchor x="750" y="1100" name="AccentAboveRight"/>
  <anchor x="668" y="0" name="AccentAttachedBelow"/>
  <anchor x="300" y="0" name="AccentBelow"/>
  <anchor x="500" y="500" name="AccentOverlay"/>
  <outline>
    <contour>
      <point x="419" y="1004" type="line" name="at01"/>
      <point x="320" y="258" type="line" name="sh01"/>
      <point x="316" y="223"/>
      <point x="316" y="198" type="qcurve" name="dh02"/>
      <point x="316" y="163"/>
      <point x="329" y="118"/>
      <point x="351" y="92"/>
      <point x="377" y="82"/>
      <point x="389" y="82" type="qcurve" name="sv01"/>
      <point x="416" y="82"/>
      <point x="468" y="100"/>
      <point x="516" y="131"/>
      <point x="558" y="174"/>
      <point x="574" y="199" type="qcurve"/>
      <point x="676" y="974" type="line"/>
      <point x="847" y="1004" type="line" name="at02"/>
      <point x="892" y="1004" type="line"/>
      <point x="781" y="165" type="line"/>
      <point x="779" y="156"/>
      <point x="777" y="138"/>
      <point x="777" y="130" type="qcurve"/>
      <point x="777" y="106"/>
      <point x="799" y="82"/>
      <point x="824" y="82" type="qcurve" name="sv02"/>
      <point x="809" y="-30" type="line" name="ab01"/>
      <point x="759" y="-30"/>
      <point x="684" y="-19"/>
      <point x="630" y="6"/>
      <point x="593" y="49"/>
      <point x="581" y="82" type="qcurve" name="iv01"/>
      <point x="560" y="62"/>
      <point x="509" y="22"/>
      <point x="448" y="-10"/>
      <point x="379" y="-30"/>
      <point x="342" y="-30" type="qcurve" name="ab02"/>
      <point x="293" y="-30"/>
      <point x="209" y="-1"/>
      <point x="146" y="60"/>
      <point x="110" y="157"/>
      <point x="110" y="226" type="qcurve" name="dh01"/>
      <point x="110" y="259"/>
      <point x="114" y="298" type="qcurve" name="sh02"/>
      <point x="203" y="974" type="line"/>
      <point x="374" y="1004" type="line"/>
    </contour>
  </outline>
</glyph>
<glyph name="v" format="2">
  <advance width="768"/>
  <unicode hex="0076"/>
  <guideline x="524" y="0" angle="110"/>
  <guideline x="298" y="0" angle="110"/>
  <guideline x="470" y="0" angle="70"/>
  <guideline x="355" y="0" angle="70"/>
  <guideline x="365" y="0" angle="90"/>
  <anchor x="250" y="0" name="AccentBelow"/>
  <anchor x="400" y="1100" name="AccentDefault"/>
  <anchor x="250" y="500" name="AccentMiddle"/>
  <outline>
    <contour>
      <point x="382" y="1004" type="line" name="at01"/>
      <point x="480" y="308" type="line" name="iv01"/>
      <point x="762" y="1004" type="line" name="at02"/>
      <point x="864" y="974" type="line"/>
      <point x="470" y="0" type="line" name="ab01"/>
      <point x="298" y="0" type="line"/>
      <point x="160" y="974" type="line"/>
    </contour>
  </outline>
</glyph>
<glyph name="latn:x" format="2">
  <advance width="768"/>
  <unicode hex="0078"/>
  <guideline x="0" y="835" angle="0"/>
  <guideline x="0" y="156" angle="0"/>
  <guideline x="39" y="0" angle="55"/>
  <guideline x="160" y="0" angle="55"/>
  <guideline x="755" y="0" angle="125"/>
  <guideline x="523" y="0" angle="125"/>
  <guideline x="368" y="0" angle="90"/>
  <guideline x="68" y="0" angle="90"/>
  <guideline x="674" y="0" angle="90"/>
  <anchor x="530" y="1100" name="AccentAbove"/>
  <anchor x="750" y="1100" name="AccentAboveRight"/>
  <anchor x="300" y="0" name="AccentBelow"/>
  <anchor x="500" y="500" name="AccentOverlay"/>
  <outline>
    <contour>
      <point x="398" y="1004" type="line" name="at01"/>
      <point x="525" y="683" type="line" name="iv01"/>
      <point x="737" y="1004" type="line" name="at02"/>
      <point x="837" y="974" type="line" name="iv02"/>
      <point x="571" y="569" type="line"/>
      <point x="793" y="0" type="line"/>
      <point x="572" y="-30" type="line" name="ab01"/>
      <point x="425" y="346" type="line" name="iv03"/>
      <point x="177" y="-30" type="line" name="ab02"/>
      <point x="77" y="0" type="line" name="iv04"/>
      <point x="379" y="460" type="line"/>
      <point x="178" y="974" type="line"/>
    </contour>
  </outline>
</glyph>
<glyph name="y" format="2">
  <advance width="720"/>
  <unicode hex="0079"/>
  <guideline x="455" y="0" angle="72"/>
  <guideline x="553" y="0" angle="112"/>
  <guideline x="690" y="0" angle="72"/>
  <guideline x="328" y="0" angle="112"/>
  <guideline x="75" y="0" angle="80"/>
  <guideline x="61" y="0" angle="90"/>
  <anchor x="100" y="-500" name="AccentBelow"/>
  <anchor x="400" y="1100" name="AccentDefault"/>
  <anchor x="250" y="500" name="AccentMiddle"/>
  <outline>
    <contour>
      <point x="383" y="1004" type="line" name="at01"/>
      <point x="486" y="385" type="line" name="iv01"/>
      <point x="719" y="1004" type="line" name="at02"/>
      <point x="821" y="974" type="line"/>
      <point x="443" y="-30" type="line"/>
      <point x="406" y="-129"/>
      <point x="329" y="-298"/>
      <point x="230" y="-421"/>
      <point x="101" y="-490"/>
      <point x="11" y="-490" type="qcurve" name="ab01"/>
      <point x="26" y="-378" type="line" name="sv01"/>
      <point x="89" y="-378"/>
      <point x="185" y="-311"/>
      <point x="258" y="-203"/>
      <point x="315" y="-69"/>
      <point x="341" y="-3" type="qcurve"/>
      <point x="159" y="974" type="line"/>
    </contour>
  </outline>
</glyph>
<glyph name="latn:z" format="2">
  <advance width="720"/>
  <unicode hex="007A"/>
  <guideline x="0" y="831" angle="3"/>
  <guideline x="-17" y="0" angle="55"/>
  <guideline x="226" y="0" angle="55"/>
  <guideline x="706" y="0" angle="90"/>
  <guideline x="698" y="0" angle="80"/>
  <anchor x="530" y="1100" name="AccentAbove"/>
  <anchor x="750" y="1100" name="AccentAboveRight"/>
  <anchor x="250" y="0" name="AccentBelow"/>
  <anchor x="450" y="500" name="AccentOverlay"/>
  <outline>
    <contour>
      <point x="30" y="60" type="line" name="hr00"/>
      <point x="557" y="862" type="line"/>
      <point x="173" y="835" type="line"/>
      <point x="191" y="974" type="line"/>
      <point x="826" y="974" type="line"/>
      <point x="818" y="914" type="line"/>
      <point x="284" y="112" type="line"/>
      <point x="715" y="141" type="line"/>
      <point x="697" y="0" type="line"/>
      <point x="23" y="0" type="line"/>
    </contour>
  </outline>
</glyph>
<glyph name="sign:braceleft" format="2">
  <advance width="552"/>
  <unicode hex="007B"/>
  <guideline x="489" y="0" angle="90"/>
  <guideline x="488" y="0" angle="80"/>
  <outline>
    <contour>
      <point x="680" y="1342" type="line" name="sv01"/>
      <point x="636" y="1342"/>
      <point x="584" y="1321"/>
      <point x="553" y="1276"/>
      <point x="538" y="1204"/>
      <point x="531" y="1153" type="qcurve"/>
      <point x="500" y="917" type="line"/>
      <point x="492" y="861"/>
      <point x="462" y="766" name="hr00"/>
      <point x="414" y="687"/>
      <point x="347" y="620"/>
      <point x="302" y="593" type="qcurve" name="ih01"/>
      <point x="363" y="547"/>
      <point x="420" y="429"/>
      <point x="420" y="349" type="qcurve" name="sh01"/>
      <point x="420" y="330"/>
      <point x="417" y="290"/>
      <point x="414" y="269" type="qcurve" name="sh02"/>
      <point x="381" y="21" type="line" name="sh03"/>
      <point x="377" y="-6"/>
      <point x="373" y="-51"/>
      <point x="373" y="-69" type="qcurve" name="dh02"/>
      <point x="373" y="-93"/>
      <point x="383" y="-126"/>
      <point x="408" y="-147"/>
      <point x="450" y="-156"/>
      <point x="482" y="-156" type="qcurve"/>
      <point x="466" y="-278" type="line" name="av01"/>
      <point x="396" y="-278"/>
      <point x="291" y="-256"/>
      <point x="222" y="-204"/>
      <point x="188" y="-119"/>
      <point x="188" y="-56" type="qcurve" name="dh01"/>
      <point x="188" y="-15"/>
      <point x="194" y="36" type="qcurve" name="sh04"/>
      <point x="220" y="230" type="line" name="sh05"/>
      <point x="226" y="274"/>
      <point x="233" y="351"/>
      <point x="233" y="384" type="qcurve" name="ih02"/>
      <point x="233" y="418"/>
      <point x="223" y="473"/>
      <point x="196" y="512"/>
      <point x="152" y="532"/>
      <point x="118" y="532" type="qcurve"/>
      <point x="134" y="654" type="line"/>
      <point x="185" y="654"/>
      <point x="247" y="698"/>
      <point x="285" y="778"/>
      <point x="307" y="889"/>
      <point x="316" y="956" type="qcurve"/>
      <point x="341" y="1140" type="line"/>
      <point x="353" y="1233"/>
      <point x="406" y="1358"/>
      <point x="492" y="1433"/>
      <point x="614" y="1464"/>
      <point x="696" y="1464" type="qcurve" name="at01"/>
    </contour>
  </outline>
</glyph>
<glyph name="sign:braceright" format="2">
  <advance width="552"/>
  <unicode hex="007D"/>
  <guideline x="64" y="0" angle="80"/>
  <outline>
    <contour>
      <point x="258" y="1464" type="line" name="at01"/>
      <point x="308" y="1463"/>
      <point x="407" y="1449"/>
      <point x="487" y="1401"/>
      <point x="536" y="1309" name="hr00"/>
      <point x="536" y="1231" type="qcurve" name="sh01"/>
      <point x="536" y="1189"/>
      <point x="530" y="1140" type="qcurve" name="sh02"/>
      <point x="505" y="956" type="line" name="sh03"/>
      <point x="499" y="912"/>
      <point x="491" y="836"/>
      <point x="491" y="803" type="qcurve" name="dh02"/>
      <point x="491" y="768"/>
      <point x="503" y="713"/>
      <point x="529" y="675"/>
      <point x="573" y="654"/>
      <point x="607" y="654" type="qcurve"/>
      <point x="590" y="532" type="line" name="hr01"/>
      <point x="541" y="532"/>
      <point x="478" y="488"/>
      <point x="440" y="408"/>
      <point x="418" y="297"/>
      <point x="409" y="230" type="qcurve"/>
      <point x="383" y="36" type="line"/>
      <point x="370" y="-64"/>
      <point x="308" y="-187"/>
      <point x="215" y="-254"/>
      <point x="96" y="-277"/>
      <point x="27" y="-278" type="qcurve" name="dv01"/>
      <point x="44" y="-156" type="line" name="dv02"/>
      <point x="88" y="-156"/>
      <point x="140" y="-138"/>
      <point x="170" y="-97"/>
      <point x="185" y="-29"/>
      <point x="192" y="21" type="qcurve"/>
      <point x="226" y="269" type="line"/>
      <point x="233" y="325"/>
      <point x="263" y="419"/>
      <point x="311" y="498"/>
      <point x="378" y="565"/>
      <point x="423" y="593" type="qcurve" name="ih02"/>
      <point x="362" y="638"/>
      <point x="305" y="756"/>
      <point x="305" y="837" type="qcurve" name="dh01"/>
      <point x="305" y="856"/>
      <point x="308" y="896"/>
      <point x="311" y="917" type="qcurve" name="sh04"/>
      <point x="342" y="1153" type="line" name="sh05"/>
      <point x="346" y="1182"/>
      <point x="350" y="1227"/>
      <point x="350" y="1247" type="qcurve" name="ih01"/>
      <point x="350" y="1272"/>
      <point x="340" y="1308"/>
      <point x="315" y="1331"/>
      <point x="274" y="1342"/>
      <point x="242" y="1342" type="qcurve"/>
    </contour>
  </outline>
</glyph>
<glyph name="asciitilde" format="2">
  <advance width="936"/>
  <unicode hex="007E"/>
  <guideline x="407" y="0" angle="135"/>
  <guideline x="494" y="0" angle="90"/>
  <outline>
    <contour>
      <point x="110" y="386" type="line" name="hr00"/>
      <point x="110" y="427"/>
      <point x="143" y="526"/>
      <point x="205" y="611"/>
      <point x="296" y="669"/>
      <point x="355" y="669" type="qcurve" name="sv02"/>
      <point x="398" y="669"/>
      <point x="467" y="642"/>
      <point x="526" y="602" name="hr01"/>
      <point x="575" y="554"/>
      <point x="625" y="514"/>
      <point x="677" y="487"/>
      <point x="708" y="487" type="qcurve" name="dv02"/>
      <point x="741" y="487"/>
      <point x="793" y="518"/>
      <point x="828" y="569"/>
      <point x="847" y="634"/>
      <point x="847" y="669" type="qcurve" name="sv01"/>
      <point x="893" y="669" type="line"/>
      <point x="953" y="589" type="line"/>
      <point x="953" y="548"/>
      <point x="921" y="449"/>
      <point x="858" y="363"/>
      <point x="767" y="305"/>
      <point x="707" y="305" type="qcurve" name="dv01"/>
      <point x="661" y="305"/>
      <point x="590" y="332"/>
      <point x="534" y="372"/>
      <point x="487" y="420"/>
      <point x="440" y="460"/>
      <point x="387" y="487"/>
      <point x="354" y="487" type="qcurve" name="sv03"/>
      <point x="321" y="487"/>
      <point x="270" y="456"/>
      <point x="236" y="405"/>
      <point x="217" y="340"/>
      <point x="217" y="305" type="qcurve" name="sv04"/>
      <point x="170" y="305" type="line"/>
    </contour>
  </outline>
</glyph>
<glyph name="sign:exclamdown" format="2">
  <advance width="552"/>
  <unicode hex="00A1"/>
  <outline>
    <contour>
      <point x="491" y="599" type="line" name="hr00"/>
      <point x="425" y="-460" type="line"/>
      <point x="399" y="-490" type="line" name="ab01"/>
      <point x="180" y="-490" type="line"/>
      <point x="161" y="-460" type="line"/>
      <point x="377" y="599" type="line"/>
    </contour>
    <contour>
      <point x="359" y="858" type="qcurve" name="dh01"/>
      <point x="359" y="888"/>
      <point x="376" y="942"/>
      <point x="405" y="981"/>
      <point x="446" y="1004"/>
      <point x="468" y="1004" type="qcurve" name="at01"/>
      <point x="491" y="1004"/>
      <point x="531" y="981"/>
      <point x="560" y="942"/>
      <point x="578" y="888"/>
      <point x="578" y="858" type="qcurve" name="dh02"/>
      <point x="578" y="828"/>
      <point x="560" y="774"/>
      <point x="531" y="735"/>
      <point x="491" y="712"/>
      <point x="468" y="712" type="qcurve" name="sv01"/>
      <point x="446" y="712"/>
      <point x="405" y="735"/>
      <point x="376" y="774"/>
      <point x="359" y="828"/>
    </contour>
  </outline>
</glyph>
<glyph name="curr:sterling" format="2">
  <advance width="840"/>
  <unicode hex="00A3"/>
  <guideline x="0" y="727" angle="357.17"/>
  <guideline x="228" y="0" angle="80"/>
  <guideline x="686" y="0" angle="90"/>
  <guideline x="-43" y="0" angle="45"/>
  <guideline x="877" y="0" angle="135"/>
  <outline>
    <contour>
      <point x="179" y="803" type="line" name="hr00"/>
      <point x="330" y="803" type="line" name="sh01"/>
      <point x="334" y="833"/>
      <point x="336" y="881"/>
      <point x="336" y="901" type="qcurve" name="sh02"/>
      <point x="336" y="941"/>
      <point x="330" y="1002"/>
      <point x="330" y="1041" type="qcurve" name="dh01"/>
      <point x="330" y="1138"/>
      <point x="389" y="1295"/>
      <point x="488" y="1405"/>
      <point x="614" y="1464"/>
      <point x="681" y="1464" type="qcurve" name="at01"/>
      <point x="773" y="1464"/>
      <point x="898" y="1383"/>
      <point x="941" y="1311" type="qcurve"/>
      <point x="858" y="1201" type="line" name="iv01"/>
      <point x="850" y="1225"/>
      <point x="827" y="1278"/>
      <point x="791" y="1323"/>
      <point x="741" y="1352"/>
      <point x="706" y="1352" type="qcurve" name="sv01"/>
      <point x="675" y="1352"/>
      <point x="619" y="1320"/>
      <point x="575" y="1261"/>
      <point x="549" y="1176"/>
      <point x="549" y="1122" type="qcurve" name="dh02"/>
      <point x="549" y="1090"/>
      <point x="543" y="1002"/>
      <point x="536" y="912"/>
      <point x="529" y="830"/>
      <point x="527" y="803" type="qcurve"/>
      <point x="736" y="803" type="line"/>
      <point x="719" y="678" type="line"/>
      <point x="513" y="693" type="line"/>
      <point x="501" y="602"/>
      <point x="443" y="432"/>
      <point x="368" y="283"/>
      <point x="287" y="158"/>
      <point x="252" y="112" type="qcurve" name="iv02"/>
      <point x="290" y="108"/>
      <point x="372" y="97"/>
      <point x="449" y="88"/>
      <point x="514" y="82"/>
      <point x="536" y="82" type="qcurve" name="sv02"/>
      <point x="565" y="82"/>
      <point x="612" y="110"/>
      <point x="652" y="153"/>
      <point x="685" y="207"/>
      <point x="699" y="234" type="qcurve" name="iv03"/>
      <point x="784" y="122" type="line"/>
      <point x="769" y="103"/>
      <point x="724" y="51"/>
      <point x="659" y="3"/>
      <point x="569" y="-30"/>
      <point x="510" y="-30" type="qcurve" name="ab02"/>
      <point x="450" y="-30"/>
      <point x="347" y="-21"/>
      <point x="246" y="-9"/>
      <point x="137" y="0"/>
      <point x="71" y="0" type="qcurve" name="ab01"/>
      <point x="86" y="112" type="line"/>
      <point x="127" y="158"/>
      <point x="198" y="261"/>
      <point x="259" y="399"/>
      <point x="306" y="581"/>
      <point x="323" y="706" type="qcurve" name="sh03"/>
      <point x="167" y="718" type="line"/>
    </contour>
  </outline>
</glyph>
<glyph name="currency" format="2">
  <advance width="768"/>
  <unicode hex="00A4"/>
  <guideline x="0" y="846" angle="0"/>
  <guideline x="126" y="0" angle="90"/>
  <guideline x="583" y="0" angle="90"/>
  <outline>
    <contour>
      <point x="215" y="1189" type="line" name="ih01"/>
      <point x="308" y="1063" type="line" name="sh03"/>
      <point x="388" y="1136"/>
      <point x="480" y="1136" type="qcurve" name="dv04"/>
      <point x="572" y="1136"/>
      <point x="653" y="1059" type="qcurve" name="sh04"/>
      <point x="752" y="1189" type="line" name="ih02"/>
      <point x="824" y="1093" type="line"/>
      <point x="725" y="963" type="line"/>
      <point x="752" y="911"/>
      <point x="779" y="796"/>
      <point x="779" y="738" type="qcurve" name="sh05"/>
      <point x="779" y="678"/>
      <point x="751" y="562"/>
      <point x="724" y="511" type="qcurve"/>
      <point x="824" y="378" type="line"/>
      <point x="752" y="282" type="line" name="ih03"/>
      <point x="653" y="413" type="line" name="sh06"/>
      <point x="573" y="337"/>
      <point x="480" y="337" type="qcurve" name="dv01"/>
      <point x="389" y="337"/>
      <point x="310" y="409" type="qcurve" name="sh07"/>
      <point x="215" y="282" type="line" name="ih04"/>
      <point x="143" y="378" type="line"/>
      <point x="238" y="503" type="line"/>
      <point x="209" y="555"/>
      <point x="182" y="673"/>
      <point x="182" y="736" type="qcurve" name="sh01"/>
      <point x="182" y="862"/>
      <point x="238" y="969" type="qcurve"/>
      <point x="143" y="1093" type="line"/>
    </contour>
    <contour>
      <point x="480" y="954" type="qcurve" name="dv03"/>
      <point x="446" y="954"/>
      <point x="388" y="918"/>
      <point x="344" y="858"/>
      <point x="318" y="779"/>
      <point x="318" y="736" type="qcurve" name="sh02"/>
      <point x="318" y="693"/>
      <point x="344" y="614"/>
      <point x="388" y="554"/>
      <point x="446" y="519"/>
      <point x="480" y="519" type="qcurve" name="dv02"/>
      <point x="512" y="519"/>
      <point x="571" y="553"/>
      <point x="616" y="612"/>
      <point x="643" y="691"/>
      <point x="643" y="736" type="qcurve" name="ah01"/>
      <point x="643" y="779"/>
      <point x="616" y="858"/>
      <point x="571" y="918"/>
      <point x="512" y="954"/>
    </contour>
  </outline>
</glyph>
<glyph name="curr:yen" format="2">
  <advance width="768"/>
  <unicode hex="00A5"/>
  <guideline x="350" y="0" angle="70"/>
  <guideline x="418" y="0" angle="110"/>
  <guideline x="23" y="0" angle="80"/>
  <guideline x="26" y="0" angle="90"/>
  <guideline x="622" y="0" angle="110"/>
  <guideline x="221" y="0" angle="70"/>
  <outline>
    <contour>
      <point x="416" y="1464" type="line" name="at01"/>
      <point x="518" y="732" type="line" name="iv01"/>
      <point x="815" y="1464" type="line" name="at02"/>
      <point x="931" y="1434" type="line"/>
      <point x="745" y="974" type="line" name="at03"/>
      <point x="870" y="974" type="line"/>
      <point x="854" y="852" type="line" name="sv01"/>
      <point x="696" y="852" type="line"/>
      <point x="620" y="665" type="line"/>
      <point x="830" y="665" type="line" name="dv02"/>
      <point x="814" y="543" type="line" name="dv01"/>
      <point x="572" y="543" type="line"/>
      <point x="501" y="0" type="line" name="ab01"/>
      <point x="267" y="0" type="line"/>
      <point x="338" y="543" type="line" name="sv02"/>
      <point x="98" y="543" type="line"/>
      <point x="113" y="665" type="line" name="sv03"/>
      <point x="324" y="665" type="line"/>
      <point x="298" y="852" type="line" name="sv04"/>
      <point x="139" y="852" type="line" name="sv05"/>
      <point x="155" y="974" type="line" name="at04"/>
      <point x="280" y="974" type="line"/>
      <point x="215" y="1434" type="line"/>
    </contour>
  </outline>
</glyph>
<glyph name="brokenbar" format="2">
  <advance width="552"/>
  <unicode hex="00A6"/>
  <outline>
    <contour>
      <point x="584" y="1682" type="line" name="av01"/>
      <point x="474" y="848" type="line"/>
      <point x="285" y="848" type="line"/>
      <point x="395" y="1682" type="line"/>
    </contour>
    <contour>
      <point x="136" y="-278" type="line" name="av02"/>
      <point x="247" y="556" type="line"/>
      <point x="436" y="556" type="line"/>
      <point x="325" y="-278" type="line"/>
    </contour>
  </outline>
</glyph>
<glyph name="sign:diaeresis" format="2">
  <advance width="576"/>
  <unicode hex="00A8"/>
  <outline>
    <contour>
      <point x="188" y="1302" type="qcurve" name="sh01"/>
      <point x="188" y="1330"/>
      <point x="203" y="1378"/>
      <point x="230" y="1414"/>
      <point x="266" y="1434"/>
      <point x="286" y="1434" type="qcurve" name="at01"/>
      <point x="307" y="1434"/>
      <point x="343" y="1414"/>
      <point x="370" y="1378"/>
      <point x="385" y="1330"/>
      <point x="385" y="1302" type="qcurve" name="sh02"/>
      <point x="385" y="1275"/>
      <point x="370" y="1227"/>
      <point x="343" y="1192"/>
      <point x="307" y="1172"/>
      <point x="286" y="1172" type="qcurve" name="sv01"/>
      <point x="266" y="1172"/>
      <point x="230" y="1192"/>
      <point x="203" y="1227"/>
      <point x="188" y="1275"/>
    </contour>
    <contour>
      <point x="535" y="1302" type="qcurve" name="ah01"/>
      <point x="535" y="1330"/>
      <point x="550" y="1378"/>
      <point x="576" y="1414"/>
      <point x="612" y="1434"/>
      <point x="632" y="1434" type="qcurve" name="at02"/>
      <point x="653" y="1434"/>
      <point x="689" y="1414"/>
      <point x="716" y="1378"/>
      <point x="731" y="1330"/>
      <point x="731" y="1302" type="qcurve" name="sh03"/>
      <point x="731" y="1275"/>
      <point x="716" y="1227"/>
      <point x="689" y="1192"/>
      <point x="653" y="1172"/>
      <point x="632" y="1172" type="qcurve" name="sv02"/>
      <point x="612" y="1172"/>
      <point x="576" y="1192"/>
      <point x="550" y="1227"/>
      <point x="535" y="1275"/>
    </contour>
  </outline>
</glyph>
<glyph name="sign:copyright" format="2">
  <advance width="1200"/>
  <unicode hex="00A9"/>
  <outline>
    <contour>
      <point x="793" y="1464" type="qcurve" name="at01"/>
      <point x="896" y="1464"/>
      <point x="1070" y="1369"/>
      <point x="1195" y="1203"/>
      <point x="1264" y="977"/>
      <point x="1264" y="845" type="qcurve" name="dh06"/>
      <point x="1264" y="728"/>
      <point x="1212" y="507"/>
      <point x="1121" y="312"/>
      <point x="995" y="151"/>
      <point x="845" y="34"/>
      <point x="680" y="-30"/>
      <point x="595" y="-30" type="qcurve" name="ab01"/>
      <point x="491" y="-30"/>
      <point x="318" y="64"/>
      <point x="194" y="229"/>
      <point x="125" y="454"/>
      <point x="125" y="586" type="qcurve" name="dh01"/>
      <point x="125" y="703"/>
      <point x="177" y="924"/>
      <point x="268" y="1119"/>
      <point x="394" y="1282"/>
      <point x="542" y="1399"/>
      <point x="707" y="1464"/>
    </contour>
    <contour>
      <point x="218" y="615" type="qcurve" name="dh02"/>
      <point x="218" y="506"/>
      <point x="278" y="315"/>
      <point x="383" y="174"/>
      <point x="527" y="92"/>
      <point x="611" y="92" type="qcurve" name="sv01"/>
      <point x="680" y="92"/>
      <point x="817" y="147"/>
      <point x="941" y="245"/>
      <point x="1048" y="381"/>
      <point x="1126" y="542"/>
      <point x="1171" y="724"/>
      <point x="1171" y="819" type="qcurve" name="dh05"/>
      <point x="1171" y="928"/>
      <point x="1112" y="1118"/>
      <point x="1006" y="1260"/>
      <point x="861" y="1342"/>
      <point x="776" y="1342" type="qcurve" name="sv02"/>
      <point x="707" y="1342"/>
      <point x="571" y="1287"/>
      <point x="446" y="1189"/>
      <point x="341" y="1053"/>
      <point x="263" y="891"/>
      <point x="218" y="710"/>
    </contour>
    <contour>
      <point x="917" y="931" type="line" name="ih01"/>
      <point x="907" y="954"/>
      <point x="881" y="995"/>
      <point x="848" y="1025"/>
      <point x="804" y="1043"/>
      <point x="776" y="1043" type="qcurve" name="dv03"/>
      <point x="735" y="1043"/>
      <point x="661" y="969"/>
      <point x="605" y="846"/>
      <point x="573" y="688"/>
      <point x="573" y="605" type="qcurve" name="dh04"/>
      <point x="573" y="494"/>
      <point x="633" y="388"/>
      <point x="686" y="388" type="qcurve" name="dv02"/>
      <point x="731" y="388"/>
      <point x="808" y="454"/>
      <point x="835" y="502" type="qcurve" name="ih02"/>
      <point x="907" y="406" type="line"/>
      <point x="884" y="379"/>
      <point x="834" y="331"/>
      <point x="774" y="296"/>
      <point x="700" y="276"/>
      <point x="653" y="276" type="qcurve" name="dv01"/>
      <point x="590" y="276"/>
      <point x="490" y="327"/>
      <point x="421" y="418"/>
      <point x="384" y="545"/>
      <point x="384" y="622" type="qcurve" name="dh03"/>
      <point x="384" y="731"/>
      <point x="443" y="925"/>
      <point x="548" y="1071"/>
      <point x="689" y="1155"/>
      <point x="770" y="1155" type="qcurve" name="dv04"/>
      <point x="816" y="1155"/>
      <point x="885" y="1135"/>
      <point x="937" y="1100"/>
      <point x="974" y="1053"/>
      <point x="989" y="1026" type="qcurve"/>
    </contour>
  </outline>
</glyph>
<glyph name="latn:ordfeminine" format="2">
  <advance width="648"/>
  <unicode hex="00AA"/>
  <guideline x="550" y="0" angle="80"/>
  <outline>
    <contour>
      <point x="545" y="1059" type="line" name="hr00"/>
      <point x="504" y="1054"/>
      <point x="418" y="1025"/>
      <point x="347" y="970"/>
      <point x="302" y="886"/>
      <point x="302" y="827" type="qcurve" name="sh02"/>
      <point x="302" y="797"/>
      <point x="316" y="762"/>
      <point x="338" y="744"/>
      <point x="366" y="739" name="hr01"/>
      <point x="379" y="739" type="qcurve" name="sv02"/>
      <point x="395" y="739"/>
      <point x="434" y="755"/>
      <point x="470" y="781"/>
      <point x="503" y="814"/>
      <point x="515" y="831" type="qcurve"/>
    </contour>
    <contour>
      <point x="204" y="1343" type="line"/>
      <point x="266" y="1400"/>
      <point x="407" y="1464"/>
      <point x="477" y="1464" type="qcurve" name="at01"/>
      <point x="522" y="1464"/>
      <point x="611" y="1430"/>
      <point x="681" y="1363"/>
      <point x="725" y="1265"/>
      <point x="725" y="1202" type="qcurve" name="sh03"/>
      <point x="725" y="1188"/>
      <point x="722" y="1162"/>
      <point x="721" y="1148" type="qcurve" name="sh04"/>
      <point x="674" y="793" type="line"/>
      <point x="674" y="789"/>
      <point x="673" y="782"/>
      <point x="673" y="778" type="qcurve"/>
      <point x="673" y="739"/>
      <point x="710" y="739" type="qcurve" name="sv01"/>
      <point x="696" y="637" type="line" name="dv01"/>
      <point x="647" y="637"/>
      <point x="584" y="651"/>
      <point x="545" y="675"/>
      <point x="526" y="708"/>
      <point x="519" y="727" type="qcurve" name="ih01"/>
      <point x="501" y="709"/>
      <point x="459" y="677"/>
      <point x="410" y="652"/>
      <point x="352" y="637"/>
      <point x="318" y="637" type="qcurve" name="sv03"/>
      <point x="278" y="637"/>
      <point x="214" y="661"/>
      <point x="168" y="707"/>
      <point x="143" y="774"/>
      <point x="143" y="818" type="qcurve" name="sh01"/>
      <point x="143" y="897"/>
      <point x="204" y="1015"/>
      <point x="314" y="1094"/>
      <point x="466" y="1136"/>
      <point x="555" y="1140" type="qcurve" name="sh05"/>
      <point x="563" y="1195" type="line"/>
      <point x="566" y="1218"/>
      <point x="566" y="1243" type="qcurve" name="ah01"/>
      <point x="566" y="1273"/>
      <point x="548" y="1318"/>
      <point x="518" y="1347"/>
      <point x="477" y="1362"/>
      <point x="453" y="1362" type="qcurve" name="sv04"/>
      <point x="437" y="1362"/>
      <point x="395" y="1352"/>
      <point x="347" y="1327"/>
      <point x="296" y="1285"/>
      <point x="272" y="1253" type="qcurve" name="ih02"/>
    </contour>
  </outline>
</glyph>
<glyph name="math:logicalnot" format="2">
  <advance width="864"/>
  <unicode hex="00AC"/>
  <outline>
    <contour>
      <point x="914" y="805" type="line" name="dv02"/>
      <point x="842" y="256" type="line" name="av01"/>
      <point x="653" y="256" type="line"/>
      <point x="698" y="593" type="line" name="dv01"/>
      <point x="132" y="593" type="line"/>
      <point x="160" y="805" type="line"/>
    </contour>
  </outline>
</glyph>
<glyph name="sign:registered" format="2">
  <advance width="1200"/>
  <unicode hex="00AE"/>
  <outline>
    <contour>
      <point x="793" y="1464" type="qcurve" name="at01"/>
      <point x="896" y="1464"/>
      <point x="1070" y="1369"/>
      <point x="1195" y="1203"/>
      <point x="1264" y="977"/>
      <point x="1264" y="845" type="qcurve" name="dh06"/>
      <point x="1264" y="728"/>
      <point x="1212" y="507"/>
      <point x="1121" y="312"/>
      <point x="995" y="151"/>
      <point x="845" y="34"/>
      <point x="680" y="-30"/>
      <point x="595" y="-30" type="qcurve" name="ab01"/>
      <point x="491" y="-30"/>
      <point x="318" y="64"/>
      <point x="194" y="229"/>
      <point x="125" y="454"/>
      <point x="125" y="586" type="qcurve" name="dh01"/>
      <point x="125" y="703"/>
      <point x="177" y="924"/>
      <point x="268" y="1119"/>
      <point x="394" y="1282"/>
      <point x="542" y="1399"/>
      <point x="707" y="1464"/>
    </contour>
    <contour>
      <point x="218" y="615" type="qcurve" name="dh02"/>
      <point x="218" y="506"/>
      <point x="278" y="315"/>
      <point x="383" y="174"/>
      <point x="527" y="92"/>
      <point x="611" y="92" type="qcurve" name="sv01"/>
      <point x="680" y="92"/>
      <point x="817" y="147"/>
      <point x="941" y="245"/>
      <point x="1048" y="381"/>
      <point x="1126" y="542"/>
      <point x="1171" y="724"/>
      <point x="1171" y="819" type="qcurve" name="dh05"/>
      <point x="1171" y="928"/>
      <point x="1112" y="1118"/>
      <point x="1006" y="1260"/>
      <point x="861" y="1342"/>
      <point x="776" y="1342" type="qcurve" name="sv02"/>
      <point x="707" y="1342"/>
      <point x="571" y="1287"/>
      <point x="446" y="1189"/>
      <point x="341" y="1053"/>
      <point x="263" y="891"/>
      <point x="218" y="710"/>
    </contour>
    <contour>
      <point x="665" y="1073" type="line"/>
      <point x="619" y="727" type="line"/>
      <point x="671" y="727" type="line"/>
      <point x="701" y="727"/>
      <point x="755" y="766"/>
      <point x="794" y="826"/>
      <point x="817" y="900"/>
      <point x="817" y="936" type="qcurve" name="dh03"/>
      <point x="817" y="966"/>
      <point x="800" y="1017"/>
      <point x="773" y="1053"/>
      <point x="737" y="1073"/>
      <point x="718" y="1073" type="qcurve"/>
    </contour>
    <contour>
      <point x="531" y="1155" type="line"/>
      <point x="739" y="1155" type="line"/>
      <point x="851" y="1155"/>
      <point x="961" y="1053"/>
      <point x="961" y="958" type="qcurve" name="dh04"/>
      <point x="961" y="898"/>
      <point x="923" y="803"/>
      <point x="862" y="733"/>
      <point x="785" y="685"/>
      <point x="747" y="672" type="qcurve"/>
      <point x="923" y="296" type="line" name="ih01"/>
      <point x="766" y="277" type="line"/>
      <point x="623" y="645" type="line"/>
      <point x="608" y="645" type="line"/>
      <point x="562" y="295" type="line"/>
      <point x="418" y="295" type="line"/>
    </contour>
  </outline>
</glyph>
<glyph name="macron" format="2">
  <advance width="576"/>
  <unicode hex="00AF"/>
  <guideline x="-93" y="0" angle="80"/>
  <outline>
    <contour>
      <point x="233" y="1354" type="line" name="hr00"/>
      <point x="677" y="1354" type="line" name="dv02"/>
      <point x="653" y="1172" type="line" name="dv01"/>
      <point x="209" y="1172" type="line"/>
    </contour>
  </outline>
</glyph>
<glyph name="degree" format="2">
  <advance width="576"/>
  <unicode hex="00B0"/>
  <guideline x="0" y="1226" angle="0"/>
  <guideline x="269" y="0" angle="90"/>
  <outline>
    <contour>
      <point x="348" y="1272" type="qcurve" name="sh02"/>
      <point x="348" y="1241"/>
      <point x="365" y="1188"/>
      <point x="393" y="1149"/>
      <point x="432" y="1126"/>
      <point x="455" y="1126" type="qcurve" name="dv02"/>
      <point x="477" y="1126"/>
      <point x="517" y="1149"/>
      <point x="547" y="1188"/>
      <point x="564" y="1241"/>
      <point x="564" y="1272" type="qcurve" name="ah01"/>
      <point x="564" y="1300"/>
      <point x="547" y="1352"/>
      <point x="517" y="1391"/>
      <point x="477" y="1414"/>
      <point x="455" y="1414" type="qcurve" name="dv03"/>
      <point x="432" y="1414"/>
      <point x="393" y="1391"/>
      <point x="365" y="1352"/>
      <point x="348" y="1300"/>
    </contour>
    <contour>
      <point x="234" y="1271" type="qcurve" name="sh01"/>
      <point x="234" y="1331"/>
      <point x="268" y="1439"/>
      <point x="328" y="1519"/>
      <point x="409" y="1566"/>
      <point x="455" y="1566" type="qcurve" name="dv04"/>
      <point x="501" y="1566"/>
      <point x="582" y="1519"/>
      <point x="643" y="1439"/>
      <point x="678" y="1331"/>
      <point x="678" y="1271" type="qcurve" name="sh03"/>
      <point x="678" y="1207"/>
      <point x="643" y="1098"/>
      <point x="582" y="1019"/>
      <point x="501" y="974"/>
      <point x="455" y="974" type="qcurve" name="dv01"/>
      <point x="409" y="974"/>
      <point x="328" y="1019"/>
      <point x="268" y="1098"/>
      <point x="234" y="1207"/>
    </contour>
  </outline>
</glyph>
<glyph name="plusminus" format="2">
  <advance width="864"/>
  <unicode hex="00B1"/>
  <guideline x="710" y="0" angle="90"/>
  <outline>
    <contour>
      <point x="84" y="212" type="line" name="sv01"/>
      <point x="836" y="212" type="line"/>
      <point x="808" y="0" type="line" name="ab01"/>
      <point x="56" y="0" type="line"/>
    </contour>
    <contour>
      <point x="168" y="762" type="line" name="sv02"/>
      <point x="196" y="974" type="line" name="at01"/>
      <point x="481" y="974" type="line"/>
      <point x="531" y="1355" type="line" name="av01"/>
      <point x="690" y="1355" type="line"/>
      <point x="640" y="974" type="line" name="at02"/>
      <point x="925" y="974" type="line"/>
      <point x="897" y="762" type="line" name="sv03"/>
      <point x="612" y="762" type="line" name="sv04"/>
      <point x="562" y="381" type="line"/>
      <point x="403" y="381" type="line"/>
      <point x="453" y="762" type="line" name="sv05"/>
    </contour>
  </outline>
</glyph>
<glyph name="twosuperior" format="2">
  <advance width="552"/>
  <unicode hex="00B2"/>
  <guideline x="1248" y="0" angle="135"/>
  <guideline x="61" y="0" angle="80"/>
  <outline>
    <contour>
      <point x="239" y="1345" type="line" name="hr00"/>
      <point x="287" y="1402"/>
      <point x="395" y="1464"/>
      <point x="452" y="1464" type="qcurve" name="at01"/>
      <point x="489" y="1464"/>
      <point x="557" y="1438"/>
      <point x="609" y="1386"/>
      <point x="641" y="1309"/>
      <point x="641" y="1257" type="qcurve" name="dh02"/>
      <point x="641" y="1186"/>
      <point x="596" y="1062"/>
      <point x="506" y="934"/>
      <point x="373" y="792"/>
      <point x="284" y="704" type="qcurve"/>
      <point x="567" y="725" type="line"/>
      <point x="548" y="586" type="line"/>
      <point x="138" y="586" type="line"/>
      <point x="143" y="621" type="line"/>
      <point x="221" y="724"/>
      <point x="335" y="881"/>
      <point x="415" y="1001"/>
      <point x="466" y="1090"/>
      <point x="494" y="1158"/>
      <point x="504" y="1212"/>
      <point x="504" y="1238" type="qcurve" name="dh01"/>
      <point x="504" y="1262"/>
      <point x="494" y="1303"/>
      <point x="475" y="1334"/>
      <point x="446" y="1352"/>
      <point x="428" y="1352" type="qcurve" name="sv01"/>
      <point x="355" y="1352"/>
      <point x="296" y="1269" type="qcurve"/>
    </contour>
  </outline>
</glyph>
<glyph name="periodcentered" format="2">
  <advance width="432"/>
  <unicode hex="00B7"/>
  <guideline x="216" y="0" angle="80"/>
  <outline>
    <contour>
      <point x="161" y="497" type="qcurve" name="dh01"/>
      <point x="161" y="530"/>
      <point x="180" y="589"/>
      <point x="213" y="633"/>
      <point x="257" y="658"/>
      <point x="282" y="658" type="qcurve" name="dv02"/>
      <point x="307" y="658"/>
      <point x="351" y="633"/>
      <point x="384" y="589"/>
      <point x="403" y="530"/>
      <point x="403" y="497" type="qcurve" name="dh02"/>
      <point x="403" y="464"/>
      <point x="384" y="405"/>
      <point x="351" y="361"/>
      <point x="307" y="336"/>
      <point x="282" y="336" type="qcurve" name="dv01"/>
      <point x="257" y="336"/>
      <point x="213" y="361"/>
      <point x="180" y="405"/>
      <point x="161" y="464"/>
    </contour>
  </outline>
</glyph>
<glyph name="sign:cedilla" format="2">
  <advance width="576"/>
  <unicode hex="00B8"/>
  <guideline x="236" y="0" angle="70"/>
  <guideline x="325" y="0" angle="45"/>
  <outline>
    <contour>
      <point x="236" y="15" type="line" name="sv01"/>
      <point x="372" y="15" type="line" name="ih01"/>
      <point x="349" y="-72" type="line"/>
      <point x="362" y="-75"/>
      <point x="396" y="-101"/>
      <point x="428" y="-144"/>
      <point x="450" y="-205"/>
      <point x="450" y="-242" type="qcurve" name="dh02"/>
      <point x="450" y="-305" name="hr00"/>
      <point x="415" y="-398"/>
      <point x="353" y="-459"/>
      <point x="272" y="-490"/>
      <point x="226" y="-490" type="qcurve" name="ab01"/>
      <point x="192" y="-490"/>
      <point x="134" y="-463"/>
      <point x="88" y="-425"/>
      <point x="56" y="-383"/>
      <point x="49" y="-368" type="qcurve"/>
      <point x="123" y="-270" type="line" name="iv01"/>
      <point x="128" y="-286"/>
      <point x="143" y="-320"/>
      <point x="165" y="-349"/>
      <point x="194" y="-368"/>
      <point x="211" y="-368" type="qcurve" name="sv02"/>
      <point x="228" y="-368"/>
      <point x="260" y="-351"/>
      <point x="284" y="-321"/>
      <point x="299" y="-278"/>
      <point x="299" y="-252" type="qcurve" name="dh01"/>
      <point x="299" y="-200"/>
      <point x="248" y="-124"/>
      <point x="200" y="-113" type="qcurve"/>
    </contour>
  </outline>
</glyph>
<glyph name="digit:one.superior" format="2">
  <advance width="552"/>
  <unicode hex="00B9"/>
  <outline>
    <contour>
      <point x="596" y="1464" type="line" name="at01"/>
      <point x="479" y="586" type="line" name="av01"/>
      <point x="343" y="586" type="line"/>
      <point x="440" y="1313" type="line" name="iv01"/>
      <point x="314" y="1272" type="line" name="iv02"/>
      <point x="314" y="1340" type="line"/>
      <point x="566" y="1464" type="line"/>
    </contour>
  </outline>
</glyph>
<glyph name="latn:ordmasculine" format="2">
  <advance width="648"/>
  <unicode hex="00BA"/>
  <outline>
    <contour>
      <point x="422" y="739" type="qcurve" name="dv02"/>
      <point x="463" y="739"/>
      <point x="530" y="821"/>
      <point x="578" y="949"/>
      <point x="605" y="1106"/>
      <point x="605" y="1181" type="qcurve" name="ah01"/>
      <point x="605" y="1270"/>
      <point x="551" y="1362"/>
      <point x="504" y="1362" type="qcurve" name="sv01"/>
      <point x="463" y="1362"/>
      <point x="395" y="1282"/>
      <point x="347" y="1155"/>
      <point x="321" y="999"/>
      <point x="321" y="923" type="qcurve" name="sh02"/>
      <point x="321" y="832"/>
      <point x="374" y="739"/>
    </contour>
    <contour>
      <point x="408" y="637" type="qcurve" name="dv01"/>
      <point x="348" y="637"/>
      <point x="258" y="682"/>
      <point x="199" y="765"/>
      <point x="170" y="880"/>
      <point x="170" y="949" type="qcurve" name="sh01"/>
      <point x="170" y="1052"/>
      <point x="218" y="1239"/>
      <point x="309" y="1380"/>
      <point x="438" y="1464"/>
      <point x="518" y="1464" type="qcurve" name="at01"/>
      <point x="577" y="1464"/>
      <point x="666" y="1418"/>
      <point x="726" y="1336"/>
      <point x="756" y="1221"/>
      <point x="756" y="1151" type="qcurve" name="sh03"/>
      <point x="756" y="1049"/>
      <point x="707" y="862"/>
      <point x="616" y="721"/>
      <point x="487" y="637"/>
    </contour>
  </outline>
</glyph>
<glyph name="sign:questiondown" format="2">
  <advance width="768"/>
  <unicode hex="00BF"/>
  <outline>
    <contour>
      <point x="701" y="122" type="line" name="hr00"/>
      <point x="668" y="80"/>
      <point x="603" y="22"/>
      <point x="535" y="-14"/>
      <point x="459" y="-30"/>
      <point x="414" y="-30" type="qcurve" name="ab01"/>
      <point x="361" y="-30"/>
      <point x="269" y="3"/>
      <point x="200" y="66"/>
      <point x="161" y="157"/>
      <point x="161" y="214" type="qcurve" name="dh01"/>
      <point x="161" y="290"/>
      <point x="197" y="401"/>
      <point x="256" y="485" name="hr01"/>
      <point x="332" y="547"/>
      <point x="410" y="601"/>
      <point x="485" y="652"/>
      <point x="544" y="714"/>
      <point x="580" y="792"/>
      <point x="580" y="846" type="qcurve" name="sh01"/>
      <point x="580" y="871"/>
      <point x="566" y="911"/>
      <point x="545" y="938"/>
      <point x="518" y="952"/>
      <point x="505" y="952" type="qcurve" name="dv01"/>
      <point x="473" y="952"/>
      <point x="430" y="919"/>
      <point x="410" y="893" type="qcurve" name="ih01"/>
      <point x="349" y="974" type="line"/>
      <point x="372" y="996"/>
      <point x="417" y="1030"/>
      <point x="466" y="1052"/>
      <point x="520" y="1064"/>
      <point x="552" y="1064" type="qcurve" name="dv02"/>
      <point x="587" y="1064"/>
      <point x="642" y="1028"/>
      <point x="680" y="969"/>
      <point x="701" y="892"/>
      <point x="701" y="852" type="qcurve" name="dh04"/>
      <point x="701" y="783"/>
      <point x="671" y="679"/>
      <point x="622" y="598"/>
      <point x="558" y="534"/>
      <point x="492" y="476"/>
      <point x="428" y="418"/>
      <point x="379" y="350"/>
      <point x="349" y="266"/>
      <point x="349" y="210" type="qcurve" name="dh02"/>
      <point x="349" y="180"/>
      <point x="365" y="132"/>
      <point x="392" y="99"/>
      <point x="429" y="82"/>
      <point x="450" y="82" type="qcurve" name="sv01"/>
      <point x="546" y="82"/>
      <point x="618" y="234" type="qcurve" name="ih02"/>
    </contour>
    <contour>
      <point x="496" y="1338" type="qcurve" name="dh03"/>
      <point x="496" y="1364"/>
      <point x="511" y="1410"/>
      <point x="536" y="1444"/>
      <point x="571" y="1464"/>
      <point x="590" y="1464" type="qcurve" name="at01"/>
      <point x="610" y="1464"/>
      <point x="644" y="1444"/>
      <point x="670" y="1410"/>
      <point x="685" y="1364"/>
      <point x="685" y="1338" type="qcurve"/>
      <point x="685" y="1312"/>
      <point x="670" y="1266"/>
      <point x="644" y="1232"/>
      <point x="610" y="1212"/>
      <point x="590" y="1212" type="qcurve" name="sv02"/>
      <point x="571" y="1212"/>
      <point x="536" y="1232"/>
      <point x="511" y="1266"/>
      <point x="496" y="1312"/>
    </contour>
  </outline>
</glyph>
<glyph name="latn:AE" format="2">
  <advance width="1320"/>
  <unicode hex="00C6"/>
  <guideline x="11" y="0" angle="60"/>
  <guideline x="146" y="0" angle="60"/>
  <outline>
    <contour>
      <point x="820" y="1434" type="line" name="at01"/>
      <point x="1430" y="1434" type="line"/>
      <point x="1409" y="1272" type="line"/>
      <point x="1007" y="1312" type="line"/>
      <point x="947" y="859" type="line"/>
      <point x="1277" y="859" type="line" name="dv04"/>
      <point x="1258" y="717" type="line" name="dv03"/>
      <point x="929" y="717" type="line" name="hr00"/>
      <point x="850" y="122" type="line"/>
      <point x="1283" y="162" type="line"/>
      <point x="1263" y="0" type="line" name="ab02"/>
      <point x="600" y="0" type="line"/>
      <point x="645" y="345" type="line" name="dv01"/>
      <point x="341" y="345" type="line"/>
      <point x="128" y="-30" type="line" name="ab01"/>
      <point x="11" y="0" type="line" name="ab03"/>
    </contour>
    <contour>
      <point x="421" y="487" type="line" name="sv01"/>
      <point x="664" y="487" type="line" name="dv02"/>
      <point x="738" y="1047" type="line"/>
    </contour>
  </outline>
</glyph>
<glyph name="Ccedilla" format="2">
  <advance width="1008"/>
  <unicode hex="00C7"/>
  <outline>
    <contour>
      <point x="1156" y="1235" type="qcurve" name="hr00"/>
      <point x="1065" y="1113" type="line" name="iv01"/>
      <point x="1022" y="1213"/>
      <point x="876" y="1322"/>
      <point x="772" y="1322" type="qcurve" name="sv01"/>
      <point x="718" y="1322"/>
      <point x="615" y="1263"/>
      <point x="524" y="1158"/>
      <point x="448" y="1012"/>
      <point x="393" y="838"/>
      <point x="362" y="641"/>
      <point x="362" y="537" type="qcurve" name="dh02"/>
      <point x="362" y="434"/>
      <point x="399" y="276"/>
      <point x="466" y="168"/>
      <point x="557" y="112"/>
      <point x="611" y="112" type="qcurve"/>
      <point x="657" y="112"/>
      <point x="740" y="133"/>
      <point x="818" y="183"/>
      <point x="891" y="262"/>
      <point x="927" y="321" type="qcurve" name="iv02"/>
      <point x="1019" y="199" type="line"/>
      <point x="976" y="147"/>
      <point x="885" y="62"/>
      <point x="782" y="2"/>
      <point x="723" y="-14" type="qcurve"/>
      <point x="694" y="-22"/>
      <point x="663" y="-26" type="qcurve"/>
      <point x="652" y="-72" type="line"/>
      <point x="668" y="-75"/>
      <point x="701" y="-97"/>
      <point x="730" y="-137"/>
      <point x="749" y="-195"/>
      <point x="749" y="-232" type="qcurve" name="dh04"/>
      <point x="749" y="-295"/>
      <point x="707" y="-391"/>
      <point x="641" y="-456"/>
      <point x="560" y="-490"/>
      <point x="519" y="-490" type="qcurve" name="ab01"/>
      <point x="482" y="-490"/>
      <point x="426" y="-465"/>
      <point x="384" y="-428"/>
      <point x="357" y="-386"/>
      <point x="350" y="-368" type="qcurve"/>
      <point x="424" y="-270" type="line" name="ih01"/>
      <point x="437" y="-315"/>
      <point x="476" y="-368"/>
      <point x="504" y="-368" type="qcurve" name="sv02"/>
      <point x="527" y="-368"/>
      <point x="563" y="-348"/>
      <point x="587" y="-314"/>
      <point x="599" y="-268"/>
      <point x="599" y="-242" type="qcurve" name="dh03"/>
      <point x="599" y="-216"/>
      <point x="586" y="-169"/>
      <point x="560" y="-134"/>
      <point x="523" y="-113"/>
      <point x="500" y="-113" type="qcurve" name="ih02"/>
      <point x="525" y="-24" type="line"/>
      <point x="467" y="-15"/>
      <point x="415" y="12" type="qcurve"/>
      <point x="331" y="54"/>
      <point x="203" y="211"/>
      <point x="128" y="436"/>
      <point x="128" y="577" type="qcurve" name="dh01"/>
      <point x="128" y="695"/>
      <point x="179" y="918"/>
      <point x="268" y="1115"/>
      <point x="391" y="1279"/>
      <point x="538" y="1398"/>
      <point x="704" y="1464"/>
      <point x="791" y="1464" type="qcurve" name="at01"/>
      <point x="856" y="1464"/>
      <point x="965" y="1430"/>
      <point x="1055" y="1369"/>
      <point x="1127" y="1285"/>
    </contour>
  </outline>
</glyph>
<glyph name="Eth" format="2">
  <advance width="1128"/>
  <unicode hex="00D0"/>
  <guideline x="47" y="0" angle="90"/>
  <guideline x="39" y="0" angle="80"/>
  <outline>
    <contour>
      <point x="288" y="1434" type="line" name="at01"/>
      <point x="647" y="1434" type="line"/>
      <point x="773" y="1434"/>
      <point x="969" y="1358"/>
      <point x="1103" y="1213"/>
      <point x="1172" y="1003"/>
      <point x="1172" y="870" type="qcurve" name="dh02"/>
      <point x="1172" y="742"/>
      <point x="1118" y="513"/>
      <point x="1021" y="320"/>
      <point x="889" y="165"/>
      <point x="732" y="58"/>
      <point x="557" y="0"/>
      <point x="466" y="0" type="qcurve" name="ab01"/>
      <point x="99" y="0" type="line"/>
      <point x="194" y="717" type="line" name="dv01"/>
      <point x="123" y="717" type="line"/>
      <point x="143" y="859" type="line"/>
      <point x="212" y="859" type="line" name="dv02"/>
    </contour>
    <contour>
      <point x="505" y="1302" type="line" name="sv01"/>
      <point x="446" y="859" type="line" name="sv02"/>
      <point x="704" y="859" type="line"/>
      <point x="686" y="717" type="line" name="sv03"/>
      <point x="428" y="717" type="line"/>
      <point x="350" y="132" type="line" name="sv04"/>
      <point x="462" y="132" type="line"/>
      <point x="534" y="132"/>
      <point x="661" y="191"/>
      <point x="767" y="295"/>
      <point x="850" y="438"/>
      <point x="908" y="603"/>
      <point x="938" y="785"/>
      <point x="938" y="877" type="qcurve" name="dh01"/>
      <point x="938" y="982"/>
      <point x="893" y="1141"/>
      <point x="809" y="1248"/>
      <point x="688" y="1302"/>
      <point x="611" y="1302" type="qcurve"/>
    </contour>
  </outline>
</glyph>
<glyph name="multiply" format="2">
  <advance width="864"/>
  <unicode hex="00D7"/>
  <guideline x="0" y="715" angle="0"/>
  <guideline x="432" y="0" angle="90"/>
  <outline>
    <contour>
      <point x="230" y="854" type="line" name="hr00"/>
      <point x="363" y="1004" type="line" name="at01"/>
      <point x="529" y="735" type="line" name="iv01"/>
      <point x="767" y="1004" type="line" name="at02"/>
      <point x="859" y="854" type="line"/>
      <point x="622" y="585" type="line"/>
      <point x="788" y="316" type="line"/>
      <point x="656" y="166" type="line" name="av01"/>
      <point x="489" y="435" type="line" name="iv02"/>
      <point x="252" y="166" type="line" name="av02"/>
      <point x="159" y="316" type="line"/>
      <point x="397" y="585" type="line"/>
    </contour>
  </outline>
</glyph>
<glyph name="latn:thorn" format="2">
  <advance width="840"/>
  <unicode hex="00FE"/>
  <guideline x="54" y="0" angle="90"/>
  <outline>
    <contour>
      <point x="269" y="1464" type="line" name="hr00"/>
      <point x="439" y="1494" type="line" name="av01"/>
      <point x="484" y="1494" type="line"/>
      <point x="407" y="914" type="line" name="iv01"/>
      <point x="424" y="935"/>
      <point x="468" y="968"/>
      <point x="518" y="992"/>
      <point x="569" y="1004"/>
      <point x="592" y="1004" type="qcurve" name="at01"/>
      <point x="653" y="1004"/>
      <point x="756" y="947"/>
      <point x="830" y="842"/>
      <point x="870" y="695"/>
      <point x="870" y="604" type="qcurve" name="dh02"/>
      <point x="870" y="484"/>
      <point x="810" y="256"/>
      <point x="701" y="78"/>
      <point x="546" y="-30"/>
      <point x="452" y="-30" type="qcurve" name="ab02"/>
      <point x="410" y="-30"/>
      <point x="323" y="9"/>
      <point x="293" y="51" type="qcurve" name="iv02"/>
      <point x="225" y="-460" type="line"/>
      <point x="55" y="-490" type="line" name="ab01"/>
      <point x="10" y="-490" type="line"/>
    </contour>
    <contour>
      <point x="392" y="802" type="qcurve"/>
      <point x="308" y="162" type="line"/>
      <point x="330" y="119"/>
      <point x="386" y="82"/>
      <point x="422" y="82" type="qcurve" name="sv02"/>
      <point x="449" y="82"/>
      <point x="504" y="122"/>
      <point x="557" y="195"/>
      <point x="603" y="295"/>
      <point x="638" y="415"/>
      <point x="659" y="551"/>
      <point x="659" y="622" type="qcurve" name="dh01"/>
      <point x="659" y="683"/>
      <point x="640" y="782"/>
      <point x="607" y="853"/>
      <point x="560" y="892"/>
      <point x="532" y="892" type="qcurve" name="sv01"/>
      <point x="507" y="892"/>
      <point x="464" y="873"/>
      <point x="428" y="846"/>
      <point x="401" y="815"/>
    </contour>
  </outline>
</glyph>
<glyph name="latn:Aogonek" format="2">
  <advance width="1008"/>
  <unicode hex="0104"/>
  <guideline x="996" y="0" angle="90"/>
  <anchor x="680" y="1600" name="AccentAbove"/>
  <anchor x="900" y="1600" name="AccentAboveRight"/>
  <outline>
    <contour>
      <point x="960" y="-270" type="qcurve" name="hr00"/>
      <point x="978" y="-407" type="line"/>
      <point x="943" y="-428"/>
      <point x="886" y="-450"/>
      <point x="852" y="-450" type="qcurve" name="dv01"/>
      <point x="812" y="-450"/>
      <point x="756" y="-423"/>
      <point x="720" y="-376"/>
      <point x="703" y="-315"/>
      <point x="703" y="-280" type="qcurve" name="dh01"/>
      <point x="703" y="-198"/>
      <point x="777" y="-71"/>
      <point x="836" y="-19" type="qcurve"/>
      <point x="748" y="-30" type="line"/>
      <point x="684" y="345" type="line" name="dv03"/>
      <point x="292" y="345" type="line"/>
      <point x="128" y="-30" type="line"/>
      <point x="11" y="0" type="line"/>
      <point x="635" y="1434" type="line"/>
      <point x="747" y="1464" type="line" name="at01"/>
      <point x="996" y="0" type="line"/>
      <point x="969" y="-17"/>
      <point x="908" y="-61"/>
      <point x="858" y="-117"/>
      <point x="824" y="-186"/>
      <point x="824" y="-227" type="qcurve" name="dh02"/>
      <point x="824" y="-265"/>
      <point x="861" y="-308"/>
      <point x="885" y="-308" type="qcurve" name="dv02"/>
      <point x="908" y="-308"/>
      <point x="945" y="-285"/>
    </contour>
    <contour>
      <point x="659" y="487" type="line" name="dv04"/>
      <point x="573" y="992" type="line"/>
      <point x="353" y="487" type="line"/>
    </contour>
  </outline>
</glyph>
<glyph name="latn:aogonek" format="2">
  <advance width="840"/>
  <unicode hex="0105"/>
  <guideline x="812" y="0" angle="80"/>
  <anchor x="580" y="1100" name="AccentAbove"/>
  <anchor x="800" y="1100" name="AccentAboveRight"/>
  <outline>
    <contour>
      <point x="794" y="-407" type="line" name="hr00"/>
      <point x="758" y="-428"/>
      <point x="701" y="-450"/>
      <point x="668" y="-450" type="qcurve" name="dv01"/>
      <point x="628" y="-450"/>
      <point x="572" y="-423"/>
      <point x="536" y="-376"/>
      <point x="518" y="-315"/>
      <point x="518" y="-280" type="qcurve" name="dh03"/>
      <point x="518" y="-198"/>
      <point x="596" y="-69"/>
      <point x="664" y="-9" type="qcurve" name="ih01"/>
      <point x="635" y="2"/>
      <point x="594" y="47"/>
      <point x="581" y="82" type="qcurve" name="ih02"/>
      <point x="559" y="60"/>
      <point x="506" y="20"/>
      <point x="444" y="-11"/>
      <point x="372" y="-30"/>
      <point x="330" y="-30" type="qcurve" name="ab01"/>
      <point x="281" y="-30"/>
      <point x="194" y="0"/>
      <point x="128" y="58"/>
      <point x="90" y="142"/>
      <point x="90" y="196" type="qcurve" name="dh01"/>
      <point x="90" y="295" name="hr01"/>
      <point x="173" y="442"/>
      <point x="319" y="541"/>
      <point x="515" y="594"/>
      <point x="626" y="599" type="qcurve" name="sh02"/>
      <point x="635" y="668" type="line" name="sh04"/>
      <point x="640" y="699"/>
      <point x="640" y="728" type="qcurve" name="sh03"/>
      <point x="640" y="765"/>
      <point x="619" y="826"/>
      <point x="581" y="869"/>
      <point x="529" y="892"/>
      <point x="499" y="892" type="qcurve" name="sv02"/>
      <point x="478" y="892"/>
      <point x="425" y="875"/>
      <point x="367" y="838"/>
      <point x="303" y="780"/>
      <point x="272" y="740" type="qcurve" name="ih03"/>
      <point x="188" y="852" type="line"/>
      <point x="226" y="888"/>
      <point x="309" y="944"/>
      <point x="397" y="983"/>
      <point x="486" y="1004"/>
      <point x="529" y="1004" type="qcurve" name="at01"/>
      <point x="585" y="1004"/>
      <point x="698" y="961"/>
      <point x="788" y="877"/>
      <point x="844" y="755"/>
      <point x="844" y="676" type="qcurve" name="sh01"/>
      <point x="844" y="643"/>
      <point x="839" y="609" type="qcurve" name="sh05"/>
      <point x="779" y="150" type="line"/>
      <point x="778" y="145"/>
      <point x="777" y="136"/>
      <point x="777" y="131" type="qcurve"/>
      <point x="777" y="82"/>
      <point x="824" y="82" type="qcurve" name="sv01"/>
      <point x="809" y="-30" type="line" name="ab02"/>
      <point x="798" y="-30"/>
      <point x="778" y="-30"/>
      <point x="768" y="-29" type="qcurve" name="ab03"/>
      <point x="741" y="-49"/>
      <point x="695" y="-92"/>
      <point x="660" y="-142"/>
      <point x="640" y="-197"/>
      <point x="640" y="-227" type="qcurve" name="dh04"/>
      <point x="640" y="-265"/>
      <point x="677" y="-308"/>
      <point x="701" y="-308" type="qcurve" name="dv02"/>
      <point x="724" y="-308"/>
      <point x="761" y="-284"/>
      <point x="776" y="-270" type="qcurve" name="ih04"/>
    </contour>
    <contour>
      <point x="613" y="497" type="line"/>
      <point x="563" y="491"/>
      <point x="455" y="455"/>
      <point x="366" y="386"/>
      <point x="309" y="281"/>
      <point x="309" y="207" type="qcurve" name="dh02"/>
      <point x="309" y="170"/>
      <point x="327" y="122"/>
      <point x="356" y="93"/>
      <point x="390" y="82"/>
      <point x="406" y="82" type="qcurve" name="sv03"/>
      <point x="427" y="82"/>
      <point x="474" y="102"/>
      <point x="520" y="135"/>
      <point x="560" y="177"/>
      <point x="574" y="199" type="qcurve"/>
    </contour>
  </outline>
</glyph>
<glyph name="latn:Dstroke" format="2">
  <advance width="1128"/>
  <unicode hex="0110"/>
  <outline>
    <contour>
      <point x="288" y="1434" type="line" name="at01"/>
      <point x="644" y="1434" type="line"/>
      <point x="788" y="1434"/>
      <point x="1002" y="1336"/>
      <point x="1135" y="1151"/>
      <point x="1184" y="885"/>
      <point x="1161" y="717" type="qcurve"/>
      <point x="1148" y="619"/>
      <point x="1084" y="436"/>
      <point x="989" y="277"/>
      <point x="865" y="145"/>
      <point x="719" y="52"/>
      <point x="553" y="0"/>
      <point x="463" y="0" type="qcurve" name="ab01"/>
      <point x="99" y="0" type="line"/>
      <point x="194" y="717" type="line" name="sv01"/>
      <point x="117" y="717" type="line" name="iv01"/>
      <point x="154" y="859" type="line" name="sv02"/>
      <point x="212" y="859" type="line"/>
    </contour>
    <contour>
      <point x="505" y="1302" type="line" name="sv03"/>
      <point x="446" y="859" type="line"/>
      <point x="773" y="859" type="line" name="dv02"/>
      <point x="735" y="717" type="line" name="dv01"/>
      <point x="428" y="717" type="line"/>
      <point x="350" y="132" type="line" name="sv04"/>
      <point x="459" y="132" type="line"/>
      <point x="551" y="132"/>
      <point x="705" y="226"/>
      <point x="825" y="386"/>
      <point x="904" y="598"/>
      <point x="920" y="717" type="qcurve"/>
      <point x="938" y="859"/>
      <point x="914" y="1078"/>
      <point x="832" y="1226"/>
      <point x="698" y="1302"/>
      <point x="608" y="1302" type="qcurve"/>
    </contour>
  </outline>
</glyph>
<glyph name="Eogonek" format="2">
  <advance width="816"/>
  <unicode hex="0118"/>
  <guideline x="837" y="0" angle="90"/>
  <guideline x="761" y="0" angle="80"/>
  <anchor x="684" y="1600" name="AccentAbove"/>
  <anchor x="904" y="1600" name="AccentAboveRight"/>
  <outline>
    <contour>
      <point x="706" y="-407" type="line" name="hr00"/>
      <point x="671" y="-428"/>
      <point x="614" y="-450"/>
      <point x="580" y="-450" type="qcurve" name="dv01"/>
      <point x="540" y="-450"/>
      <point x="484" y="-423"/>
      <point x="448" y="-376"/>
      <point x="431" y="-315"/>
      <point x="431" y="-280" type="qcurve" name="dh01"/>
      <point x="431" y="-230"/>
      <point x="458" y="-146"/>
      <point x="503" y="-77"/>
      <point x="560" y="-22"/>
      <point x="587" y="0" type="qcurve" name="ab01"/>
      <point x="98" y="0" type="line"/>
      <point x="287" y="1434" type="line" name="at01"/>
      <point x="927" y="1434" type="line"/>
      <point x="906" y="1272" type="line"/>
      <point x="505" y="1312" type="line"/>
      <point x="445" y="859" type="line" name="sh01"/>
      <point x="775" y="859" type="line" name="dv04"/>
      <point x="755" y="717" type="line" name="dv03"/>
      <point x="426" y="717" type="line" name="sh02"/>
      <point x="347" y="122" type="line"/>
      <point x="782" y="162" type="line"/>
      <point x="761" y="0" type="line" name="ab02"/>
      <point x="724" y="0" type="line"/>
      <point x="697" y="-17"/>
      <point x="636" y="-61"/>
      <point x="586" y="-117"/>
      <point x="552" y="-186"/>
      <point x="552" y="-227" type="qcurve" name="dh02"/>
      <point x="552" y="-265"/>
      <point x="589" y="-308"/>
      <point x="613" y="-308" type="qcurve" name="dv02"/>
      <point x="636" y="-308"/>
      <point x="673" y="-284"/>
      <point x="688" y="-270" type="qcurve"/>
    </contour>
  </outline>
</glyph>
<glyph name="latn:eogonek" format="2">
  <advance width="768"/>
  <unicode hex="0119"/>
  <guideline x="307" y="0" angle="135"/>
  <anchor x="580" y="1100" name="AccentAbove"/>
  <anchor x="800" y="1100" name="AccentAboveRight"/>
  <outline>
    <contour>
      <point x="545" y="-407" type="line" name="hr00"/>
      <point x="509" y="-428"/>
      <point x="452" y="-450"/>
      <point x="419" y="-450" type="qcurve" name="dv01"/>
      <point x="379" y="-450"/>
      <point x="323" y="-423"/>
      <point x="287" y="-376"/>
      <point x="269" y="-315"/>
      <point x="269" y="-280" type="qcurve" name="sh01"/>
      <point x="269" y="-239"/>
      <point x="289" y="-167"/>
      <point x="322" y="-105"/>
      <point x="366" y="-53" name="hr01"/>
      <point x="391" y="-30" type="qcurve" name="ih01"/>
      <point x="330" y="-30"/>
      <point x="226" y="29"/>
      <point x="149" y="136"/>
      <point x="106" y="283"/>
      <point x="106" y="372" type="qcurve" name="dh01"/>
      <point x="106" y="501"/>
      <point x="175" y="731"/>
      <point x="297" y="903"/>
      <point x="464" y="1004"/>
      <point x="560" y="1004" type="qcurve" name="at01"/>
      <point x="606" y="1004"/>
      <point x="695" y="964"/>
      <point x="765" y="875"/>
      <point x="808" y="734"/>
      <point x="808" y="632" type="qcurve" name="dh04"/>
      <point x="808" y="599"/>
      <point x="803" y="527"/>
      <point x="797" y="487" type="qcurve" name="sh02"/>
      <point x="328" y="487" type="line" name="sh03"/>
      <point x="322" y="445"/>
      <point x="317" y="373"/>
      <point x="317" y="341" type="qcurve" name="dh02"/>
      <point x="317" y="268"/>
      <point x="340" y="169"/>
      <point x="378" y="108"/>
      <point x="427" y="82"/>
      <point x="453" y="82" type="qcurve" name="sv01"/>
      <point x="483" y="82"/>
      <point x="536" y="109"/>
      <point x="581" y="152"/>
      <point x="620" y="207"/>
      <point x="637" y="235" type="qcurve" name="ih02"/>
      <point x="722" y="122" type="line"/>
      <point x="686" y="79"/>
      <point x="605" y="17"/>
      <point x="563" y="0" type="qcurve"/>
      <point x="536" y="-16"/>
      <point x="476" y="-58"/>
      <point x="425" y="-113"/>
      <point x="391" y="-183"/>
      <point x="391" y="-227" type="qcurve" name="sh05"/>
      <point x="391" y="-265"/>
      <point x="428" y="-308"/>
      <point x="452" y="-308" type="qcurve" name="dv02"/>
      <point x="475" y="-308"/>
      <point x="512" y="-284"/>
      <point x="527" y="-270" type="qcurve" name="ih03"/>
    </contour>
    <contour>
      <point x="538" y="892" type="qcurve" name="sv02"/>
      <point x="507" y="892"/>
      <point x="449" y="855"/>
      <point x="397" y="781"/>
      <point x="356" y="671"/>
      <point x="343" y="599" type="qcurve"/>
      <point x="631" y="599" type="line" name="sh04"/>
      <point x="635" y="630"/>
      <point x="639" y="684"/>
      <point x="639" y="708" type="qcurve" name="dh03"/>
      <point x="639" y="756"/>
      <point x="623" y="826"/>
      <point x="596" y="871"/>
      <point x="560" y="892"/>
    </contour>
  </outline>
</glyph>
<glyph name="latn:Hstroke" format="2">
  <advance width="1128"/>
  <unicode hex="0126"/>
  <guideline x="24" y="0" angle="90"/>
  <guideline x="-117" y="0" angle="80"/>
  <guideline x="1104" y="0" angle="80"/>
  <outline>
    <contour>
      <point x="288" y="1434" type="line" name="hr00"/>
      <point x="527" y="1464" type="line" name="at01"/>
      <point x="485" y="1146" type="line" name="sv01"/>
      <point x="947" y="1146" type="line"/>
      <point x="984" y="1434" type="line"/>
      <point x="1223" y="1464" type="line" name="at02"/>
      <point x="1181" y="1146" type="line"/>
      <point x="1256" y="1146" type="line" name="dv02"/>
      <point x="1237" y="1004" type="line" name="dv01"/>
      <point x="1162" y="1004" type="line"/>
      <point x="1029" y="0" type="line" name="ab01"/>
      <point x="795" y="0" type="line"/>
      <point x="871" y="575" type="line" name="dv03"/>
      <point x="409" y="575" type="line"/>
      <point x="333" y="0" type="line" name="ab02"/>
      <point x="99" y="0" type="line"/>
      <point x="232" y="1004" type="line" name="sv02"/>
      <point x="157" y="1004" type="line"/>
      <point x="176" y="1146" type="line" name="sv03"/>
      <point x="251" y="1146" type="line"/>
    </contour>
    <contour>
      <point x="890" y="717" type="line" name="dv04"/>
      <point x="928" y="1004" type="line" name="sv04"/>
      <point x="466" y="1004" type="line"/>
      <point x="428" y="717" type="line"/>
    </contour>
  </outline>
</glyph>
<glyph name="hbar" format="2">
  <advance width="840"/>
  <unicode hex="0127"/>
  <guideline x="-20" y="0" angle="80"/>
  <guideline x="436" y="0" angle="80"/>
  <outline>
    <contour>
      <point x="269" y="1464" type="line" name="hr00"/>
      <point x="439" y="1494" type="line" name="av01"/>
      <point x="484" y="1494" type="line"/>
      <point x="455" y="1272" type="line"/>
      <point x="604" y="1272" type="line"/>
      <point x="585" y="1133" type="line"/>
      <point x="437" y="1142" type="line"/>
      <point x="409" y="925" type="line" name="iv01"/>
      <point x="454" y="963"/>
      <point x="561" y="1004"/>
      <point x="620" y="1004" type="qcurve" name="at01"/>
      <point x="674" y="1004"/>
      <point x="760" y="970"/>
      <point x="821" y="904"/>
      <point x="853" y="809"/>
      <point x="853" y="748" type="qcurve" name="dh02"/>
      <point x="853" y="716"/>
      <point x="848" y="680" type="qcurve" name="sh01"/>
      <point x="782" y="172" type="line"/>
      <point x="780" y="161"/>
      <point x="777" y="138"/>
      <point x="777" y="130" type="qcurve"/>
      <point x="777" y="107"/>
      <point x="798" y="82"/>
      <point x="824" y="82" type="qcurve"/>
      <point x="809" y="-30" type="line" name="ab01"/>
      <point x="767" y="-30"/>
      <point x="683" y="-7"/>
      <point x="615" y="42"/>
      <point x="573" y="121"/>
      <point x="573" y="177" type="qcurve"/>
      <point x="573" y="193"/>
      <point x="577" y="227"/>
      <point x="580" y="247" type="qcurve"/>
      <point x="643" y="724" type="line" name="sh02"/>
      <point x="645" y="740"/>
      <point x="645" y="755" type="qcurve" name="dh01"/>
      <point x="645" y="787"/>
      <point x="629" y="838"/>
      <point x="602" y="873"/>
      <point x="568" y="892"/>
      <point x="551" y="892" type="qcurve" name="sv01"/>
      <point x="526" y="892"/>
      <point x="480" y="875"/>
      <point x="439" y="846"/>
      <point x="404" y="811"/>
      <point x="391" y="793" type="qcurve"/>
      <point x="287" y="0" type="line" name="ab02"/>
      <point x="75" y="0" type="line"/>
      <point x="227" y="1154" type="line"/>
      <point x="134" y="1160" type="line"/>
      <point x="149" y="1272" type="line"/>
      <point x="243" y="1272" type="line"/>
    </contour>
  </outline>
</glyph>
<glyph name="Iogonek" format="2">
  <advance width="432"/>
  <unicode hex="012E"/>
  <anchor x="418" y="1600" name="AccentAbove"/>
  <anchor x="438" y="1600" name="AccentAboveRight"/>
  <outline>
    <contour>
      <point x="315" y="-407" type="line" name="hr00"/>
      <point x="280" y="-428"/>
      <point x="223" y="-450"/>
      <point x="189" y="-450" type="qcurve" name="dv01"/>
      <point x="149" y="-450"/>
      <point x="93" y="-423"/>
      <point x="57" y="-376"/>
      <point x="40" y="-315"/>
      <point x="40" y="-280" type="qcurve" name="dh01"/>
      <point x="40" y="-230"/>
      <point x="68" y="-146"/>
      <point x="113" y="-77"/>
      <point x="169" y="-22"/>
      <point x="197" y="0" type="qcurve" name="ab01"/>
      <point x="99" y="0" type="line"/>
      <point x="288" y="1434" type="line"/>
      <point x="527" y="1464" type="line" name="at01"/>
      <point x="333" y="0" type="line" name="ab02"/>
      <point x="306" y="-17"/>
      <point x="245" y="-61"/>
      <point x="195" y="-117"/>
      <point x="161" y="-186"/>
      <point x="161" y="-227" type="qcurve" name="dh02"/>
      <point x="161" y="-265"/>
      <point x="198" y="-308"/>
      <point x="222" y="-308" type="qcurve" name="dv02"/>
      <point x="245" y="-308"/>
      <point x="282" y="-284"/>
      <point x="297" y="-270" type="qcurve"/>
    </contour>
  </outline>
</glyph>
<glyph name="lslash" format="2">
  <advance width="432"/>
  <unicode hex="0142"/>
  <guideline x="0" y="476" angle="30"/>
  <guideline x="0" y="694" angle="30"/>
  <outline>
    <contour>
      <point x="510" y="1494" type="line" name="av01"/>
      <point x="435" y="927" type="line" name="iv01"/>
      <point x="535" y="1004" type="line" name="iv02"/>
      <point x="535" y="813" type="line"/>
      <point x="407" y="714" type="line"/>
      <point x="348" y="269" type="line"/>
      <point x="344" y="233"/>
      <point x="344" y="204" type="qcurve"/>
      <point x="344" y="173"/>
      <point x="359" y="127"/>
      <point x="386" y="97"/>
      <point x="422" y="82"/>
      <point x="443" y="82" type="qcurve"/>
      <point x="428" y="-30" type="line" name="ab01"/>
      <point x="343" y="-30"/>
      <point x="230" y="-3"/>
      <point x="164" y="54"/>
      <point x="136" y="142"/>
      <point x="136" y="203" type="qcurve"/>
      <point x="136" y="233"/>
      <point x="141" y="303"/>
      <point x="146" y="342" type="qcurve"/>
      <point x="172" y="533" type="line" name="iv03"/>
      <point x="72" y="457" type="line" name="iv04"/>
      <point x="72" y="648" type="line"/>
      <point x="200" y="746" type="line"/>
      <point x="295" y="1464" type="line"/>
      <point x="465" y="1494" type="line"/>
    </contour>
  </outline>
</glyph>
<glyph name="latn:Eng" format="2">
  <advance width="1128"/>
  <unicode hex="014A"/>
  <guideline x="809" y="0" angle="80"/>
  <outline>
    <contour>
      <point x="285" y="1434" type="line" name="hr00"/>
      <point x="411" y="1464" type="line" name="at01"/>
      <point x="968" y="437" type="line" name="iv01"/>
      <point x="1106" y="1464" type="line" name="at02"/>
      <point x="1223" y="1434" type="line"/>
      <point x="1023" y="-76" type="line"/>
      <point x="1010" y="-177"/>
      <point x="973" y="-331"/>
      <point x="911" y="-436"/>
      <point x="816" y="-490"/>
      <point x="744" y="-490" type="qcurve" name="ab01"/>
      <point x="759" y="-378" type="line"/>
      <point x="860" y="-378"/>
      <point x="885" y="-191" type="qcurve"/>
      <point x="911" y="0" type="line" name="ab02"/>
      <point x="353" y="1026" type="line" name="iv02"/>
      <point x="218" y="0" type="line" name="ab03"/>
      <point x="96" y="0" type="line"/>
    </contour>
  </outline>
</glyph>
<glyph name="latn:eng" format="2">
  <advance width="840"/>
  <unicode hex="014B"/>
  <outline>
    <contour>
      <point x="200" y="944" type="line" name="hr00"/>
      <point x="370" y="974" type="line" name="at01"/>
      <point x="415" y="974" type="line"/>
      <point x="404" y="892" type="line" name="iv01"/>
      <point x="427" y="914"/>
      <point x="480" y="955"/>
      <point x="538" y="986"/>
      <point x="598" y="1004"/>
      <point x="627" y="1004" type="qcurve" name="at02"/>
      <point x="680" y="1004"/>
      <point x="764" y="970"/>
      <point x="823" y="906"/>
      <point x="854" y="813"/>
      <point x="854" y="753" type="qcurve" name="dh02"/>
      <point x="854" y="736" name="hr01"/>
      <point x="851" y="700"/>
      <point x="848" y="680" type="qcurve" name="sh01"/>
      <point x="749" y="-76" type="line"/>
      <point x="732" y="-199"/>
      <point x="680" y="-359"/>
      <point x="595" y="-453"/>
      <point x="470" y="-490"/>
      <point x="381" y="-490" type="qcurve" name="ab01"/>
      <point x="396" y="-378" type="line"/>
      <point x="427" y="-378"/>
      <point x="468" y="-363"/>
      <point x="496" y="-322"/>
      <point x="515" y="-249"/>
      <point x="522" y="-191" type="qcurve"/>
      <point x="643" y="724" type="line" name="sh02"/>
      <point x="644" y="738"/>
      <point x="647" y="764"/>
      <point x="647" y="776" type="qcurve" name="dh01"/>
      <point x="647" y="831"/>
      <point x="602" y="892"/>
      <point x="560" y="892" type="qcurve" name="sv01"/>
      <point x="536" y="892"/>
      <point x="485" y="868"/>
      <point x="439" y="832"/>
      <point x="401" y="789"/>
      <point x="388" y="770" type="qcurve"/>
      <point x="287" y="0" type="line" name="ab02"/>
      <point x="75" y="0" type="line"/>
    </contour>
  </outline>
</glyph>
<glyph name="latn:OE" format="2">
  <advance width="1416"/>
  <unicode hex="0152"/>
  <outline>
    <contour>
      <point x="598" y="-30" type="qcurve" name="ab02"/>
      <point x="505" y="-30"/>
      <point x="338" y="53"/>
      <point x="212" y="209"/>
      <point x="138" y="433"/>
      <point x="138" y="574" type="qcurve" name="dh01"/>
      <point x="138" y="691"/>
      <point x="187" y="915" name="hr00"/>
      <point x="275" y="1113"/>
      <point x="398" y="1278"/>
      <point x="543" y="1397"/>
      <point x="709" y="1464"/>
      <point x="796" y="1464" type="qcurve" name="at02"/>
      <point x="835" y="1464"/>
      <point x="915" y="1448"/>
      <point x="951" y="1434" type="qcurve" name="at01"/>
      <point x="1529" y="1434" type="line"/>
      <point x="1509" y="1272" type="line"/>
      <point x="1107" y="1312" type="line" name="sv01"/>
      <point x="1047" y="859" type="line" name="hr01"/>
      <point x="1377" y="859" type="line" name="dv02"/>
      <point x="1358" y="717" type="line" name="dv01"/>
      <point x="1028" y="717" type="line"/>
      <point x="950" y="122" type="line" name="sv02"/>
      <point x="1383" y="162" type="line"/>
      <point x="1363" y="0" type="line" name="ab01"/>
      <point x="762" y="0" type="line"/>
      <point x="722" y="-15"/>
      <point x="638" y="-30"/>
    </contour>
    <contour>
      <point x="777" y="1322" type="qcurve" name="sv03"/>
      <point x="722" y="1322"/>
      <point x="619" y="1261"/>
      <point x="529" y="1153"/>
      <point x="455" y="1003"/>
      <point x="401" y="826"/>
      <point x="372" y="627"/>
      <point x="372" y="524" type="qcurve" name="dh02"/>
      <point x="372" y="422"/>
      <point x="408" y="267"/>
      <point x="473" y="164"/>
      <point x="563" y="112"/>
      <point x="617" y="112" type="qcurve" name="sv04"/>
      <point x="671" y="112"/>
      <point x="718" y="137" type="qcurve"/>
      <point x="872" y="1301" type="line"/>
      <point x="849" y="1314"/>
      <point x="802" y="1322"/>
    </contour>
  </outline>
</glyph>
<glyph name="oe" format="2">
  <advance width="1368"/>
  <unicode hex="0153"/>
  <outline>
    <contour>
      <point x="1025" y="82" type="qcurve" name="sv01"/>
      <point x="1055" y="82"/>
      <point x="1111" y="109"/>
      <point x="1160" y="152"/>
      <point x="1201" y="206"/>
      <point x="1217" y="234" type="qcurve" name="ih01"/>
      <point x="1287" y="122" type="line"/>
      <point x="1261" y="90"/>
      <point x="1197" y="34"/>
      <point x="1123" y="-7"/>
      <point x="1037" y="-30"/>
      <point x="988" y="-30" type="qcurve" name="ab01"/>
      <point x="904" y="-30"/>
      <point x="772" y="42"/>
      <point x="733" y="108" type="qcurve" name="ih02"/>
      <point x="674" y="42"/>
      <point x="522" y="-30"/>
      <point x="436" y="-30" type="qcurve" name="ab02"/>
      <point x="359" y="-30"/>
      <point x="241" y="29"/>
      <point x="160" y="135"/>
      <point x="118" y="285"/>
      <point x="118" y="375" type="qcurve" name="dh01"/>
      <point x="118" y="461"/>
      <point x="149" y="622"/>
      <point x="208" y="761"/>
      <point x="290" y="876"/>
      <point x="391" y="959"/>
      <point x="509" y="1004"/>
      <point x="573" y="1004" type="qcurve" name="at01"/>
      <point x="659" y="1004"/>
      <point x="794" y="929"/>
      <point x="835" y="863" type="qcurve" name="ih03"/>
      <point x="893" y="929"/>
      <point x="1046" y="1004"/>
      <point x="1133" y="1004" type="qcurve" name="at02"/>
      <point x="1179" y="1004"/>
      <point x="1268" y="964"/>
      <point x="1338" y="875"/>
      <point x="1381" y="734"/>
      <point x="1381" y="632" type="qcurve" name="dh06"/>
      <point x="1381" y="599"/>
      <point x="1376" y="527"/>
      <point x="1370" y="487" type="qcurve" name="sh01"/>
      <point x="890" y="487" type="line"/>
      <point x="884" y="448"/>
      <point x="880" y="379"/>
      <point x="880" y="348" type="qcurve" name="dh04"/>
      <point x="880" y="273"/>
      <point x="905" y="171"/>
      <point x="947" y="109"/>
      <point x="999" y="82"/>
    </contour>
    <contour>
      <point x="558" y="892" type="qcurve" name="sv02"/>
      <point x="524" y="892"/>
      <point x="464" y="842"/>
      <point x="415" y="757"/>
      <point x="377" y="644"/>
      <point x="350" y="518"/>
      <point x="337" y="384"/>
      <point x="337" y="322" type="qcurve" name="dh02"/>
      <point x="337" y="207"/>
      <point x="392" y="82"/>
      <point x="451" y="82" type="qcurve" name="sv03"/>
      <point x="485" y="82"/>
      <point x="545" y="129"/>
      <point x="597" y="211"/>
      <point x="638" y="320"/>
      <point x="668" y="444"/>
      <point x="683" y="576"/>
      <point x="683" y="639" type="qcurve" name="dh03"/>
      <point x="683" y="760"/>
      <point x="619" y="892"/>
    </contour>
    <contour>
      <point x="1110" y="892" type="qcurve" name="sv04"/>
      <point x="1080" y="892"/>
      <point x="1016" y="855"/>
      <point x="959" y="781"/>
      <point x="914" y="671"/>
      <point x="905" y="599" type="qcurve"/>
      <point x="1206" y="599" type="line" name="sh02"/>
      <point x="1210" y="630"/>
      <point x="1214" y="684"/>
      <point x="1214" y="708" type="qcurve" name="dh05"/>
      <point x="1214" y="756"/>
      <point x="1198" y="826"/>
      <point x="1170" y="871"/>
      <point x="1132" y="892"/>
    </contour>
  </outline>
</glyph>
<glyph name="latn:Tcedilla" format="2">
  <advance width="864"/>
  <unicode hex="0162"/>
  <guideline x="464" y="0" angle="90"/>
  <outline>
    <contour>
      <point x="212" y="1434" type="line" name="at01"/>
      <point x="1031" y="1434" type="line"/>
      <point x="1010" y="1272" type="line"/>
      <point x="722" y="1312" type="line"/>
      <point x="549" y="0" type="line" name="ab01"/>
      <point x="444" y="0" type="line"/>
      <point x="434" y="-72" type="line"/>
      <point x="450" y="-75"/>
      <point x="485" y="-98"/>
      <point x="514" y="-137"/>
      <point x="533" y="-195"/>
      <point x="533" y="-232" type="qcurve" name="dh02"/>
      <point x="533" y="-295"/>
      <point x="491" y="-391"/>
      <point x="425" y="-456"/>
      <point x="342" y="-490"/>
      <point x="302" y="-490" type="qcurve" name="ab02"/>
      <point x="265" y="-490"/>
      <point x="209" y="-465"/>
      <point x="167" y="-428"/>
      <point x="140" y="-386"/>
      <point x="132" y="-368" type="qcurve"/>
      <point x="206" y="-270" type="line" name="iv01"/>
      <point x="219" y="-315"/>
      <point x="258" y="-368"/>
      <point x="287" y="-368" type="qcurve" name="sv01"/>
      <point x="309" y="-368"/>
      <point x="345" y="-348"/>
      <point x="369" y="-314"/>
      <point x="382" y="-268"/>
      <point x="382" y="-242" type="qcurve" name="dh01"/>
      <point x="382" y="-195"/>
      <point x="340" y="-123"/>
      <point x="301" y="-115" type="qcurve"/>
      <point x="488" y="1313" type="line" name="ih01"/>
      <point x="190" y="1272" type="line" name="iv02"/>
    </contour>
  </outline>
</glyph>
<glyph name="latn:Uogonek" format="2">
  <advance width="1128"/>
  <unicode hex="0172"/>
  <guideline x="0" y="465" angle="0"/>
  <guideline x="935" y="0" angle="90"/>
  <anchor x="830" y="1600" name="AccentAbove"/>
  <anchor x="1050" y="1600" name="AccentAboveRight"/>
  <outline>
    <contour>
      <point x="735" y="-407" type="line" name="hr00"/>
      <point x="700" y="-428"/>
      <point x="643" y="-450"/>
      <point x="609" y="-450" type="qcurve" name="dv01"/>
      <point x="569" y="-450"/>
      <point x="513" y="-423"/>
      <point x="477" y="-376"/>
      <point x="460" y="-315"/>
      <point x="460" y="-280" type="qcurve" name="dh03"/>
      <point x="460" y="-239"/>
      <point x="479" y="-167"/>
      <point x="512" y="-105"/>
      <point x="556" y="-52"/>
      <point x="581" y="-30" type="qcurve" name="ab01"/>
      <point x="494" y="-30"/>
      <point x="344" y="28"/>
      <point x="233" y="147"/>
      <point x="169" y="326"/>
      <point x="169" y="446" type="qcurve" name="dh01"/>
      <point x="169" y="507"/>
      <point x="178" y="578" type="qcurve" name="sh01"/>
      <point x="291" y="1434" type="line"/>
      <point x="530" y="1464" type="line" name="at01"/>
      <point x="402" y="500" type="line" name="sh02"/>
      <point x="397" y="465"/>
      <point x="397" y="422" type="qcurve" name="dh02"/>
      <point x="397" y="345"/>
      <point x="437" y="229"/>
      <point x="506" y="151"/>
      <point x="593" y="112"/>
      <point x="641" y="112" type="qcurve" name="sv01"/>
      <point x="707" y="112"/>
      <point x="818" y="171"/>
      <point x="904" y="280"/>
      <point x="962" y="435"/>
      <point x="974" y="530" type="qcurve"/>
      <point x="1098" y="1464" type="line" name="at02"/>
      <point x="1215" y="1434" type="line"/>
      <point x="1101" y="568" type="line"/>
      <point x="1088" y="469"/>
      <point x="1031" y="289"/>
      <point x="944" y="140"/>
      <point x="826" y="30"/>
      <point x="753" y="0" type="qcurve"/>
      <point x="726" y="-17"/>
      <point x="665" y="-61"/>
      <point x="615" y="-117"/>
      <point x="581" y="-186"/>
      <point x="581" y="-227" type="qcurve" name="dh04"/>
      <point x="581" y="-265"/>
      <point x="618" y="-308"/>
      <point x="642" y="-308" type="qcurve" name="dv02"/>
      <point x="665" y="-308"/>
      <point x="702" y="-284"/>
      <point x="717" y="-270" type="qcurve"/>
    </contour>
  </outline>
</glyph>
<glyph name="uogonek" format="2">
  <advance width="840"/>
  <unicode hex="0173"/>
  <guideline x="812" y="0" angle="80"/>
  <anchor x="580" y="1100" name="AccentAbove"/>
  <anchor x="800" y="1100" name="AccentAboveRight"/>
  <outline>
    <contour>
      <point x="794" y="-407" type="line" name="hr00"/>
      <point x="759" y="-428"/>
      <point x="702" y="-450"/>
      <point x="668" y="-450" type="qcurve" name="dv01"/>
      <point x="629" y="-450"/>
      <point x="572" y="-423"/>
      <point x="536" y="-376"/>
      <point x="519" y="-315"/>
      <point x="519" y="-280" type="qcurve" name="dh03"/>
      <point x="519" y="-198"/>
      <point x="596" y="-69"/>
      <point x="664" y="-9" type="qcurve" name="iv01"/>
      <point x="632" y="5"/>
      <point x="593" y="49"/>
      <point x="581" y="82" type="qcurve" name="ih01"/>
      <point x="560" y="62"/>
      <point x="509" y="22"/>
      <point x="448" y="-10"/>
      <point x="379" y="-30"/>
      <point x="342" y="-30" type="qcurve" name="ab01"/>
      <point x="293" y="-30"/>
      <point x="209" y="-1"/>
      <point x="146" y="60"/>
      <point x="110" y="157"/>
      <point x="110" y="226" type="qcurve" name="dh01"/>
      <point x="110" y="259"/>
      <point x="114" y="298" type="qcurve" name="sh01"/>
      <point x="203" y="974" type="line"/>
      <point x="374" y="1004" type="line" name="at01"/>
      <point x="419" y="1004" type="line"/>
      <point x="320" y="258" type="line" name="sh02"/>
      <point x="316" y="223"/>
      <point x="316" y="198" type="qcurve" name="dh02"/>
      <point x="316" y="163"/>
      <point x="329" y="118"/>
      <point x="351" y="92"/>
      <point x="377" y="82"/>
      <point x="389" y="82" type="qcurve" name="sv01"/>
      <point x="416" y="82"/>
      <point x="468" y="100"/>
      <point x="516" y="131"/>
      <point x="558" y="174"/>
      <point x="574" y="199" type="qcurve"/>
      <point x="676" y="974" type="line"/>
      <point x="847" y="1004" type="line" name="at02"/>
      <point x="892" y="1004" type="line"/>
      <point x="781" y="165" type="line"/>
      <point x="777" y="145"/>
      <point x="777" y="130" type="qcurve"/>
      <point x="777" y="106"/>
      <point x="799" y="82"/>
      <point x="824" y="82" type="qcurve" name="sv02"/>
      <point x="809" y="-30" type="line" name="ab02"/>
      <point x="798" y="-30"/>
      <point x="778" y="-30"/>
      <point x="768" y="-29" type="qcurve" name="ab03"/>
      <point x="741" y="-49"/>
      <point x="695" y="-92"/>
      <point x="660" y="-142"/>
      <point x="641" y="-197"/>
      <point x="641" y="-227" type="qcurve" name="dh04"/>
      <point x="641" y="-265"/>
      <point x="677" y="-308"/>
      <point x="701" y="-308" type="qcurve" name="dv02"/>
      <point x="725" y="-308"/>
      <point x="761" y="-284"/>
      <point x="776" y="-270" type="qcurve"/>
    </contour>
  </outline>
</glyph>
<glyph name="latn:longs" format="2">
  <advance width="432"/>
  <unicode hex="017F"/>
  <guideline x="253" y="0" angle="80"/>
  <guideline x="447" y="0" angle="90"/>
  <outline>
    <contour>
      <point x="313" y="0" type="line" name="ab01"/>
      <point x="101" y="0" type="line"/>
      <point x="235" y="1012" type="line"/>
      <point x="248" y="1114"/>
      <point x="299" y="1281"/>
      <point x="391" y="1399"/>
      <point x="534" y="1464"/>
      <point x="641" y="1464" type="qcurve" name="at01"/>
      <point x="626" y="1352" type="line" name="sv01"/>
      <point x="585" y="1352"/>
      <point x="528" y="1315"/>
      <point x="490" y="1252"/>
      <point x="467" y="1168"/>
      <point x="461" y="1120" type="qcurve"/>
    </contour>
  </outline>
</glyph>
<glyph name="uni019E" format="2">
  <advance width="840"/>
  <unicode hex="019E"/>
  <outline>
    <contour>
      <point x="200" y="944" type="line" name="hr00"/>
      <point x="370" y="974" type="line" name="at01"/>
      <point x="415" y="974" type="line"/>
      <point x="404" y="892" type="line" name="iv01"/>
      <point x="427" y="914"/>
      <point x="480" y="955"/>
      <point x="538" y="986"/>
      <point x="598" y="1004"/>
      <point x="627" y="1004" type="qcurve" name="at02"/>
      <point x="680" y="1004"/>
      <point x="764" y="970"/>
      <point x="823" y="906"/>
      <point x="854" y="812"/>
      <point x="854" y="752" type="qcurve" name="dh02"/>
      <point x="854" y="733"/>
      <point x="851" y="697"/>
      <point x="848" y="680" type="qcurve" name="sh01"/>
      <point x="698" y="-460" type="line"/>
      <point x="527" y="-490" type="line" name="ab01"/>
      <point x="482" y="-490" type="line"/>
      <point x="643" y="724" type="line" name="sh02"/>
      <point x="644" y="738"/>
      <point x="647" y="764"/>
      <point x="647" y="776" type="qcurve" name="dh01"/>
      <point x="647" y="827"/>
      <point x="599" y="892"/>
      <point x="558" y="892" type="qcurve" name="sv01"/>
      <point x="533" y="892"/>
      <point x="483" y="868"/>
      <point x="438" y="832"/>
      <point x="401" y="789"/>
      <point x="388" y="770" type="qcurve"/>
      <point x="287" y="0" type="line" name="ab02"/>
      <point x="75" y="0" type="line"/>
    </contour>
  </outline>
</glyph>
<glyph name="latn:aturned" format="2">
  <advance width="768"/>
  <unicode hex="0250"/>
  <outline>
    <contour>
      <point x="172" y="1004" type="line" name="at01"/>
      <point x="236" y="1004"/>
      <point x="317" y="981"/>
      <point x="367" y="946"/>
      <point x="391" y="903"/>
      <point x="398" y="882" type="qcurve" name="ih01"/>
      <point x="434" y="933"/>
      <point x="553" y="1004"/>
      <point x="637" y="1004" type="qcurve" name="sh03"/>
      <point x="685" y="1004"/>
      <point x="762" y="970"/>
      <point x="816" y="908"/>
      <point x="845" y="821"/>
      <point x="845" y="768" type="qcurve" name="sh02"/>
      <point x="845" y="668"/>
      <point x="776" y="515"/>
      <point x="647" y="412"/>
      <point x="464" y="359"/>
      <point x="352" y="359" type="qcurve"/>
      <point x="338" y="256" type="line" name="sh05"/>
      <point x="335" y="237"/>
      <point x="335" y="218" type="qcurve" name="sh04"/>
      <point x="335" y="180"/>
      <point x="356" y="128"/>
      <point x="389" y="96"/>
      <point x="428" y="82"/>
      <point x="446" y="82" type="qcurve" name="sv01"/>
      <point x="467" y="82"/>
      <point x="514" y="98"/>
      <point x="565" y="134"/>
      <point x="618" y="192"/>
      <point x="644" y="234" type="qcurve" name="ih02"/>
      <point x="728" y="122" type="line"/>
      <point x="582" y="-30"/>
      <point x="408" y="-30" type="qcurve" name="ab01"/>
      <point x="351" y="-30"/>
      <point x="251" y="7"/>
      <point x="177" y="82"/>
      <point x="134" y="195"/>
      <point x="134" y="272" type="qcurve" name="sh01"/>
      <point x="134" y="306"/>
      <point x="138" y="345" type="qcurve" name="sh06"/>
      <point x="202" y="824" type="line"/>
      <point x="203" y="829"/>
      <point x="203" y="838"/>
      <point x="203" y="843" type="qcurve"/>
      <point x="203" y="867"/>
      <point x="182" y="892"/>
      <point x="157" y="892" type="qcurve" name="sv02"/>
    </contour>
    <contour>
      <point x="365" y="461" type="line" name="ih03"/>
      <point x="418" y="468"/>
      <point x="513" y="513"/>
      <point x="584" y="591"/>
      <point x="626" y="701"/>
      <point x="626" y="772" type="qcurve" name="ah01"/>
      <point x="626" y="829"/>
      <point x="590" y="892"/>
      <point x="560" y="892" type="qcurve" name="sv03"/>
      <point x="533" y="892"/>
      <point x="486" y="872"/>
      <point x="448" y="840"/>
      <point x="418" y="799"/>
      <point x="407" y="777" type="qcurve"/>
    </contour>
  </outline>
</glyph>
<glyph name="latn:alpha" format="2">
  <advance width="840"/>
  <unicode hex="0251"/>
  <outline>
    <contour>
      <point x="898" y="1004" type="line" name="at01"/>
      <point x="785" y="156" type="line"/>
      <point x="785" y="149"/>
      <point x="784" y="136"/>
      <point x="784" y="131" type="qcurve"/>
      <point x="784" y="107"/>
      <point x="803" y="82"/>
      <point x="830" y="82" type="qcurve" name="sv01"/>
      <point x="815" y="-30" type="line" name="ab01"/>
      <point x="761" y="-30"/>
      <point x="683" y="-17"/>
      <point x="629" y="11"/>
      <point x="596" y="53"/>
      <point x="587" y="82" type="qcurve" name="iv01"/>
      <point x="569" y="59"/>
      <point x="523" y="18"/>
      <point x="470" y="-12"/>
      <point x="415" y="-30"/>
      <point x="388" y="-30" type="qcurve" name="ab02"/>
      <point x="324" y="-30"/>
      <point x="218" y="25"/>
      <point x="141" y="129"/>
      <point x="98" y="279"/>
      <point x="98" y="375" type="qcurve" name="dh01"/>
      <point x="98" y="455"/>
      <point x="128" y="611"/>
      <point x="182" y="751"/>
      <point x="258" y="869"/>
      <point x="353" y="955"/>
      <point x="464" y="1004"/>
      <point x="526" y="1004" type="qcurve" name="at02"/>
      <point x="545" y="1004"/>
      <point x="587" y="992"/>
      <point x="626" y="972"/>
      <point x="662" y="945"/>
      <point x="677" y="931" type="qcurve"/>
      <point x="853" y="1004" type="line"/>
    </contour>
    <contour>
      <point x="662" y="822" type="line"/>
      <point x="642" y="855"/>
      <point x="584" y="892"/>
      <point x="539" y="892" type="qcurve" name="sv02"/>
      <point x="505" y="892"/>
      <point x="445" y="842"/>
      <point x="395" y="758"/>
      <point x="357" y="645"/>
      <point x="331" y="520"/>
      <point x="317" y="388"/>
      <point x="317" y="327" type="qcurve" name="dh02"/>
      <point x="317" y="264"/>
      <point x="337" y="172"/>
      <point x="371" y="111"/>
      <point x="417" y="82"/>
      <point x="444" y="82" type="qcurve" name="sv03"/>
      <point x="467" y="82"/>
      <point x="504" y="93"/>
      <point x="536" y="113"/>
      <point x="562" y="138"/>
      <point x="574" y="153" type="qcurve"/>
    </contour>
  </outline>
</glyph>
<glyph name="uni0252" format="2">
  <advance width="840"/>
  <unicode hex="0252"/>
  <outline>
    <contour>
      <point x="152" y="1004" type="line" name="at01"/>
      <point x="206" y="1004"/>
      <point x="284" y="991"/>
      <point x="338" y="963"/>
      <point x="371" y="921"/>
      <point x="380" y="892" type="qcurve" name="iv01"/>
      <point x="398" y="917"/>
      <point x="446" y="959"/>
      <point x="497" y="988"/>
      <point x="552" y="1004" name="hr00"/>
      <point x="579" y="1004" type="qcurve" name="at02"/>
      <point x="642" y="1004"/>
      <point x="749" y="950" name="hr01"/>
      <point x="826" y="846"/>
      <point x="869" y="697"/>
      <point x="869" y="602" type="qcurve" name="dh02"/>
      <point x="869" y="481"/>
      <point x="804" y="254"/>
      <point x="689" y="77"/>
      <point x="529" y="-30"/>
      <point x="434" y="-30" type="qcurve" name="ab02"/>
      <point x="411" y="-30"/>
      <point x="364" y="-18"/>
      <point x="320" y="2"/>
      <point x="281" y="27"/>
      <point x="268" y="40" type="qcurve" name="iv02"/>
      <point x="263" y="0" type="line" name="ab01"/>
      <point x="74" y="0" type="line"/>
      <point x="182" y="818" type="line"/>
      <point x="182" y="825"/>
      <point x="183" y="838"/>
      <point x="183" y="843" type="qcurve"/>
      <point x="183" y="867"/>
      <point x="164" y="892"/>
      <point x="137" y="892" type="qcurve" name="sv02"/>
    </contour>
    <contour>
      <point x="393" y="821" type="qcurve"/>
      <point x="306" y="163" type="line"/>
      <point x="327" y="126"/>
      <point x="383" y="82"/>
      <point x="428" y="82" type="qcurve" name="sv01"/>
      <point x="463" y="82"/>
      <point x="523" y="132"/>
      <point x="572" y="218"/>
      <point x="611" y="332"/>
      <point x="636" y="459"/>
      <point x="650" y="591"/>
      <point x="650" y="652" type="qcurve" name="dh01"/>
      <point x="650" y="765"/>
      <point x="584" y="892"/>
      <point x="527" y="892" type="qcurve" name="sv03"/>
      <point x="502" y="892"/>
      <point x="462" y="881"/>
      <point x="431" y="861"/>
      <point x="405" y="836"/>
    </contour>
  </outline>
</glyph>
<glyph name="uni0253" format="2">
  <advance width="840"/>
  <unicode hex="0253"/>
  <outline>
    <contour>
      <point x="581" y="1464" type="qcurve" name="at01"/>
      <point x="566" y="1352" type="line"/>
      <point x="536" y="1352"/>
      <point x="494" y="1337"/>
      <point x="467" y="1297"/>
      <point x="448" y="1223"/>
      <point x="440" y="1165" type="qcurve"/>
      <point x="413" y="962" type="line" name="iv01"/>
      <point x="449" y="982"/>
      <point x="530" y="1004"/>
      <point x="577" y="1004" type="qcurve" name="at02"/>
      <point x="643" y="1004"/>
      <point x="752" y="947"/>
      <point x="828" y="842"/>
      <point x="870" y="694"/>
      <point x="870" y="603" type="qcurve" name="dh02"/>
      <point x="870" y="469"/>
      <point x="803" y="237"/>
      <point x="683" y="67"/>
      <point x="515" y="-30"/>
      <point x="415" y="-30" type="qcurve" name="ab01"/>
      <point x="377" y="-30"/>
      <point x="301" y="-17"/>
      <point x="221" y="18"/>
      <point x="137" y="77"/>
      <point x="91" y="122" type="qcurve"/>
      <point x="214" y="1050" type="line"/>
      <point x="230" y="1176"/>
      <point x="287" y="1336"/>
      <point x="374" y="1429"/>
      <point x="497" y="1464"/>
    </contour>
    <contour>
      <point x="399" y="852" type="qcurve"/>
      <point x="302" y="122" type="line"/>
      <point x="319" y="99"/>
      <point x="379" y="82"/>
      <point x="415" y="82" type="qcurve" name="sv02"/>
      <point x="461" y="82"/>
      <point x="546" y="175"/>
      <point x="612" y="328"/>
      <point x="651" y="525"/>
      <point x="651" y="630" type="qcurve" name="dh01"/>
      <point x="651" y="689"/>
      <point x="635" y="785"/>
      <point x="604" y="854"/>
      <point x="557" y="892"/>
      <point x="524" y="892" type="qcurve" name="sv01"/>
      <point x="480" y="892"/>
      <point x="423" y="870"/>
    </contour>
  </outline>
</glyph>
<glyph name="latn:oopen" format="2">
  <advance width="768"/>
  <unicode hex="0254"/>
  <outline>
    <contour>
      <point x="150" y="234" type="line" name="iv01"/>
      <point x="162" y="207"/>
      <point x="192" y="153"/>
      <point x="232" y="109"/>
      <point x="283" y="82"/>
      <point x="316" y="82" type="qcurve" name="sv01"/>
      <point x="348" y="82"/>
      <point x="410" y="125"/>
      <point x="464" y="201"/>
      <point x="509" y="303"/>
      <point x="541" y="422"/>
      <point x="559" y="552"/>
      <point x="559" y="617" type="qcurve" name="dh01"/>
      <point x="559" y="747"/>
      <point x="485" y="892"/>
      <point x="423" y="892" type="qcurve" name="sv02"/>
      <point x="396" y="892"/>
      <point x="346" y="865"/>
      <point x="302" y="822"/>
      <point x="263" y="767"/>
      <point x="247" y="739" type="qcurve" name="iv02"/>
      <point x="162" y="852" type="line"/>
      <point x="188" y="884"/>
      <point x="248" y="940"/>
      <point x="319" y="981"/>
      <point x="406" y="1004"/>
      <point x="461" y="1004" type="qcurve" name="at01"/>
      <point x="536" y="1004"/>
      <point x="653" y="945"/>
      <point x="735" y="838"/>
      <point x="778" y="688"/>
      <point x="778" y="597" type="qcurve" name="dh02"/>
      <point x="778" y="512"/>
      <point x="746" y="352"/>
      <point x="688" y="213"/>
      <point x="605" y="98"/>
      <point x="504" y="15"/>
      <point x="387" y="-30"/>
      <point x="323" y="-30" type="qcurve" name="ab01"/>
      <point x="269" y="-30"/>
      <point x="188" y="-6"/>
      <point x="127" y="36"/>
      <point x="83" y="91"/>
      <point x="65" y="122" type="qcurve"/>
    </contour>
  </outline>
</glyph>
<glyph name="latn:ccurl" format="2">
  <advance width="768"/>
  <unicode hex="0255"/>
  <guideline x="0" y="-19" angle="40"/>
  <guideline x="0" y="-166" angle="40"/>
  <outline>
    <contour>
      <point x="734" y="740" type="line" name="iv01"/>
      <point x="725" y="759"/>
      <point x="699" y="811"/>
      <point x="659" y="859"/>
      <point x="604" y="892"/>
      <point x="568" y="892" type="qcurve" name="sv01"/>
      <point x="518" y="892"/>
      <point x="430" y="799"/>
      <point x="363" y="646"/>
      <point x="325" y="449"/>
      <point x="325" y="344" type="qcurve" name="dh02"/>
      <point x="360" y="385"/>
      <point x="427" y="439"/>
      <point x="488" y="472"/>
      <point x="540" y="486"/>
      <point x="561" y="486" type="qcurve" name="dv02"/>
      <point x="604" y="486"/>
      <point x="668" y="457"/>
      <point x="712" y="407"/>
      <point x="734" y="339"/>
      <point x="734" y="300" type="qcurve" name="dh04"/>
      <point x="734" y="216"/>
      <point x="677" y="92"/>
      <point x="587" y="10"/>
      <point x="476" y="-30"/>
      <point x="423" y="-30" type="qcurve" name="ab01"/>
      <point x="350" y="-30"/>
      <point x="247" y="19"/>
      <point x="206" y="64" type="qcurve"/>
      <point x="95" y="-60" type="line" name="av01"/>
      <point x="-10" y="-30" type="line" name="ab02"/>
      <point x="150" y="149" type="line"/>
      <point x="128" y="197"/>
      <point x="106" y="311"/>
      <point x="106" y="377" type="qcurve" name="dh01"/>
      <point x="106" y="462"/>
      <point x="137" y="622"/>
      <point x="196" y="761"/>
      <point x="278" y="876"/>
      <point x="380" y="959"/>
      <point x="497" y="1004"/>
      <point x="560" y="1004" type="qcurve" name="at01"/>
      <point x="614" y="1004"/>
      <point x="695" y="980"/>
      <point x="756" y="938"/>
      <point x="801" y="883"/>
      <point x="818" y="852" type="qcurve"/>
    </contour>
    <contour>
      <point x="545" y="374" type="qcurve" name="dv01"/>
      <point x="526" y="374"/>
      <point x="485" y="358"/>
      <point x="436" y="320"/>
      <point x="377" y="259"/>
      <point x="340" y="214" type="qcurve"/>
      <point x="356" y="151"/>
      <point x="415" y="82"/>
      <point x="468" y="82" type="qcurve" name="sv02"/>
      <point x="501" y="82"/>
      <point x="559" y="112"/>
      <point x="602" y="165"/>
      <point x="627" y="237"/>
      <point x="627" y="278" type="qcurve" name="dh03"/>
      <point x="627" y="305"/>
      <point x="614" y="341"/>
      <point x="590" y="364"/>
      <point x="561" y="374"/>
    </contour>
  </outline>
</glyph>
<glyph name="latn:dhook" format="2">
  <advance width="840"/>
  <unicode hex="0257"/>
  <outline>
    <contour>
      <point x="1060" y="1464" type="qcurve" name="at01"/>
      <point x="1045" y="1352" type="line"/>
      <point x="1014" y="1352"/>
      <point x="973" y="1337"/>
      <point x="944" y="1297"/>
      <point x="926" y="1223"/>
      <point x="919" y="1165" type="qcurve"/>
      <point x="785" y="156" type="line"/>
      <point x="785" y="149"/>
      <point x="784" y="136"/>
      <point x="784" y="131" type="qcurve"/>
      <point x="784" y="107"/>
      <point x="803" y="82"/>
      <point x="830" y="82" type="qcurve" name="sv01"/>
      <point x="815" y="-30" type="line" name="ab01"/>
      <point x="762" y="-30"/>
      <point x="685" y="-16"/>
      <point x="630" y="11"/>
      <point x="596" y="53"/>
      <point x="587" y="82" type="qcurve" name="iv01"/>
      <point x="568" y="58"/>
      <point x="521" y="17"/>
      <point x="469" y="-13"/>
      <point x="415" y="-30"/>
      <point x="388" y="-30" type="qcurve" name="ab02"/>
      <point x="325" y="-30"/>
      <point x="218" y="24"/>
      <point x="141" y="126"/>
      <point x="98" y="275"/>
      <point x="98" y="370" type="qcurve" name="dh01"/>
      <point x="98" y="450"/>
      <point x="127" y="606"/>
      <point x="181" y="747"/>
      <point x="257" y="867"/>
      <point x="353" y="954"/>
      <point x="464" y="1004"/>
      <point x="526" y="1004" type="qcurve" name="at02"/>
      <point x="548" y="1004"/>
      <point x="595" y="988"/>
      <point x="637" y="966"/>
      <point x="668" y="941"/>
      <point x="677" y="931" type="qcurve" name="iv02"/>
      <point x="692" y="1050" type="line"/>
      <point x="709" y="1176"/>
      <point x="764" y="1336"/>
      <point x="852" y="1429"/>
      <point x="976" y="1464"/>
    </contour>
    <contour>
      <point x="662" y="821" type="line"/>
      <point x="647" y="852"/>
      <point x="592" y="892"/>
      <point x="547" y="892" type="qcurve" name="sv02"/>
      <point x="515" y="892"/>
      <point x="455" y="846"/>
      <point x="404" y="767"/>
      <point x="362" y="661"/>
      <point x="333" y="541"/>
      <point x="317" y="412"/>
      <point x="317" y="350" type="qcurve" name="dh02"/>
      <point x="317" y="283"/>
      <point x="336" y="183"/>
      <point x="370" y="116"/>
      <point x="414" y="82"/>
      <point x="440" y="82" type="qcurve" name="sv03"/>
      <point x="485" y="82"/>
      <point x="550" y="123"/>
      <point x="573" y="152" type="qcurve"/>
    </contour>
  </outline>
</glyph>
<glyph name="latn:ereversed" format="2">
  <advance width="768"/>
  <unicode hex="0258"/>
  <outline>
    <contour>
      <point x="344" y="82" type="qcurve" name="sv01"/>
      <point x="375" y="82"/>
      <point x="445" y="128"/>
      <point x="509" y="227"/>
      <point x="563" y="380"/>
      <point x="578" y="487" type="qcurve" name="dv01"/>
      <point x="106" y="487" type="line"/>
      <point x="125" y="629"/>
      <point x="206" y="827"/>
      <point x="311" y="949"/>
      <point x="427" y="1004"/>
      <point x="481" y="1004" type="qcurve" name="at01"/>
      <point x="556" y="1004"/>
      <point x="676" y="945"/>
      <point x="760" y="839"/>
      <point x="805" y="689"/>
      <point x="805" y="599" type="qcurve" name="dh02"/>
      <point x="805" y="514"/>
      <point x="773" y="355"/>
      <point x="716" y="215"/>
      <point x="634" y="99"/>
      <point x="533" y="16"/>
      <point x="416" y="-30"/>
      <point x="351" y="-30" type="qcurve" name="ab01"/>
      <point x="302" y="-30"/>
      <point x="222" y="-7"/>
      <point x="158" y="34"/>
      <point x="110" y="90"/>
      <point x="93" y="122" type="qcurve"/>
      <point x="178" y="234" type="line" name="iv01"/>
      <point x="190" y="206"/>
      <point x="222" y="152"/>
      <point x="263" y="109"/>
      <point x="314" y="82"/>
    </contour>
    <contour>
      <point x="473" y="892" type="qcurve" name="sv02"/>
      <point x="446" y="892"/>
      <point x="394" y="859"/>
      <point x="349" y="789"/>
      <point x="313" y="677"/>
      <point x="302" y="599" type="qcurve"/>
      <point x="593" y="599" type="line" name="dv02"/>
      <point x="596" y="621"/>
      <point x="599" y="660"/>
      <point x="599" y="679" type="qcurve" name="dh01"/>
      <point x="599" y="731"/>
      <point x="579" y="811"/>
      <point x="544" y="865"/>
      <point x="498" y="892"/>
    </contour>
  </outline>
</glyph>
<glyph name="latn:schwa" format="2">
  <advance width="768"/>
  <unicode hex="0259"/>
  <outline>
    <contour>
      <point x="453" y="892" type="qcurve" name="sv01"/>
      <point x="423" y="892"/>
      <point x="371" y="865"/>
      <point x="325" y="822"/>
      <point x="286" y="767"/>
      <point x="269" y="739" type="qcurve" name="sh03"/>
      <point x="185" y="852" type="line"/>
      <point x="211" y="884"/>
      <point x="276" y="940"/>
      <point x="353" y="981"/>
      <point x="441" y="1004"/>
      <point x="491" y="1004" type="qcurve" name="at01"/>
      <point x="565" y="1004"/>
      <point x="680" y="946"/>
      <point x="759" y="840"/>
      <point x="800" y="692"/>
      <point x="800" y="602" type="qcurve" name="sh04"/>
      <point x="800" y="516"/>
      <point x="769" y="355"/>
      <point x="711" y="215"/>
      <point x="629" y="99"/>
      <point x="528" y="16"/>
      <point x="410" y="-30"/>
      <point x="346" y="-30" type="qcurve" name="ab01"/>
      <point x="300" y="-30"/>
      <point x="211" y="10"/>
      <point x="141" y="99"/>
      <point x="98" y="240"/>
      <point x="98" y="342" type="qcurve" name="sh01"/>
      <point x="98" y="375"/>
      <point x="104" y="447"/>
      <point x="109" y="487" type="qcurve" name="sh05"/>
      <point x="578" y="487" type="line" name="sh06"/>
      <point x="584" y="529"/>
      <point x="589" y="601"/>
      <point x="589" y="633" type="qcurve" name="ah01"/>
      <point x="589" y="706"/>
      <point x="566" y="805"/>
      <point x="528" y="866"/>
      <point x="479" y="892"/>
    </contour>
    <contour>
      <point x="368" y="82" type="qcurve" name="sv02"/>
      <point x="399" y="82"/>
      <point x="458" y="119"/>
      <point x="509" y="193"/>
      <point x="551" y="303"/>
      <point x="563" y="375" type="qcurve" name="dv01"/>
      <point x="275" y="375" type="line" name="sh07"/>
      <point x="272" y="344"/>
      <point x="267" y="290"/>
      <point x="267" y="266" type="qcurve" name="sh02"/>
      <point x="267" y="169"/>
      <point x="325" y="82"/>
    </contour>
  </outline>
</glyph>
<glyph name="latn:schwahook" format="2">
  <advance width="1080"/>
  <unicode hex="025A"/>
  <guideline x="0" y="249" angle="30"/>
  <guideline x="0" y="113" angle="30"/>
  <guideline x="369" y="0" angle="90"/>
  <guideline x="1382" y="0" angle="118"/>
  <outline>
    <contour>
      <point x="451" y="892" type="qcurve" name="sv01"/>
      <point x="420" y="892"/>
      <point x="368" y="865"/>
      <point x="323" y="821"/>
      <point x="286" y="767"/>
      <point x="269" y="739" type="qcurve" name="ih01"/>
      <point x="185" y="852" type="line"/>
      <point x="210" y="884"/>
      <point x="275" y="940"/>
      <point x="351" y="981"/>
      <point x="439" y="1004"/>
      <point x="488" y="1004" type="qcurve" name="at01"/>
      <point x="584" y="1004"/>
      <point x="715" y="918"/>
      <point x="756" y="831" type="qcurve"/>
      <point x="981" y="1004" type="line" name="ih02"/>
      <point x="1005" y="943" type="line"/>
      <point x="962" y="889" name="hr00"/>
      <point x="917" y="767"/>
      <point x="917" y="697" type="qcurve" name="dh06"/>
      <point x="917" y="679"/>
      <point x="925" y="644"/>
      <point x="941" y="616"/>
      <point x="966" y="599"/>
      <point x="983" y="599" type="qcurve" name="dv02"/>
      <point x="1004" y="599"/>
      <point x="1036" y="626"/>
      <point x="1058" y="668"/>
      <point x="1073" y="717"/>
      <point x="1076" y="740" type="qcurve"/>
      <point x="1164" y="740" type="line" name="sh01"/>
      <point x="1164" y="687"/>
      <point x="1130" y="596"/>
      <point x="1073" y="527"/>
      <point x="1001" y="488"/>
      <point x="965" y="488" type="qcurve" name="dv01"/>
      <point x="935" y="488"/>
      <point x="886" y="518"/>
      <point x="851" y="570"/>
      <point x="833" y="639"/>
      <point x="833" y="678" type="qcurve" name="dh05"/>
      <point x="833" y="704"/>
      <point x="839" y="750"/>
      <point x="842" y="761" type="qcurve" name="ih03"/>
      <point x="790" y="721" type="line"/>
      <point x="796" y="690"/>
      <point x="800" y="633"/>
      <point x="800" y="598" type="qcurve" name="dh04"/>
      <point x="800" y="512"/>
      <point x="768" y="353"/>
      <point x="710" y="213"/>
      <point x="627" y="98"/>
      <point x="525" y="15"/>
      <point x="407" y="-30"/>
      <point x="344" y="-30" type="qcurve" name="ab01"/>
      <point x="295" y="-30"/>
      <point x="206" y="14"/>
      <point x="139" y="102"/>
      <point x="98" y="235"/>
      <point x="98" y="325" type="qcurve" name="dh01"/>
      <point x="586" y="700" type="line" name="sh02"/>
      <point x="580" y="754"/>
      <point x="555" y="827"/>
      <point x="520" y="872"/>
      <point x="476" y="892"/>
    </contour>
    <contour>
      <point x="366" y="82" type="qcurve" name="sv02"/>
      <point x="407" y="82"/>
      <point x="470" y="131"/>
      <point x="518" y="212"/>
      <point x="552" y="315"/>
      <point x="573" y="422"/>
      <point x="584" y="524"/>
      <point x="586" y="564" type="qcurve" name="dh03"/>
      <point x="269" y="320" type="line"/>
      <point x="267" y="303"/>
      <point x="267" y="284" type="qcurve" name="dh02"/>
      <point x="267" y="257"/>
      <point x="276" y="187"/>
      <point x="299" y="125"/>
      <point x="337" y="82"/>
    </contour>
  </outline>
</glyph>
<glyph name="latn:eopenreversed" format="2">
  <advance width="648"/>
  <unicode hex="025C"/>
  <outline>
    <contour>
      <point x="269" y="-30" type="qcurve" name="ab01"/>
      <point x="228" y="-30"/>
      <point x="158" y="-5"/>
      <point x="99" y="37"/>
      <point x="53" y="92"/>
      <point x="36" y="122" type="qcurve"/>
      <point x="122" y="235" type="line" name="iv01"/>
      <point x="134" y="207"/>
      <point x="166" y="152"/>
      <point x="206" y="109"/>
      <point x="252" y="82"/>
      <point x="281" y="82" type="qcurve" name="sv01"/>
      <point x="317" y="82"/>
      <point x="377" y="125"/>
      <point x="420" y="193"/>
      <point x="444" y="278"/>
      <point x="444" y="320" type="qcurve" name="dh01"/>
      <point x="444" y="357"/>
      <point x="425" y="419"/>
      <point x="383" y="463"/>
      <point x="317" y="487"/>
      <point x="271" y="487" type="qcurve" name="dv01"/>
      <point x="286" y="599" type="line" name="dv02"/>
      <point x="325" y="599"/>
      <point x="393" y="626"/>
      <point x="444" y="677"/>
      <point x="474" y="749"/>
      <point x="474" y="793" type="qcurve" name="sh01"/>
      <point x="474" y="838"/>
      <point x="437" y="892"/>
      <point x="398" y="892" type="qcurve" name="sv02"/>
      <point x="380" y="892"/>
      <point x="341" y="869"/>
      <point x="303" y="828"/>
      <point x="266" y="773"/>
      <point x="248" y="740" type="qcurve" name="iv02"/>
      <point x="163" y="852" type="line"/>
      <point x="186" y="880"/>
      <point x="245" y="935"/>
      <point x="316" y="978"/>
      <point x="398" y="1004"/>
      <point x="446" y="1004" type="qcurve" name="at01"/>
      <point x="498" y="1004"/>
      <point x="579" y="975"/>
      <point x="635" y="922"/>
      <point x="663" y="849"/>
      <point x="663" y="804" type="qcurve"/>
      <point x="663" y="762"/>
      <point x="640" y="686"/>
      <point x="602" y="621"/>
      <point x="554" y="569"/>
      <point x="530" y="551" type="qcurve" name="ih01"/>
      <point x="554" y="538"/>
      <point x="596" y="504"/>
      <point x="629" y="456"/>
      <point x="648" y="389"/>
      <point x="648" y="343" type="qcurve" name="dh02"/>
      <point x="648" y="279"/>
      <point x="614" y="174"/>
      <point x="557" y="91"/>
      <point x="481" y="30"/>
      <point x="396" y="-10"/>
      <point x="309" y="-30"/>
    </contour>
  </outline>
</glyph>
<glyph name="uni025D" format="2">
  <advance width="936"/>
  <unicode hex="025D"/>
  <guideline x="0" y="381" angle="35"/>
  <outline>
    <contour>
      <point x="269" y="-30" type="qcurve" name="ab01"/>
      <point x="228" y="-30"/>
      <point x="158" y="-5"/>
      <point x="99" y="37"/>
      <point x="53" y="92"/>
      <point x="36" y="122" type="qcurve"/>
      <point x="122" y="235" type="line" name="iv01"/>
      <point x="134" y="207"/>
      <point x="166" y="152"/>
      <point x="206" y="109"/>
      <point x="252" y="82" name="hr00"/>
      <point x="281" y="82" type="qcurve" name="sv01"/>
      <point x="317" y="82"/>
      <point x="377" y="125"/>
      <point x="420" y="193"/>
      <point x="444" y="278"/>
      <point x="444" y="320" type="qcurve" name="dh01"/>
      <point x="444" y="357"/>
      <point x="425" y="419"/>
      <point x="383" y="463"/>
      <point x="317" y="487"/>
      <point x="271" y="487" type="qcurve" name="dv01"/>
      <point x="286" y="599" type="line" name="dv02"/>
      <point x="325" y="599"/>
      <point x="393" y="626"/>
      <point x="444" y="677"/>
      <point x="474" y="749"/>
      <point x="474" y="793" type="qcurve" name="sh01"/>
      <point x="474" y="838"/>
      <point x="437" y="892"/>
      <point x="398" y="892" type="qcurve" name="sv02"/>
      <point x="380" y="892"/>
      <point x="341" y="869"/>
      <point x="303" y="828"/>
      <point x="266" y="773"/>
      <point x="248" y="740" type="qcurve" name="iv02"/>
      <point x="163" y="852" type="line"/>
      <point x="186" y="880"/>
      <point x="245" y="935"/>
      <point x="316" y="978"/>
      <point x="398" y="1004"/>
      <point x="446" y="1004" type="qcurve" name="at01"/>
      <point x="533" y="1004"/>
      <point x="640" y="927"/>
      <point x="656" y="861" type="qcurve" name="ih01"/>
      <point x="842" y="1004" type="line" name="ih02"/>
      <point x="866" y="943" type="line"/>
      <point x="823" y="889"/>
      <point x="777" y="767"/>
      <point x="777" y="697" type="qcurve" name="dh04"/>
      <point x="777" y="679"/>
      <point x="785" y="644"/>
      <point x="802" y="616"/>
      <point x="827" y="599"/>
      <point x="843" y="599" type="qcurve" name="sv03"/>
      <point x="861" y="599"/>
      <point x="892" y="621"/>
      <point x="917" y="659"/>
      <point x="932" y="711"/>
      <point x="936" y="740" type="qcurve"/>
      <point x="1025" y="740" type="line" name="sh02"/>
      <point x="1025" y="687"/>
      <point x="990" y="595"/>
      <point x="934" y="527"/>
      <point x="862" y="487"/>
      <point x="825" y="487" type="qcurve" name="sv04"/>
      <point x="795" y="487"/>
      <point x="746" y="517"/>
      <point x="712" y="570"/>
      <point x="693" y="639"/>
      <point x="693" y="678" type="qcurve" name="dh03"/>
      <point x="693" y="704"/>
      <point x="699" y="750"/>
      <point x="703" y="761" type="qcurve" name="ih03"/>
      <point x="650" y="721" type="line"/>
      <point x="633" y="664"/>
      <point x="566" y="577"/>
      <point x="530" y="551" type="qcurve" name="ih04"/>
      <point x="554" y="538"/>
      <point x="596" y="504"/>
      <point x="629" y="456"/>
      <point x="648" y="389"/>
      <point x="648" y="343" type="qcurve" name="dh02"/>
      <point x="648" y="279"/>
      <point x="614" y="174"/>
      <point x="557" y="91"/>
      <point x="481" y="30"/>
      <point x="397" y="-10"/>
      <point x="309" y="-30"/>
    </contour>
  </outline>
</glyph>
